{
.appVersion = "1348";
copyright = "Copyright 2019 Google LLC. All Rights Reserved.";
customParameters = (
{
name = glyphOrder;
value = (
.notdef,
NULL,
CR,
space,
VowelA.MGondi,
VowelAa.MGondi,
VowelI.MGondi,
VowelIi.MGondi,
VowelU.MGondi,
VowelUu.MGondi,
VowelE.MGondi,
VowelAi.MGondi,
VowelO.MGondi,
VowelAu.MGondi,
Ka.MGondi,
Kha.MGondi,
Ga.MGondi,
Gha.MGondi,
Nga.MGondi,
Ca.MGondi,
Cha.MGondi,
Ja.MGondi,
Jha.MGondi,
Nya.MGondi,
Tta.MGondi,
Ttha.MGondi,
Dda.MGondi,
Ddha.MGondi,
Nna.MGondi,
Ta.MGondi,
Tha.MGondi,
Da.MGondi,
Dha.MGondi,
Na.MGondi,
Pa.MGondi,
Pha.MGondi,
Ba.MGondi,
Bha.MGondi,
Ma.MGondi,
Ya.MGondi,
Ra.MGondi,
La.MGondi,
Va.MGondi,
Sha.MGondi,
Ssa.MGondi,
Sa.MGondi,
Ha.MGondi,
Lla.MGondi,
Kssa.MGondi,
Jnya.MGondi,
Tra.MGondi,
MatraAa.MGondi,
MatraI.MGondi,
MatraIi.MGondi,
MatraU.MGondi,
MatraUu.MGondi,
MatraVocalicR.MGondi,
MatraE.MGondi,
MatraAi.MGondi,
MatraO.MGondi,
MatraAu.MGondi,
Anusvara.MGondi,
Visarga.MGondi,
Nukta.MGondi,
Chandra.MGondi,
Halanta.MGondi,
Virama.MGondi,
Repha.MGondi,
Rakara.MGondi,
Zero.MGondi,
One.MGondi,
Two.MGondi,
Three.MGondi,
Four.MGondi,
Five.MGondi,
Six.MGondi,
Seven.MGondi,
Eight.MGondi,
Nine.MGondi,
KaNukta.MGondi,
KhaNukta.MGondi,
GaNukta.MGondi,
JaNukta.MGondi,
DdaNukta.MGondi,
DdhaNukta.MGondi,
PhaNukta.MGondi,
YaNukta.MGondi,
KaHalf.MGondi,
KhaHalf.MGondi,
GaHalf.MGondi,
GhaHalf.MGondi,
NgaHalf.MGondi,
CaHalf.MGondi,
ChaHalf.MGondi,
JaHalf.MGondi,
JhaHalf.MGondi,
NyaHalf.MGondi,
TtaHalf.MGondi,
TthaHalf.MGondi,
DdaHalf.MGondi,
DdhaHalf.MGondi,
NnaHalf.MGondi,
TaHalf.MGondi,
ThaHalf.MGondi,
DaHalf.MGondi,
DhaHalf.MGondi,
NaHalf.MGondi,
PaHalf.MGondi,
PhaHalf.MGondi,
BaHalf.MGondi,
BhaHalf.MGondi,
MaHalf.MGondi,
YaHalf.MGondi,
RaHalf.MGondi,
LaHalf.MGondi,
VaHalf.MGondi,
ShaHalf.MGondi,
SsaHalf.MGondi,
SaHalf.MGondi,
HaHalf.MGondi,
LlaHalf.MGondi,
KssaHalf.MGondi,
JnyaHalf.MGondi,
TraHalf.MGondi,
KaHalfNukta.MGondi,
KhaHalfNukta.MGondi,
GaHalfNukta.MGondi,
JaHalfNukta.MGondi,
DdaHalfNukta.MGondi,

glyphs = (
{
glyphname = .notdef;
lastChange = "2019-10-22 12:17:12 +0000";
layers = (
{
background = {
paths = (
{
closed = 1;
nodes = (
"505 0 LINE",
"505 714 LINE",
"94 714 LINE",
"94 0 LINE"
);
},
{
closed = 1;
nodes = (
"145 663 LINE",
"454 663 LINE",
"454 51 LINE",
"145 51 LINE"
);
}
);
};
layerId = "55C6F8EE-B60C-49C4-8D15-2255C9205224";
paths = (
{
closed = 1;
nodes = (
"505 0 LINE",
"505 714 LINE",
"94 714 LINE",
"94 0 LINE"
);
},
{
closed = 1;
nodes = (
"145 663 LINE",
"454 663 LINE",
"454 51 LINE",
"145 51 LINE"
);
}
);
width = 600;
}
);
},
{
glyphname = VowelA.MGondi;
lastChange = "2019-11-23 13:40:42 +0000";
layers = (
{
anchors = (
{
name = top1;
position = "{322, 698}";
}
);
background = {
paths = (
{
closed = 1;
nodes = (
"185 0 LINE",
"185 403 LINE SMOOTH",
"185 510 OFFCURVE",
"238 557 OFFCURVE",
"322 557 CURVE SMOOTH",
"406 557 OFFCURVE",
"459 510 OFFCURVE",
"459 403 CURVE SMOOTH",
"459 0 LINE",
"902 0 LINE",
"902 76 LINE",
"554 76 LINE",
"554 404 LINE SMOOTH",
"554 547 OFFCURVE",
"471 635 OFFCURVE",
"322 635 CURVE SMOOTH",
"170 635 OFFCURVE",
"90 548 OFFCURVE",
"90 404 CURVE SMOOTH",
"90 0 LINE"
);
}
);
};
layerId = "55C6F8EE-B60C-49C4-8D15-2255C9205224";
paths = (
{
closed = 1;
nodes = (
"185 0 LINE",
"185 403 LINE SMOOTH",
"185 510 OFFCURVE",
"238 557 OFFCURVE",
"322 557 CURVE SMOOTH",
"406 557 OFFCURVE",
"459 510 OFFCURVE",
"459 403 CURVE SMOOTH",
"459 0 LINE",
"902 0 LINE",
"902 76 LINE",
"554 76 LINE",
"554 404 LINE SMOOTH",
"554 547 OFFCURVE",
"471 635 OFFCURVE",
"322 635 CURVE SMOOTH",
"170 635 OFFCURVE",
"90 548 OFFCURVE",
"90 404 CURVE SMOOTH",
"90 0 LINE"
);
}
);
width = 932;
}
);
leftKerningGroup = VowelA.MGondi;
rightKerningGroup = VowelA.MGondi;
unicode = 11D00;
category = Letter;
},
{
glyphname = VowelAa.MGondi;
lastChange = "2019-11-23 13:40:44 +0000";
layers = (
{
anchors = (
{
name = top1;
position = "{322, 698}";
}
);
background = {
paths = (
{
closed = 1;
nodes = (
"185 0 LINE",
"185 403 LINE SMOOTH",
"185 510 OFFCURVE",
"238 557 OFFCURVE",
"322 557 CURVE SMOOTH",
"406 557 OFFCURVE",
"459 510 OFFCURVE",
"459 403 CURVE SMOOTH",
"459 0 LINE",
"902 0 LINE",
"902 76 LINE",
"554 76 LINE",
"554 281 LINE",
"902 281 LINE",
"902 357 LINE",
"554 357 LINE",
"554 404 LINE SMOOTH",
"554 547 OFFCURVE",
"471 635 OFFCURVE",
"322 635 CURVE SMOOTH",
"170 635 OFFCURVE",
"90 548 OFFCURVE",
"90 404 CURVE SMOOTH",
"90 0 LINE"
);
}
);
};
layerId = "55C6F8EE-B60C-49C4-8D15-2255C9205224";
paths = (
{
closed = 1;
nodes = (
"185 0 LINE",
"185 403 LINE SMOOTH",
"185 510 OFFCURVE",
"238 557 OFFCURVE",
"322 557 CURVE SMOOTH",
"406 557 OFFCURVE",
"459 510 OFFCURVE",
"459 403 CURVE SMOOTH",
"459 0 LINE",
"902 0 LINE",
"902 76 LINE",
"554 76 LINE",
"554 281 LINE",
"902 281 LINE",
"902 357 LINE",
"554 357 LINE",
"554 404 LINE SMOOTH",
"554 547 OFFCURVE",
"471 635 OFFCURVE",
"322 635 CURVE SMOOTH",
"170 635 OFFCURVE",
"90 548 OFFCURVE",
"90 404 CURVE SMOOTH",
"90 0 LINE"
);
}
);
width = 932;
}
);
leftKerningGroup = VowelA.MGondi;
leftMetricsKey = VowelA.MGondi;
rightMetricsKey = VowelA.MGondi;
unicode = 11D01;
category = Letter;
},
{
glyphname = VowelI.MGondi;
lastChange = "2019-11-23 13:40:50 +0000";
layers = (
{
anchors = (
{
name = top1;
position = "{269, 698}";
}
);
background = {
paths = (
{
closed = 1;
nodes = (
"564 0 LINE",
"564 76 LINE",
"185 76 LINE",
"185 460 LINE SMOOTH",
"185 515 OFFCURVE",
"212 557 OFFCURVE",
"269 557 CURVE SMOOTH",
"322 557 OFFCURVE",
"355 521 OFFCURVE",
"355 462 CURVE SMOOTH",
"355 412 LINE",
"450 412 LINE",
"450 463 LINE SMOOTH",
"450 570 OFFCURVE",
"373 635 OFFCURVE",
"269 635 CURVE SMOOTH",
"157 635 OFFCURVE",
"90 565 OFFCURVE",
"90 461 CURVE SMOOTH",
"90 0 LINE"
);
}
);
};
layerId = "55C6F8EE-B60C-49C4-8D15-2255C9205224";
paths = (
{
closed = 1;
nodes = (
"564 0 LINE",
"564 76 LINE",
"185 76 LINE",
"185 460 LINE SMOOTH",
"185 515 OFFCURVE",
"212 557 OFFCURVE",
"269 557 CURVE SMOOTH",
"322 557 OFFCURVE",
"355 521 OFFCURVE",
"355 462 CURVE SMOOTH",
"355 412 LINE",
"450 412 LINE",
"450 463 LINE SMOOTH",
"450 570 OFFCURVE",
"373 635 OFFCURVE",
"269 635 CURVE SMOOTH",
"157 635 OFFCURVE",
"90 565 OFFCURVE",
"90 461 CURVE SMOOTH",
"90 0 LINE"
);
}
);
width = 594;
}
);
leftKerningGroup = VowelA.MGondi;
leftMetricsKey = VowelA.MGondi;
rightMetricsKey = VowelA.MGondi;
unicode = 11D02;
category = Letter;
},
{
glyphname = VowelIi.MGondi;
lastChange = "2019-11-23 13:47:53 +0000";
layers = (
{
anchors = (
{
name = top1;
position = "{580, 698}";
}
);
background = {
paths = (
{
closed = 1;
nodes = (
"185 412 LINE",
"185 462 LINE SMOOTH",
"185 521 OFFCURVE",
"218 557 OFFCURVE",
"271 557 CURVE SMOOTH",
"328 557 OFFCURVE",
"355 515 OFFCURVE",
"355 460 CURVE SMOOTH",
"355 0 LINE",
"799 0 LINE",
"799 76 LINE",
"450 76 LINE",
"450 461 LINE SMOOTH",
"450 565 OFFCURVE",
"383 635 OFFCURVE",
"271 635 CURVE SMOOTH",
"167 635 OFFCURVE",
"90 570 OFFCURVE",
"90 463 CURVE SMOOTH",
"90 412 LINE"
);
}
);
};
layerId = "55C6F8EE-B60C-49C4-8D15-2255C9205224";
paths = (
{
closed = 1;
nodes = (
"185 412 LINE",
"185 462 LINE SMOOTH",
"185 521 OFFCURVE",
"218 557 OFFCURVE",
"271 557 CURVE SMOOTH",
"328 557 OFFCURVE",
"355 515 OFFCURVE",
"355 460 CURVE SMOOTH",
"355 0 LINE",
"799 0 LINE",
"799 76 LINE",
"450 76 LINE",
"450 461 LINE SMOOTH",
"450 565 OFFCURVE",
"383 635 OFFCURVE",
"271 635 CURVE SMOOTH",
"167 635 OFFCURVE",
"90 570 OFFCURVE",
"90 463 CURVE SMOOTH",
"90 412 LINE"
);
}
);
width = 829;
}
);
rightKerningGroup = VowelA.MGondi;
rightMetricsKey = VowelA.MGondi;
unicode = 11D03;
category = Letter;
},
{
glyphname = VowelU.MGondi;
lastChange = "2019-11-23 13:47:55 +0000";
layers = (
{
anchors = (
{
name = top1;
position = "{580, 698}";
}
);
background = {
paths = (
{
closed = 1;
nodes = (
"89 351 OFFCURVE",
"161 298 OFFCURVE",
"256 298 CURVE SMOOTH",
"299 298 OFFCURVE",
"331 309 OFFCURVE",
"355 327 CURVE",
"355 0 LINE",
"798 0 LINE",
"798 76 LINE",
"450 76 LINE",
"450 630 LINE",
"355 630 LINE",
"355 460 LINE SMOOTH",
"355 405 OFFCURVE",
"322 376 OFFCURVE",
"266 376 CURVE SMOOTH",
"219 376 OFFCURVE",
"185 402 OFFCURVE",
"185 460 CURVE SMOOTH",
"185 630 LINE",
"90 630 LINE",
"90 459 LINE SMOOTH"
);
}
);
};
layerId = "55C6F8EE-B60C-49C4-8D15-2255C9205224";
paths = (
{
closed = 1;
nodes = (
"89 351 OFFCURVE",
"161 298 OFFCURVE",
"256 298 CURVE SMOOTH",
"299 298 OFFCURVE",
"331 309 OFFCURVE",
"355 327 CURVE",
"355 0 LINE",
"798 0 LINE",
"798 76 LINE",
"450 76 LINE",
"450 630 LINE",
"355 630 LINE",
"355 460 LINE SMOOTH",
"355 405 OFFCURVE",
"322 376 OFFCURVE",
"266 376 CURVE SMOOTH",
"219 376 OFFCURVE",
"185 402 OFFCURVE",
"185 460 CURVE SMOOTH",
"185 630 LINE",
"90 630 LINE",
"90 459 LINE SMOOTH"
);
}
);
width = 828;
}
);
rightKerningGroup = VowelA.MGondi;
rightMetricsKey = VowelA.MGondi;
unicode = 11D04;
category = Letter;
},
{
glyphname = VowelUu.MGondi;
lastChange = "2019-11-23 13:47:58 +0000";
layers = (
{
anchors = (
{
name = top1;
position = "{273, 698}";
}
);
background = {
paths = (
{
closed = 1;
nodes = (
"564 0 LINE",
"564 76 LINE",
"185 76 LINE",
"185 326 LINE",
"209 309 OFFCURVE",
"241 298 OFFCURVE",
"283 298 CURVE SMOOTH",
"378 298 OFFCURVE",
"450 351 OFFCURVE",
"449 459 CURVE",
"449 630 LINE",
"354 630 LINE",
"354 460 LINE SMOOTH",
"354 402 OFFCURVE",
"320 376 OFFCURVE",
"273 376 CURVE SMOOTH",
"223 376 OFFCURVE",
"191 399 OFFCURVE",
"185 444 CURVE",
"185 630 LINE",
"90 630 LINE",
"90 0 LINE"
);
}
);
};
layerId = "55C6F8EE-B60C-49C4-8D15-2255C9205224";
paths = (
{
closed = 1;
nodes = (
"564 0 LINE",
"564 76 LINE",
"185 76 LINE",
"185 326 LINE",
"209 309 OFFCURVE",
"241 298 OFFCURVE",
"283 298 CURVE SMOOTH",
"378 298 OFFCURVE",
"450 351 OFFCURVE",
"449 459 CURVE",
"449 630 LINE",
"354 630 LINE",
"354 460 LINE SMOOTH",
"354 402 OFFCURVE",
"320 376 OFFCURVE",
"273 376 CURVE SMOOTH",
"223 376 OFFCURVE",
"191 399 OFFCURVE",
"185 444 CURVE",
"185 630 LINE",
"90 630 LINE",
"90 0 LINE"
);
}
);
width = 594;
}
);
rightMetricsKey = VowelA.MGondi;
unicode = 11D05;
category = Letter;
},
{
glyphname = VowelE.MGondi;
lastChange = "2019-11-23 13:48:01 +0000";
layers = (
{
anchors = (
{
name = top1;
position = "{320, 698}";
}
);
background = {
paths = (
{
closed = 1;
nodes = (
"564 0 LINE",
"564 76 LINE",
"185 76 LINE",
"185 630 LINE",
"90 630 LINE",
"90 0 LINE"
);
}
);
};
layerId = "55C6F8EE-B60C-49C4-8D15-2255C9205224";
paths = (
{
closed = 1;
nodes = (
"564 0 LINE",
"564 76 LINE",
"185 76 LINE",
"185 630 LINE",
"90 630 LINE",
"90 0 LINE"
);
}
);
width = 594;
}
);
rightKerningGroup = VowelA.MGondi;
rightMetricsKey = VowelA.MGondi;
unicode = 11D06;
category = Letter;
},
{
glyphname = VowelAi.MGondi;
lastChange = "2019-11-23 13:48:06 +0000";
layers = (
{
anchors = (
{
name = top1;
position = "{257, 698}";
}
);
background = {
paths = (
{
closed = 1;
nodes = (
"584 0 LINE",
"584 76 LINE",
"414 76 LINE",
"414 630 LINE",
"319 630 LINE",
"319 76 LINE",
"185 76 LINE",
"185 630 LINE",
"90 630 LINE",
"90 0 LINE"
);
}
);
};
layerId = "55C6F8EE-B60C-49C4-8D15-2255C9205224";
paths = (
{
closed = 1;
nodes = (
"584 0 LINE",
"584 76 LINE",
"414 76 LINE",
"414 630 LINE",
"319 630 LINE",
"319 76 LINE",
"185 76 LINE",
"185 630 LINE",
"90 630 LINE",
"90 0 LINE"
);
}
);
width = 614;
}
);
rightMetricsKey = VowelA.MGondi;
unicode = 11D08;
category = Letter;
},
{
glyphname = VowelO.MGondi;
lastChange = "2019-11-23 13:41:36 +0000";
layers = (
{
anchors = (
{
name = top1;
position = "{322, 698}";
}
);
background = {
paths = (
{
closed = 1;
nodes = (
"185 0 LINE",
"185 403 LINE SMOOTH",
"185 510 OFFCURVE",
"238 557 OFFCURVE",
"322 557 CURVE SMOOTH",
"406 557 OFFCURVE",
"459 510 OFFCURVE",
"459 403 CURVE SMOOTH",
"459 0 LINE",
"902 0 LINE",
"902 76 LINE",
"554 76 LINE",
"554 281 LINE",
"902 281 LINE",
"902 357 LINE",
"772 357 LINE",
"772 630 LINE",
"687 630 LINE",
"687 357 LINE",
"554 357 LINE",
"554 404 LINE SMOOTH",
"554 546 OFFCURVE",
"471 635 OFFCURVE",
"322 635 CURVE SMOOTH",
"170 635 OFFCURVE",
"90 548 OFFCURVE",
"90 404 CURVE SMOOTH",
"90 0 LINE"
);
}
);
};
layerId = "55C6F8EE-B60C-49C4-8D15-2255C9205224";
paths = (
{
closed = 1;
nodes = (
"185 0 LINE",
"185 403 LINE SMOOTH",
"185 510 OFFCURVE",
"238 557 OFFCURVE",
"322 557 CURVE SMOOTH",
"406 557 OFFCURVE",
"459 510 OFFCURVE",
"459 403 CURVE SMOOTH",
"459 0 LINE",
"902 0 LINE",
"902 76 LINE",
"554 76 LINE",
"554 281 LINE",
"902 281 LINE",
"902 357 LINE",
"772 357 LINE",
"772 630 LINE",
"687 630 LINE",
"687 357 LINE",
"554 357 LINE",
"554 404 LINE SMOOTH",
"554 546 OFFCURVE",
"471 635 OFFCURVE",
"322 635 CURVE SMOOTH",
"170 635 OFFCURVE",
"90 548 OFFCURVE",
"90 404 CURVE SMOOTH",
"90 0 LINE"
);
}
);
width = 932;
}
);
leftKerningGroup = VowelA.MGondi;
leftMetricsKey = VowelA.MGondi;
rightMetricsKey = VowelA.MGondi;
unicode = 11D09;
category = Letter;
},
{
glyphname = VowelAu.MGondi;
lastChange = "2019-11-23 13:41:41 +0000";
layers = (
{
anchors = (
{
name = top1;
position = "{322, 698}";
}
);
background = {
paths = (
{
closed = 1;
nodes = (
"185 0 LINE",
"185 403 LINE SMOOTH",
"185 510 OFFCURVE",
"238 557 OFFCURVE",
"322 557 CURVE SMOOTH",
"406 557 OFFCURVE",
"459 510 OFFCURVE",
"459 403 CURVE SMOOTH",
"459 0 LINE",
"939 0 LINE",
"939 76 LINE",
"554 76 LINE",
"554 281 LINE",
"939 281 LINE",
"939 357 LINE",
"862 357 LINE",
"862 630 LINE",
"782 630 LINE",
"782 357 LINE",
"707 357 LINE",
"707 630 LINE",
"626 630 LINE",
"626 357 LINE",
"554 357 LINE",
"554 404 LINE SMOOTH",
"554 547 OFFCURVE",
"471 635 OFFCURVE",
"322 635 CURVE SMOOTH",
"170 635 OFFCURVE",
"90 548 OFFCURVE",
"90 404 CURVE SMOOTH",
"90 0 LINE"
);
}
);
};
layerId = "55C6F8EE-B60C-49C4-8D15-2255C9205224";
paths = (
{
closed = 1;
nodes = (
"185 0 LINE",
"185 403 LINE SMOOTH",
"185 510 OFFCURVE",
"238 557 OFFCURVE",
"322 557 CURVE SMOOTH",
"406 557 OFFCURVE",
"459 510 OFFCURVE",
"459 403 CURVE SMOOTH",
"459 0 LINE",
"939 0 LINE",
"939 76 LINE",
"554 76 LINE",
"554 281 LINE",
"939 281 LINE",
"939 357 LINE",
"862 357 LINE",
"862 630 LINE",
"782 630 LINE",
"782 357 LINE",
"707 357 LINE",
"707 630 LINE",
"626 630 LINE",
"626 357 LINE",
"554 357 LINE",
"554 404 LINE SMOOTH",
"554 547 OFFCURVE",
"471 635 OFFCURVE",
"322 635 CURVE SMOOTH",
"170 635 OFFCURVE",
"90 548 OFFCURVE",
"90 404 CURVE SMOOTH",
"90 0 LINE"
);
}
);
width = 969;
}
);
leftKerningGroup = VowelA.MGondi;
leftMetricsKey = VowelA.MGondi;
rightMetricsKey = VowelA.MGondi;
unicode = 11D0B;
category = Letter;
},
{
glyphname = Ka.MGondi;
lastChange = "2019-11-22 14:56:14 +0000";
layers = (
{
anchors = (
{
name = bottom1;
position = "{326, -78}";
},
{
name = top1;
position = "{326, 698}";
}
);
background = {
anchors = (
{
name = bottom1;
position = "{326, -78}";
},
{
name = top1;
position = "{326, 698}";
}
);
paths = (
{
closed = 1;
nodes = (
"75 125 OFFCURVE",
"168 -10 OFFCURVE",
"326 -10 CURVE SMOOTH",
"482 -10 OFFCURVE",
"573 109 OFFCURVE",
"583 281 CURVE",
"867 281 LINE",
"867 357 LINE",
"582 357 LINE",
"569 523 OFFCURVE",
"477 635 OFFCURVE",
"326 635 CURVE SMOOTH",
"168 635 OFFCURVE",
"75 501 OFFCURVE",
"75 314 CURVE SMOOTH"
);
},
{
closed = 1;
nodes = (
"170 461 OFFCURVE",
"223 556 OFFCURVE",
"326 556 CURVE SMOOTH",
"435 556 OFFCURVE",
"489 461 OFFCURVE",
"489 313 CURVE SMOOTH",
"489 164 OFFCURVE",
"435 68 OFFCURVE",
"326 68 CURVE SMOOTH",
"223 68 OFFCURVE",
"170 165 OFFCURVE",
"170 313 CURVE SMOOTH"
);
}
);
};
layerId = "55C6F8EE-B60C-49C4-8D15-2255C9205224";
paths = (
{
closed = 1;
nodes = (
"75 125 OFFCURVE",
"168 -10 OFFCURVE",
"326 -10 CURVE SMOOTH",
"482 -10 OFFCURVE",
"573 109 OFFCURVE",
"583 281 CURVE",
"867 281 LINE",
"867 357 LINE",
"582 357 LINE",
"569 523 OFFCURVE",
"477 635 OFFCURVE",
"326 635 CURVE SMOOTH",
"168 635 OFFCURVE",
"75 501 OFFCURVE",
"75 314 CURVE SMOOTH"
);
},
{
closed = 1;
nodes = (
"170 461 OFFCURVE",
"223 556 OFFCURVE",
"326 556 CURVE SMOOTH",
"435 556 OFFCURVE",
"489 461 OFFCURVE",
"489 313 CURVE SMOOTH",
"489 164 OFFCURVE",
"435 68 OFFCURVE",
"326 68 CURVE SMOOTH",
"223 68 OFFCURVE",
"170 165 OFFCURVE",
"170 313 CURVE SMOOTH"
);
}
);
width = 877;
}
);
leftKerningGroup = Ka.MGondi;
rightKerningGroup = Ka.MGondi;
unicode = 11D0C;
category = Letter;
},
{
glyphname = Kha.MGondi;
lastChange = "2019-10-22 12:17:12 +0000";
layers = (
{
anchors = (
{
name = bottom1;
position = "{287, -78}";
},
{
name = top1;
position = "{287, 698}";
}
);
background = {
anchors = (
{
name = bottom1;
position = "{287, -78}";
},
{
name = top1;
position = "{287, 698}";
}
);
paths = (
{
closed = 1;
nodes = (
"75 65 OFFCURVE",
"162 -10 OFFCURVE",
"285 -10 CURVE SMOOTH",
"407 -10 OFFCURVE",
"494 60 OFFCURVE",
"494 168 CURVE SMOOTH",
"494 224 OFFCURVE",
"473 259 OFFCURVE",
"445 281 CURVE",
"769 281 LINE",
"769 357 LINE",
"426 357 LINE",
"457 376 OFFCURVE",
"483 410 OFFCURVE",
"483 465 CURVE SMOOTH",
"483 564 OFFCURVE",
"402 635 OFFCURVE",
"287 635 CURVE SMOOTH",
"171 635 OFFCURVE",
"88 565 OFFCURVE",
"88 466 CURVE SMOOTH",
"88 386 OFFCURVE",
"141 340 OFFCURVE",
"184 327 CURVE",
"139 312 OFFCURVE",
"75 264 OFFCURVE",
"75 169 CURVE SMOOTH"
);
},
{
closed = 1;
nodes = (
"170 239 OFFCURVE",
"213 285 OFFCURVE",
"286 285 CURVE SMOOTH",
"360 285 OFFCURVE",
"399 239 OFFCURVE",
"399 175 CURVE SMOOTH",
"399 112 OFFCURVE",
"357 68 OFFCURVE",
"285 68 CURVE SMOOTH",
"213 68 OFFCURVE",
"170 112 OFFCURVE",
"170 175 CURVE SMOOTH"
);
},
{
closed = 1;
nodes = (
"183 516 OFFCURVE",
"221 556 OFFCURVE",
"287 556 CURVE SMOOTH",
"353 556 OFFCURVE",
"388 516 OFFCURVE",
"388 459 CURVE SMOOTH",
"388 404 OFFCURVE",
"351 364 OFFCURVE",
"286 364 CURVE SMOOTH",
"221 364 OFFCURVE",
"183 404 OFFCURVE",
"183 459 CURVE SMOOTH"
);
}
);
};
layerId = "55C6F8EE-B60C-49C4-8D15-2255C9205224";
paths = (
{
closed = 1;
nodes = (
"75 65 OFFCURVE",
"162 -10 OFFCURVE",
"285 -10 CURVE SMOOTH",
"407 -10 OFFCURVE",
"494 60 OFFCURVE",
"494 168 CURVE SMOOTH",
"494 224 OFFCURVE",
"473 259 OFFCURVE",
"445 281 CURVE",
"769 281 LINE",
"769 357 LINE",
"426 357 LINE",
"457 376 OFFCURVE",
"483 410 OFFCURVE",
"483 465 CURVE SMOOTH",
"483 564 OFFCURVE",
"402 635 OFFCURVE",
"287 635 CURVE SMOOTH",
"171 635 OFFCURVE",
"88 565 OFFCURVE",
"88 466 CURVE SMOOTH",
"88 386 OFFCURVE",
"141 340 OFFCURVE",
"184 327 CURVE",
"139 312 OFFCURVE",
"75 264 OFFCURVE",
"75 169 CURVE SMOOTH"
);
},
{
closed = 1;
nodes = (
"170 239 OFFCURVE",
"213 285 OFFCURVE",
"286 285 CURVE SMOOTH",
"360 285 OFFCURVE",
"399 239 OFFCURVE",
"399 175 CURVE SMOOTH",
"399 112 OFFCURVE",
"357 68 OFFCURVE",
"285 68 CURVE SMOOTH",
"213 68 OFFCURVE",
"170 112 OFFCURVE",
"170 175 CURVE SMOOTH"
);
},
{
closed = 1;
nodes = (
"183 516 OFFCURVE",
"221 556 OFFCURVE",
"287 556 CURVE SMOOTH",
"353 556 OFFCURVE",
"388 516 OFFCURVE",
"388 459 CURVE SMOOTH",
"388 404 OFFCURVE",
"351 364 OFFCURVE",
"286 364 CURVE SMOOTH",
"221 364 OFFCURVE",
"183 404 OFFCURVE",
"183 459 CURVE SMOOTH"
);
}
);
width = 779;
}
);
rightMetricsKey = Ka.MGondi;
unicode = 11D0D;
category = Letter;
},
{
glyphname = Ga.MGondi;
lastChange = "2019-11-22 14:57:08 +0000";
layers = (
{
anchors = (
{
name = bottom1;
position = "{138, -78}";
},
{
name = top1;
position = "{138, 698}";
}
);
background = {
anchors = (
{
name = bottom1;
position = "{138, -78}";
},
{
name = top1;
position = "{138, 698}";
}
);
paths = (
{
closed = 1;
nodes = (
"185 0 LINE",
"185 281 LINE",
"479 281 LINE",
"479 357 LINE",
"185 357 LINE",
"185 630 LINE",
"90 630 LINE",
"90 0 LINE"
);
}
);
};
layerId = "55C6F8EE-B60C-49C4-8D15-2255C9205224";
paths = (
{
closed = 1;
nodes = (
"185 0 LINE",
"185 281 LINE",
"479 281 LINE",
"479 357 LINE",
"185 357 LINE",
"185 630 LINE",
"90 630 LINE",
"90 0 LINE"
);
}
);
width = 489;
}
);
rightKerningGroup = Pa.MGondi;
rightMetricsKey = Ka.MGondi;
unicode = 11D0E;
category = Letter;
},
{
glyphname = Gha.MGondi;
lastChange = "2019-10-22 12:17:12 +0000";
layers = (
{
anchors = (
{
name = bottom1;
position = "{315, -78}";
},
{
name = top1;
position = "{315, 698}";
}
);
background = {
anchors = (
{
name = bottom1;
position = "{315, -78}";
},
{
name = top1;
position = "{315, 698}";
}
);
paths = (
{
closed = 1;
nodes = (
"75 100 OFFCURVE",
"168 -10 OFFCURVE",
"341 -10 CURVE SMOOTH",
"411 -10 OFFCURVE",
"462 6 OFFCURVE",
"510 39 CURVE",
"474 107 LINE",
"433 84 OFFCURVE",
"394 69 OFFCURVE",
"341 69 CURVE SMOOTH",
"242 69 OFFCURVE",
"179 137 OFFCURVE",
"171 281 CURVE",
"769 281 LINE",
"769 357 LINE",
"172 357 LINE",
"184 482 OFFCURVE",
"247 556 OFFCURVE",
"341 556 CURVE SMOOTH",
"391 556 OFFCURVE",
"432 536 OFFCURVE",
"469 507 CURVE",
"505 583 LINE",
"457 618 OFFCURVE",
"406 635 OFFCURVE",
"341 635 CURVE SMOOTH",
"169 635 OFFCURVE",
"75 501 OFFCURVE",
"75 313 CURVE SMOOTH"
);
}
);
};
layerId = "55C6F8EE-B60C-49C4-8D15-2255C9205224";
paths = (
{
closed = 1;
nodes = (
"75 100 OFFCURVE",
"168 -10 OFFCURVE",
"341 -10 CURVE SMOOTH",
"411 -10 OFFCURVE",
"462 6 OFFCURVE",
"510 39 CURVE",
"474 107 LINE",
"433 84 OFFCURVE",
"394 69 OFFCURVE",
"341 69 CURVE SMOOTH",
"242 69 OFFCURVE",
"179 137 OFFCURVE",
"171 281 CURVE",
"769 281 LINE",
"769 357 LINE",
"172 357 LINE",
"184 482 OFFCURVE",
"247 556 OFFCURVE",
"341 556 CURVE SMOOTH",
"391 556 OFFCURVE",
"432 536 OFFCURVE",
"469 507 CURVE",
"505 583 LINE",
"457 618 OFFCURVE",
"406 635 OFFCURVE",
"341 635 CURVE SMOOTH",
"169 635 OFFCURVE",
"75 501 OFFCURVE",
"75 313 CURVE SMOOTH"
);
}
);
width = 779;
}
);
leftKerningGroup = Ka.MGondi;
leftMetricsKey = Ka.MGondi;
rightMetricsKey = Ka.MGondi;
unicode = 11D0F;
category = Letter;
},
{
glyphname = Nga.MGondi;
lastChange = "2019-10-22 12:17:12 +0000";
layers = (
{
anchors = (
{
name = bottom1;
position = "{304, -78}";
},
{
name = top1;
position = "{304, 698}";
}
);
background = {
anchors = (
{
name = bottom1;
position = "{304, -78}";
},
{
name = top1;
position = "{304, 698}";
}
);
paths = (
{
closed = 1;
nodes = (
"114 32 OFFCURVE",
"192 -10 OFFCURVE",
"305 -10 CURVE SMOOTH",
"452 -10 OFFCURVE",
"536 61 OFFCURVE",
"536 174 CURVE SMOOTH",
"536 217 OFFCURVE",
"519 254 OFFCURVE",
"485 281 CURVE",
"887 281 LINE",
"887 357 LINE",
"346 357 LINE",
"296 371 LINE SMOOTH",
"218 393 OFFCURVE",
"190 420 OFFCURVE",
"190 469 CURVE SMOOTH",
"190 524 OFFCURVE",
"235 556 OFFCURVE",
"305 556 CURVE SMOOTH",
"366 556 OFFCURVE",
"414 528 OFFCURVE",
"453 495 CURVE",
"500 558 LINE",
"463 597 OFFCURVE",
"389 635 OFFCURVE",
"305 635 CURVE SMOOTH",
"183 635 OFFCURVE",
"99 573 OFFCURVE",
"99 467 CURVE SMOOTH",
"99 371 OFFCURVE",
"171 325 OFFCURVE",
"268 298 CURVE SMOOTH",
"335 279 LINE SMOOTH",
"428 253 OFFCURVE",
"446 214 OFFCURVE",
"446 171 CURVE SMOOTH",
"446 106 OFFCURVE",
"397 68 OFFCURVE",
"305 68 CURVE SMOOTH",
"229 68 OFFCURVE",
"176 96 OFFCURVE",
"125 140 CURVE",
"70 75 LINE"
);
},
{
closed = 1;
nodes = (
"557 432 OFFCURVE",
"584 412 OFFCURVE",
"618 412 CURVE SMOOTH",
"652 412 OFFCURVE",
"681 432 OFFCURVE",
"681 480 CURVE SMOOTH",
"681 529 OFFCURVE",
"652 547 OFFCURVE",
"618 547 CURVE SMOOTH",
"584 547 OFFCURVE",
"557 529 OFFCURVE",
"557 480 CURVE SMOOTH"
);
}
);
};
layerId = "55C6F8EE-B60C-49C4-8D15-2255C9205224";
paths = (
{
closed = 1;
nodes = (
"114 32 OFFCURVE",
"192 -10 OFFCURVE",
"305 -10 CURVE SMOOTH",
"452 -10 OFFCURVE",
"536 61 OFFCURVE",
"536 174 CURVE SMOOTH",
"536 217 OFFCURVE",
"519 254 OFFCURVE",
"485 281 CURVE",
"887 281 LINE",
"887 357 LINE",
"346 357 LINE",
"296 371 LINE SMOOTH",
"218 393 OFFCURVE",
"190 420 OFFCURVE",
"190 469 CURVE SMOOTH",
"190 524 OFFCURVE",
"235 556 OFFCURVE",
"305 556 CURVE SMOOTH",
"366 556 OFFCURVE",
"414 528 OFFCURVE",
"453 495 CURVE",
"500 558 LINE",
"463 597 OFFCURVE",
"389 635 OFFCURVE",
"305 635 CURVE SMOOTH",
"183 635 OFFCURVE",
"99 573 OFFCURVE",
"99 467 CURVE SMOOTH",
"99 371 OFFCURVE",
"171 325 OFFCURVE",
"268 298 CURVE SMOOTH",
"335 279 LINE SMOOTH",
"428 253 OFFCURVE",
"446 214 OFFCURVE",
"446 171 CURVE SMOOTH",
"446 106 OFFCURVE",
"397 68 OFFCURVE",
"305 68 CURVE SMOOTH",
"229 68 OFFCURVE",
"176 96 OFFCURVE",
"125 140 CURVE",
"70 75 LINE"
);
},
{
closed = 1;
nodes = (
"557 432 OFFCURVE",
"584 412 OFFCURVE",
"618 412 CURVE SMOOTH",
"652 412 OFFCURVE",
"681 432 OFFCURVE",
"681 480 CURVE SMOOTH",
"681 529 OFFCURVE",
"652 547 OFFCURVE",
"618 547 CURVE SMOOTH",
"584 547 OFFCURVE",
"557 529 OFFCURVE",
"557 480 CURVE SMOOTH"
);
}
);
width = 897;
}
);
rightMetricsKey = Ka.MGondi;
unicode = 11D10;
category = Letter;
},
{
glyphname = Ca.MGondi;
lastChange = "2019-10-22 12:17:12 +0000";
layers = (
{
anchors = (
{
name = bottom1;
position = "{265, -78}";
},
{
name = top1;
position = "{265, 698}";
}
);
background = {
anchors = (
{
name = bottom1;
position = "{265, -78}";
},
{
name = top1;
position = "{265, 698}";
}
);
paths = (
{
closed = 1;
nodes = (
"101 507 LINE",
"142 536 OFFCURVE",
"187 556 OFFCURVE",
"243 556 CURVE SMOOTH",
"359 556 OFFCURVE",
"430 464 OFFCURVE",
"430 312 CURVE SMOOTH",
"430 163 OFFCURVE",
"366 69 OFFCURVE",
"243 69 CURVE SMOOTH",
"186 69 OFFCURVE",
"143 89 OFFCURVE",
"102 118 CURVE",
"66 42 LINE",
"114 7 OFFCURVE",
"173 -10 OFFCURVE",
"243 -10 CURVE SMOOTH",
"422 -10 OFFCURVE",
"514 102 OFFCURVE",
"524 281 CURVE",
"808 281 LINE",
"808 357 LINE",
"523 357 LINE",
"509 523 OFFCURVE",
"411 635 OFFCURVE",
"243 635 CURVE SMOOTH",
"172 635 OFFCURVE",
"113 618 OFFCURVE",
"65 583 CURVE"
);
}
);
};
layerId = "55C6F8EE-B60C-49C4-8D15-2255C9205224";
paths = (
{
closed = 1;
nodes = (
"101 507 LINE",
"142 536 OFFCURVE",
"187 556 OFFCURVE",
"243 556 CURVE SMOOTH",
"359 556 OFFCURVE",
"430 464 OFFCURVE",
"430 312 CURVE SMOOTH",
"430 163 OFFCURVE",
"366 69 OFFCURVE",
"243 69 CURVE SMOOTH",
"186 69 OFFCURVE",
"143 89 OFFCURVE",
"102 118 CURVE",
"66 42 LINE",
"114 7 OFFCURVE",
"173 -10 OFFCURVE",
"243 -10 CURVE SMOOTH",
"422 -10 OFFCURVE",
"514 102 OFFCURVE",
"524 281 CURVE",
"808 281 LINE",
"808 357 LINE",
"523 357 LINE",
"509 523 OFFCURVE",
"411 635 OFFCURVE",
"243 635 CURVE SMOOTH",
"172 635 OFFCURVE",
"113 618 OFFCURVE",
"65 583 CURVE"
);
}
);
width = 818;
}
);
leftKerningGroup = Ca.MGondi;
rightKerningGroup = Ka.MGondi;
rightMetricsKey = Ka.MGondi;
unicode = 11D11;
category = Letter;
},
{
glyphname = Cha.MGondi;
lastChange = "2019-10-22 12:17:12 +0000";
layers = (
{
anchors = (
{
name = bottom1;
position = "{265, -78}";
},
{
name = top1;
position = "{265, 698}";
}
);
background = {
anchors = (
{
name = bottom1;
position = "{265, -78}";
},
{
name = top1;
position = "{265, 698}";
}
);
components = (
{
name = Ca.MGondi;
}
);
paths = (
{
closed = 1;
nodes = (
"498 281 LINE",
"498 357 LINE",
"177 357 LINE",
"177 281 LINE"
);
}
);
};
components = (
{
name = Ca.MGondi;
}
);
layerId = "55C6F8EE-B60C-49C4-8D15-2255C9205224";
paths = (
{
closed = 1;
nodes = (
"498 281 LINE",
"498 357 LINE",
"177 357 LINE",
"177 281 LINE"
);
}
);
width = 818;
}
);
rightKerningGroup = Ka.MGondi;
rightMetricsKey = Ka.MGondi;
unicode = 11D12;
category = Letter;
},
{
glyphname = Ja.MGondi;
lastChange = "2019-11-22 14:57:53 +0000";
layers = (
{
anchors = (
{
name = bottom1;
position = "{337, -78}";
},
{
name = top1;
position = "{337, 698}";
}
);
background = {
anchors = (
{
name = bottom1;
position = "{337, -78}";
},
{
name = top1;
position = "{337, 698}";
}
);
paths = (
{
closed = 1;
nodes = (
"75 125 OFFCURVE",
"172 -10 OFFCURVE",
"336 -10 CURVE SMOOTH",
"496 -10 OFFCURVE",
"593 109 OFFCURVE",
"603 281 CURVE",
"887 281 LINE",
"887 357 LINE",
"602 357 LINE",
"588 523 OFFCURVE",
"493 635 OFFCURVE",
"336 635 CURVE SMOOTH",
"172 635 OFFCURVE",
"75 501 OFFCURVE",
"75 314 CURVE SMOOTH"
);
},
{
closed = 1;
nodes = (
"170 436 OFFCURVE",
"209 522 OFFCURVE",
"285 548 CURVE",
"281 528 OFFCURVE",
"278 508 OFFCURVE",
"279 489 CURVE SMOOTH",
"283 335 OFFCURVE",
"383 282 OFFCURVE",
"503 282 CURVE SMOOTH",
"508 282 LINE",
"501 152 OFFCURVE",
"444 68 OFFCURVE",
"336 68 CURVE SMOOTH",
"227 68 OFFCURVE",
"170 165 OFFCURVE",
"170 313 CURVE SMOOTH"
);
},
{
closed = 1;
nodes = (
"369 518 OFFCURVE",
"372 537 OFFCURVE",
"376 552 CURVE",
"455 534 OFFCURVE",
"498 463 OFFCURVE",
"507 357 CURVE",
"492 357 LINE SMOOTH",
"419 357 OFFCURVE",
"369 406 OFFCURVE",
"369 499 CURVE SMOOTH"
);
}
);
};
layerId = "55C6F8EE-B60C-49C4-8D15-2255C9205224";
paths = (
{
closed = 1;
nodes = (
"75 125 OFFCURVE",
"172 -10 OFFCURVE",
"336 -10 CURVE SMOOTH",
"496 -10 OFFCURVE",
"593 109 OFFCURVE",
"603 281 CURVE",
"887 281 LINE",
"887 357 LINE",
"602 357 LINE",
"588 523 OFFCURVE",
"493 635 OFFCURVE",
"336 635 CURVE SMOOTH",
"172 635 OFFCURVE",
"75 501 OFFCURVE",
"75 314 CURVE SMOOTH"
);
},
{
closed = 1;
nodes = (
"170 436 OFFCURVE",
"209 522 OFFCURVE",
"285 548 CURVE",
"281 528 OFFCURVE",
"278 508 OFFCURVE",
"279 489 CURVE SMOOTH",
"283 335 OFFCURVE",
"383 282 OFFCURVE",
"503 282 CURVE SMOOTH",
"508 282 LINE",
"501 152 OFFCURVE",
"444 68 OFFCURVE",
"336 68 CURVE SMOOTH",
"227 68 OFFCURVE",
"170 165 OFFCURVE",
"170 313 CURVE SMOOTH"
);
},
{
closed = 1;
nodes = (
"369 518 OFFCURVE",
"372 537 OFFCURVE",
"376 552 CURVE",
"455 534 OFFCURVE",
"498 463 OFFCURVE",
"507 357 CURVE",
"492 357 LINE SMOOTH",
"419 357 OFFCURVE",
"369 406 OFFCURVE",
"369 499 CURVE SMOOTH"
);
}
);
width = 897;
}
);
leftKerningGroup = Ka.MGondi;
leftMetricsKey = Ka.MGondi;
rightKerningGroup = Ka.MGondi;
rightMetricsKey = Ka.MGondi;
unicode = 11D13;
category = Letter;
},
{
glyphname = Jha.MGondi;
lastChange = "2019-10-22 12:17:12 +0000";
layers = (
{
anchors = (
{
name = bottom1;
position = "{378, -78}";
},
{
name = top1;
position = "{378, 698}";
}
);
background = {
anchors = (
{
name = bottom1;
position = "{378, -78}";
},
{
name = top1;
position = "{378, 698}";
}
);
paths = (
{
closed = 1;
nodes = (
"182 -1 LINE",
"180 451 LINE",
"180 524 OFFCURVE",
"208 557 OFFCURVE",
"256 557 CURVE SMOOTH",
"301 557 OFFCURVE",
"327 522 OFFCURVE",
"333 441 CURVE SMOOTH",
"338 358 LINE",
"415 358 LINE",
"421 441 LINE SMOOTH",
"428 518 OFFCURVE",
"454 557 OFFCURVE",
"501 557 CURVE SMOOTH",
"548 557 OFFCURVE",
"574 524 OFFCURVE",
"574 451 CURVE SMOOTH",
"574 -1 LINE",
"669 -1 LINE",
"669 281 LINE",
"963 281 LINE",
"963 357 LINE",
"669 357 LINE",
"669 451 LINE SMOOTH",
"670 571 OFFCURVE",
"612 635 OFFCURVE",
"518 635 CURVE SMOOTH",
"449 635 OFFCURVE",
"400 601 OFFCURVE",
"377 534 CURVE",
"359 601 OFFCURVE",
"309 635 OFFCURVE",
"241 635 CURVE SMOOTH",
"146 635 OFFCURVE",
"85 577 OFFCURVE",
"85 451 CURVE SMOOTH",
"85 -1 LINE"
);
}
);
};
layerId = "55C6F8EE-B60C-49C4-8D15-2255C9205224";
paths = (
{
closed = 1;
nodes = (
"182 -1 LINE",
"180 451 LINE",
"180 524 OFFCURVE",
"208 557 OFFCURVE",
"256 557 CURVE SMOOTH",
"301 557 OFFCURVE",
"327 522 OFFCURVE",
"333 441 CURVE SMOOTH",
"338 358 LINE",
"415 358 LINE",
"421 441 LINE SMOOTH",
"428 518 OFFCURVE",
"454 557 OFFCURVE",
"501 557 CURVE SMOOTH",
"548 557 OFFCURVE",
"574 524 OFFCURVE",
"574 451 CURVE SMOOTH",
"574 -1 LINE",
"669 -1 LINE",
"669 281 LINE",
"963 281 LINE",
"963 357 LINE",
"669 357 LINE",
"669 451 LINE SMOOTH",
"670 571 OFFCURVE",
"612 635 OFFCURVE",
"518 635 CURVE SMOOTH",
"449 635 OFFCURVE",
"400 601 OFFCURVE",
"377 534 CURVE",
"359 601 OFFCURVE",
"309 635 OFFCURVE",
"241 635 CURVE SMOOTH",
"146 635 OFFCURVE",
"85 577 OFFCURVE",
"85 451 CURVE SMOOTH",
"85 -1 LINE"
);
}
);
width = 973;
}
);
rightKerningGroup = La.MGondi;
rightMetricsKey = Ka.MGondi;
unicode = 11D14;
category = Letter;
},
{
glyphname = Nya.MGondi;
lastChange = "2019-10-22 12:17:12 +0000";
layers = (
{
anchors = (
{
name = bottom1;
position = "{202, -78}";
},
{
name = top1;
position = "{297, 738}";
}
);
background = {
anchors = (
{
name = bottom1;
position = "{202, -78}";
},
{
name = top1;
position = "{297, 738}";
}
);
paths = (
{
closed = 1;
nodes = (
"154 444 LINE",
"154 0 LINE",
"249 0 LINE",
"249 281 LINE",
"663 281 LINE",
"663 357 LINE",
"249 357 LINE",
"249 444 LINE",
"277 444 LINE SMOOTH",
"374 444 OFFCURVE",
"430 493 OFFCURVE",
"430 570 CURVE SMOOTH",
"430 639 OFFCURVE",
"382 697 OFFCURVE",
"292 697 CURVE SMOOTH",
"207 697 OFFCURVE",
"154 644 OFFCURVE",
"154 573 CURVE SMOOTH",
"154 518 LINE",
"30 518 LINE",
"30 444 LINE"
);
},
{
closed = 1;
nodes = (
"249 573 LINE SMOOTH",
"249 606 OFFCURVE",
"268 623 OFFCURVE",
"295 623 CURVE SMOOTH",
"325 623 OFFCURVE",
"344 603 OFFCURVE",
"344 572 CURVE SMOOTH",
"344 544 OFFCURVE",
"326 518 OFFCURVE",
"279 518 CURVE SMOOTH",
"249 518 LINE"
);
}
);
};
layerId = "55C6F8EE-B60C-49C4-8D15-2255C9205224";
paths = (
{
closed = 1;
nodes = (
"154 444 LINE",
"154 0 LINE",
"249 0 LINE",
"249 281 LINE",
"663 281 LINE",
"663 357 LINE",
"249 357 LINE",
"249 444 LINE",
"277 444 LINE SMOOTH",
"374 444 OFFCURVE",
"430 493 OFFCURVE",
"430 570 CURVE SMOOTH",
"430 639 OFFCURVE",
"382 697 OFFCURVE",
"292 697 CURVE SMOOTH",
"207 697 OFFCURVE",
"154 644 OFFCURVE",
"154 573 CURVE SMOOTH",
"154 518 LINE",
"30 518 LINE",
"30 444 LINE"
);
},
{
closed = 1;
nodes = (
"249 573 LINE SMOOTH",
"249 606 OFFCURVE",
"268 623 OFFCURVE",
"295 623 CURVE SMOOTH",
"325 623 OFFCURVE",
"344 603 OFFCURVE",
"344 572 CURVE SMOOTH",
"344 544 OFFCURVE",
"326 518 OFFCURVE",
"279 518 CURVE SMOOTH",
"249 518 LINE"
);
}
);
width = 673;
}
);
leftKerningGroup = Nya.MGondi;
rightMetricsKey = Ka.MGondi;
unicode = 11D15;
category = Letter;
},
{
glyphname = Tta.MGondi;
lastChange = "2019-10-22 12:17:12 +0000";
layers = (
{
anchors = (
{
name = bottom1;
position = "{317, -78}";
},
{
name = top1;
position = "{317, 698}";
}
);
background = {
anchors = (
{
name = bottom1;
position = "{317, -78}";
},
{
name = top1;
position = "{317, 698}";
}
);
paths = (
{
closed = 1;
nodes = (
"90 82 OFFCURVE",
"168 -5 OFFCURVE",
"317 -5 CURVE SMOOTH",
"463 -5 OFFCURVE",
"544 83 OFFCURVE",
"544 226 CURVE SMOOTH",
"544 281 LINE",
"808 281 LINE",
"808 357 LINE",
"449 357 LINE",
"449 227 LINE SMOOTH",
"449 120 OFFCURVE",
"398 73 OFFCURVE",
"317 73 CURVE SMOOTH",
"236 73 OFFCURVE",
"185 120 OFFCURVE",
"185 227 CURVE SMOOTH",
"185 630 LINE",
"90 630 LINE",
"90 226 LINE SMOOTH"
);
}
);
};
layerId = "55C6F8EE-B60C-49C4-8D15-2255C9205224";
paths = (
{
closed = 1;
nodes = (
"90 82 OFFCURVE",
"168 -5 OFFCURVE",
"317 -5 CURVE SMOOTH",
"463 -5 OFFCURVE",
"544 83 OFFCURVE",
"544 226 CURVE SMOOTH",
"544 281 LINE",
"808 281 LINE",
"808 357 LINE",
"449 357 LINE",
"449 227 LINE SMOOTH",
"449 120 OFFCURVE",
"398 73 OFFCURVE",
"317 73 CURVE SMOOTH",
"236 73 OFFCURVE",
"185 120 OFFCURVE",
"185 227 CURVE SMOOTH",
"185 630 LINE",
"90 630 LINE",
"90 226 LINE SMOOTH"
);
}
);
width = 818;
}
);
rightMetricsKey = Ka.MGondi;
unicode = 11D16;
category = Letter;
},
{
glyphname = Ttha.MGondi;
lastChange = "2019-10-22 12:18:20 +0000";
layers = (
{
anchors = (
{
name = bottom1;
position = "{246, -78}";
},
{
name = top1;
position = "{246, 698}";
}
);
background = {
anchors = (
{
name = bottom1;
position = "{246, -78}";
},
{
name = top1;
position = "{246, 698}";
}
);
paths = (
{
closed = 1;
nodes = (
"198 281 LINE",
"198 0 LINE",
"293 0 LINE",
"293 281 LINE",
"587 281 LINE",
"587 357 LINE",
"293 357 LINE",
"293 630 LINE",
"198 630 LINE",
"198 357 LINE",
"60 357 LINE",
"60 281 LINE"
);
}
);
};
layerId = "55C6F8EE-B60C-49C4-8D15-2255C9205224";
paths = (
{
closed = 1;
nodes = (
"198 281 LINE",
"198 0 LINE",
"293 0 LINE",
"293 281 LINE",
"587 281 LINE",
"587 357 LINE",
"293 357 LINE",
"293 630 LINE",
"198 630 LINE",
"198 357 LINE",
"60 357 LINE",
"60 281 LINE"
);
}
);
width = 597;
}
);
rightKerningGroup = Pa.MGondi;
rightMetricsKey = Ka.MGondi;
unicode = 11D17;
category = Letter;
},
{
glyphname = Dda.MGondi;
lastChange = "2019-11-22 14:58:08 +0000";
layers = (
{
anchors = (
{
name = bottom1;
position = "{306, -78}";
},
{
name = top1;
position = "{306, 698}";
}
);
background = {
anchors = (
{
name = bottom1;
position = "{306, -78}";
},
{
name = top1;
position = "{306, 698}";
}
);
paths = (
{
closed = 1;
nodes = (
"114 32 OFFCURVE",
"192 -10 OFFCURVE",
"305 -10 CURVE SMOOTH",
"452 -10 OFFCURVE",
"536 62 OFFCURVE",
"536 176 CURVE SMOOTH",
"536 223 OFFCURVE",
"518 257 OFFCURVE",
"489 281 CURVE",
"802 281 LINE",
"802 357 LINE",
"330 357 LINE",
"296 365 LINE SMOOTH",
"216 385 OFFCURVE",
"190 415 OFFCURVE",
"190 464 CURVE SMOOTH",
"190 522 OFFCURVE",
"235 556 OFFCURVE",
"305 556 CURVE SMOOTH",
"366 556 OFFCURVE",
"414 528 OFFCURVE",
"453 495 CURVE",
"500 558 LINE",
"463 597 OFFCURVE",
"389 635 OFFCURVE",
"305 635 CURVE SMOOTH",
"183 635 OFFCURVE",
"99 571 OFFCURVE",
"99 462 CURVE SMOOTH",
"99 367 OFFCURVE",
"170 320 OFFCURVE",
"255 297 CURVE SMOOTH",
"301 285 OFFCURVE",
"330 278 OFFCURVE",
"361 269 CURVE SMOOTH",
"429 247 OFFCURVE",
"446 214 OFFCURVE",
"446 173 CURVE SMOOTH",
"446 107 OFFCURVE",
"397 68 OFFCURVE",
"305 68 CURVE SMOOTH",
"229 68 OFFCURVE",
"176 96 OFFCURVE",
"125 140 CURVE",
"70 75 LINE"
);
}
);
};
layerId = "55C6F8EE-B60C-49C4-8D15-2255C9205224";
paths = (
{
closed = 1;
nodes = (
"114 32 OFFCURVE",
"192 -10 OFFCURVE",
"305 -10 CURVE SMOOTH",
"452 -10 OFFCURVE",
"536 62 OFFCURVE",
"536 176 CURVE SMOOTH",
"536 223 OFFCURVE",
"518 257 OFFCURVE",
"489 281 CURVE",
"802 281 LINE",
"802 357 LINE",
"330 357 LINE",
"296 365 LINE SMOOTH",
"216 385 OFFCURVE",
"190 415 OFFCURVE",
"190 464 CURVE SMOOTH",
"190 522 OFFCURVE",
"235 556 OFFCURVE",
"305 556 CURVE SMOOTH",
"366 556 OFFCURVE",
"414 528 OFFCURVE",
"453 495 CURVE",
"500 558 LINE",
"463 597 OFFCURVE",
"389 635 OFFCURVE",
"305 635 CURVE SMOOTH",
"183 635 OFFCURVE",
"99 571 OFFCURVE",
"99 462 CURVE SMOOTH",
"99 367 OFFCURVE",
"170 320 OFFCURVE",
"255 297 CURVE SMOOTH",
"301 285 OFFCURVE",
"330 278 OFFCURVE",
"361 269 CURVE SMOOTH",
"429 247 OFFCURVE",
"446 214 OFFCURVE",
"446 173 CURVE SMOOTH",
"446 107 OFFCURVE",
"397 68 OFFCURVE",
"305 68 CURVE SMOOTH",
"229 68 OFFCURVE",
"176 96 OFFCURVE",
"125 140 CURVE",
"70 75 LINE"
);
}
);
width = 812;
}
);
leftKerningGroup = Nga.MGondi;
rightMetricsKey = Ka.MGondi;
unicode = 11D18;
category = Letter;
},
{
glyphname = Ddha.MGondi;
lastChange = "2019-11-22 14:58:30 +0000";
layers = (
{
anchors = (
{
name = bottom1;
position = "{333, -78}";
},
{
name = top1;
position = "{333, 698}";
}
);
background = {
anchors = (
{
name = bottom1;
position = "{333, -78}";
},
{
name = top1;
position = "{333, 698}";
}
);
paths = (
{
closed = 1;
nodes = (
"185 0 LINE",
"185 393 LINE SMOOTH",
"185 507 OFFCURVE",
"248 557 OFFCURVE",
"332 557 CURVE SMOOTH",
"422 557 OFFCURVE",
"479 507 OFFCURVE",
"479 393 CURVE SMOOTH",
"479 0 LINE",
"574 0 LINE",
"574 281 LINE",
"868 281 LINE",
"868 357 LINE",
"574 357 LINE",
"574 394 LINE SMOOTH",
"574 544 OFFCURVE",
"487 635 OFFCURVE",
"332 635 CURVE SMOOTH",
"173 635 OFFCURVE",
"90 544 OFFCURVE",
"90 394 CURVE SMOOTH",
"90 0 LINE"
);
},
{
closed = 1;
nodes = (
"270 255 OFFCURVE",
"297 235 OFFCURVE",
"331 235 CURVE SMOOTH",
"365 235 OFFCURVE",
"394 255 OFFCURVE",
"394 303 CURVE SMOOTH",
"394 352 OFFCURVE",
"365 370 OFFCURVE",
"331 370 CURVE SMOOTH",
"297 370 OFFCURVE",
"270 352 OFFCURVE",
"270 303 CURVE SMOOTH"
);
}
);
};
layerId = "55C6F8EE-B60C-49C4-8D15-2255C9205224";
paths = (
{
closed = 1;
nodes = (
"185 0 LINE",
"185 393 LINE SMOOTH",
"185 507 OFFCURVE",
"248 557 OFFCURVE",
"332 557 CURVE SMOOTH",
"422 557 OFFCURVE",
"479 507 OFFCURVE",
"479 393 CURVE SMOOTH",
"479 0 LINE",
"574 0 LINE",
"574 281 LINE",
"868 281 LINE",
"868 357 LINE",
"574 357 LINE",
"574 394 LINE SMOOTH",
"574 544 OFFCURVE",
"487 635 OFFCURVE",
"332 635 CURVE SMOOTH",
"173 635 OFFCURVE",
"90 544 OFFCURVE",
"90 394 CURVE SMOOTH",
"90 0 LINE"
);
},
{
closed = 1;
nodes = (
"270 255 OFFCURVE",
"297 235 OFFCURVE",
"331 235 CURVE SMOOTH",
"365 235 OFFCURVE",
"394 255 OFFCURVE",
"394 303 CURVE SMOOTH",
"394 352 OFFCURVE",
"365 370 OFFCURVE",
"331 370 CURVE SMOOTH",
"297 370 OFFCURVE",
"270 352 OFFCURVE",
"270 303 CURVE SMOOTH"
);
}
);
width = 878;
}
);
leftKerningGroup = Tta.MGondi;
leftMetricsKey = VowelA.MGondi;
rightKerningGroup = La.MGondi;
rightMetricsKey = Ka.MGondi;
unicode = 11D19;
category = Letter;
},
{
glyphname = Nna.MGondi;
lastChange = "2019-10-22 12:17:12 +0000";
layers = (
{
anchors = (
{
name = bottom1;
position = "{322, -78}";
},
{
name = top1;
position = "{322, 698}";
}
);
background = {
anchors = (
{
name = bottom1;
position = "{322, -78}";
},
{
name = top1;
position = "{322, 698}";
}
);
paths = (
{
closed = 1;
nodes = (
"90 51 OFFCURVE",
"143 -10 OFFCURVE",
"247 -10 CURVE SMOOTH",
"342 -10 OFFCURVE",
"398 46 OFFCURVE",
"398 139 CURVE SMOOTH",
"398 225 OFFCURVE",
"343 284 OFFCURVE",
"255 284 CURVE SMOOTH",
"228 284 OFFCURVE",
"204 278 OFFCURVE",
"185 269 CURVE",
"185 403 LINE",
"185 510 OFFCURVE",
"238 557 OFFCURVE",
"322 557 CURVE SMOOTH",
"406 557 OFFCURVE",
"459 510 OFFCURVE",
"459 403 CURVE SMOOTH",
"459 281 LINE",
"828 281 LINE",
"828 357 LINE",
"554 357 LINE",
"554 404 LINE SMOOTH",
"554 547 OFFCURVE",
"471 635 OFFCURVE",
"322 635 CURVE SMOOTH",
"170 635 OFFCURVE",
"90 548 OFFCURVE",
"90 404 CURVE SMOOTH",
"90 143 LINE SMOOTH"
);
},
{
closed = 1;
nodes = (
"185 188 LINE",
"204 200 OFFCURVE",
"223 206 OFFCURVE",
"242 206 CURVE SMOOTH",
"278 206 OFFCURVE",
"303 181 OFFCURVE",
"303 137 CURVE SMOOTH",
"303 89 OFFCURVE",
"276 68 OFFCURVE",
"245 68 CURVE SMOOTH",
"208 68 OFFCURVE",
"185 89 OFFCURVE",
"185 135 CURVE SMOOTH"
);
}
);
};
layerId = "55C6F8EE-B60C-49C4-8D15-2255C9205224";
paths = (
{
closed = 1;
nodes = (
"90 51 OFFCURVE",
"143 -10 OFFCURVE",
"247 -10 CURVE SMOOTH",
"342 -10 OFFCURVE",
"398 46 OFFCURVE",
"398 139 CURVE SMOOTH",
"398 225 OFFCURVE",
"343 284 OFFCURVE",
"255 284 CURVE SMOOTH",
"228 284 OFFCURVE",
"204 278 OFFCURVE",
"185 269 CURVE",
"185 403 LINE",
"185 510 OFFCURVE",
"238 557 OFFCURVE",
"322 557 CURVE SMOOTH",
"406 557 OFFCURVE",
"459 510 OFFCURVE",
"459 403 CURVE SMOOTH",
"459 281 LINE",
"828 281 LINE",
"828 357 LINE",
"554 357 LINE",
"554 404 LINE SMOOTH",
"554 547 OFFCURVE",
"471 635 OFFCURVE",
"322 635 CURVE SMOOTH",
"170 635 OFFCURVE",
"90 548 OFFCURVE",
"90 404 CURVE SMOOTH",
"90 143 LINE SMOOTH"
);
},
{
closed = 1;
nodes = (
"185 188 LINE",
"204 200 OFFCURVE",
"223 206 OFFCURVE",
"242 206 CURVE SMOOTH",
"278 206 OFFCURVE",
"303 181 OFFCURVE",
"303 137 CURVE SMOOTH",
"303 89 OFFCURVE",
"276 68 OFFCURVE",
"245 68 CURVE SMOOTH",
"208 68 OFFCURVE",
"185 89 OFFCURVE",
"185 135 CURVE SMOOTH"
);
}
);
width = 838;
}
);
rightMetricsKey = Ka.MGondi;
unicode = 11D1A;
category = Letter;
},
{
glyphname = Ta.MGondi;
lastChange = "2019-10-22 12:17:12 +0000";
layers = (
{
anchors = (
{
name = bottom1;
position = "{323, -78}";
},
{
name = top1;
position = "{323, 698}";
}
);
background = {
anchors = (
{
name = bottom1;
position = "{323, -78}";
},
{
name = top1;
position = "{323, 698}";
}
);
paths = (
{
closed = 1;
nodes = (
"90 77 OFFCURVE",
"166 -10 OFFCURVE",
"322 -10 CURVE SMOOTH",
"479 -10 OFFCURVE",
"554 77 OFFCURVE",
"554 221 CURVE SMOOTH",
"554 281 LINE",
"848 281 LINE",
"848 357 LINE",
"554 357 LINE",
"554 630 LINE",
"459 630 LINE",
"459 222 LINE SMOOTH",
"459 115 OFFCURVE",
"406 68 OFFCURVE",
"322 68 CURVE SMOOTH",
"238 68 OFFCURVE",
"185 115 OFFCURVE",
"185 222 CURVE SMOOTH",
"185 630 LINE",
"90 630 LINE",
"90 221 LINE SMOOTH"
);
}
);
};
layerId = "55C6F8EE-B60C-49C4-8D15-2255C9205224";
paths = (
{
closed = 1;
nodes = (
"90 77 OFFCURVE",
"166 -10 OFFCURVE",
"322 -10 CURVE SMOOTH",
"479 -10 OFFCURVE",
"554 77 OFFCURVE",
"554 221 CURVE SMOOTH",
"554 281 LINE",
"848 281 LINE",
"848 357 LINE",
"554 357 LINE",
"554 630 LINE",
"459 630 LINE",
"459 222 LINE SMOOTH",
"459 115 OFFCURVE",
"406 68 OFFCURVE",
"322 68 CURVE SMOOTH",
"238 68 OFFCURVE",
"185 115 OFFCURVE",
"185 222 CURVE SMOOTH",
"185 630 LINE",
"90 630 LINE",
"90 221 LINE SMOOTH"
);
}
);
width = 858;
}
);
rightKerningGroup = Ta.MGondi;
rightMetricsKey = Ka.MGondi;
unicode = 11D1B;
category = Letter;
},
{
glyphname = Tha.MGondi;
lastChange = "2019-10-22 12:17:12 +0000";
layers = (
{
anchors = (
{
name = bottom1;
position = "{287, -78}";
},
{
name = top1;
position = "{287, 698}";
}
);
background = {
anchors = (
{
name = bottom1;
position = "{287, -78}";
},
{
name = top1;
position = "{287, 698}";
}
);
paths = (
{
closed = 1;
nodes = (
"153 0 LINE",
"286 232 LINE",
"412 0 LINE",
"525 0 LINE",
"347 281 LINE",
"703 281 LINE",
"703 357 LINE",
"356 357 LINE",
"525 630 LINE",
"420 630 LINE",
"282 392 LINE",
"145 630 LINE",
"40 630 LINE",
"237 313 LINE",
"40 0 LINE"
);
}
);
};
layerId = "55C6F8EE-B60C-49C4-8D15-2255C9205224";
paths = (
{
closed = 1;
nodes = (
"153 0 LINE",
"286 232 LINE",
"412 0 LINE",
"525 0 LINE",
"347 281 LINE",
"703 281 LINE",
"703 357 LINE",
"356 357 LINE",
"525 630 LINE",
"420 630 LINE",
"282 392 LINE",
"145 630 LINE",
"40 630 LINE",
"237 313 LINE",
"40 0 LINE"
);
}
);
width = 713;
}
);
rightMetricsKey = Ka.MGondi;
unicode = 11D1C;
category = Letter;
},
{
glyphname = Da.MGondi;
lastChange = "2019-10-22 12:17:12 +0000";
layers = (
{
anchors = (
{
name = bottom1;
position = "{262, -78}";
},
{
name = top1;
position = "{262, 698}";
}
);
background = {
anchors = (
{
name = bottom1;
position = "{262, -78}";
},
{
name = top1;
position = "{262, 698}";
}
);
paths = (
{
closed = 1;
nodes = (
"70 55 OFFCURVE",
"130 -9 OFFCURVE",
"241 -9 CURVE SMOOTH",
"421 -9 OFFCURVE",
"523 120 OFFCURVE",
"535 281 CURVE",
"819 281 LINE",
"819 357 LINE",
"534 357 LINE",
"515 539 OFFCURVE",
"383 635 OFFCURVE",
"242 635 CURVE SMOOTH",
"127 635 OFFCURVE",
"70 569 OFFCURVE",
"70 497 CURVE SMOOTH",
"70 423 OFFCURVE",
"126 371 OFFCURVE",
"213 371 CURVE SMOOTH",
"292 371 OFFCURVE",
"344 414 OFFCURVE",
"344 492 CURVE SMOOTH",
"344 504 OFFCURVE",
"342 518 OFFCURVE",
"338 532 CURVE",
"399 497 OFFCURVE",
"441 421 OFFCURVE",
"441 313 CURVE SMOOTH",
"441 204 OFFCURVE",
"397 130 OFFCURVE",
"336 93 CURVE",
"341 107 OFFCURVE",
"344 121 OFFCURVE",
"344 134 CURVE SMOOTH",
"344 208 OFFCURVE",
"289 255 OFFCURVE",
"213 255 CURVE SMOOTH",
"129 255 OFFCURVE",
"70 206 OFFCURVE",
"70 130 CURVE SMOOTH"
);
},
{
closed = 1;
nodes = (
"165 159 OFFCURVE",
"184 182 OFFCURVE",
"216 182 CURVE SMOOTH",
"248 182 OFFCURVE",
"267 159 OFFCURVE",
"267 128 CURVE SMOOTH",
"267 105 OFFCURVE",
"262 86 OFFCURVE",
"252 69 CURVE",
"236 69 LINE SMOOTH",
"194 69 OFFCURVE",
"165 93 OFFCURVE",
"165 128 CURVE SMOOTH"
);
},
{
closed = 1;
nodes = (
"165 532 OFFCURVE",
"193 557 OFFCURVE",
"233 557 CURVE SMOOTH",
"252 556 LINE",
"262 540 OFFCURVE",
"267 521 OFFCURVE",
"267 498 CURVE SMOOTH",
"267 467 OFFCURVE",
"248 444 OFFCURVE",
"216 444 CURVE SMOOTH",
"184 444 OFFCURVE",
"165 466 OFFCURVE",
"165 496 CURVE SMOOTH"
);
}
);
};
layerId = "55C6F8EE-B60C-49C4-8D15-2255C9205224";
paths = (
{
closed = 1;
nodes = (
"70 55 OFFCURVE",
"130 -9 OFFCURVE",
"241 -9 CURVE SMOOTH",
"421 -9 OFFCURVE",
"523 120 OFFCURVE",
"535 281 CURVE",
"819 281 LINE",
"819 357 LINE",
"534 357 LINE",
"515 539 OFFCURVE",
"383 635 OFFCURVE",
"242 635 CURVE SMOOTH",
"127 635 OFFCURVE",
"70 569 OFFCURVE",
"70 497 CURVE SMOOTH",
"70 423 OFFCURVE",
"126 371 OFFCURVE",
"213 371 CURVE SMOOTH",
"292 371 OFFCURVE",
"344 414 OFFCURVE",
"344 492 CURVE SMOOTH",
"344 504 OFFCURVE",
"342 518 OFFCURVE",
"338 532 CURVE",
"399 497 OFFCURVE",
"441 421 OFFCURVE",
"441 313 CURVE SMOOTH",
"441 204 OFFCURVE",
"397 130 OFFCURVE",
"336 93 CURVE",
"341 107 OFFCURVE",
"344 121 OFFCURVE",
"344 134 CURVE SMOOTH",
"344 208 OFFCURVE",
"289 255 OFFCURVE",
"213 255 CURVE SMOOTH",
"129 255 OFFCURVE",
"70 206 OFFCURVE",
"70 130 CURVE SMOOTH"
);
},
{
closed = 1;
nodes = (
"165 159 OFFCURVE",
"184 182 OFFCURVE",
"216 182 CURVE SMOOTH",
"248 182 OFFCURVE",
"267 159 OFFCURVE",
"267 128 CURVE SMOOTH",
"267 105 OFFCURVE",
"262 86 OFFCURVE",
"252 69 CURVE",
"236 69 LINE SMOOTH",
"194 69 OFFCURVE",
"165 93 OFFCURVE",
"165 128 CURVE SMOOTH"
);
},
{
closed = 1;
nodes = (
"165 532 OFFCURVE",
"193 557 OFFCURVE",
"233 557 CURVE SMOOTH",
"252 556 LINE",
"262 540 OFFCURVE",
"267 521 OFFCURVE",
"267 498 CURVE SMOOTH",
"267 467 OFFCURVE",
"248 444 OFFCURVE",
"216 444 CURVE SMOOTH",
"184 444 OFFCURVE",
"165 466 OFFCURVE",
"165 496 CURVE SMOOTH"
);
}
);
width = 829;
}
);
rightKerningGroup = Ka.MGondi;
rightMetricsKey = Ka.MGondi;
unicode = 11D1D;
category = Letter;
},
{
glyphname = Dha.MGondi;
lastChange = "2019-10-22 12:17:12 +0000";
layers = (
{
anchors = (
{
name = bottom1;
position = "{252, -78}";
},
{
name = top1;
position = "{271, 698}";
}
);
background = {
anchors = (
{
name = bottom1;
position = "{252, -78}";
},
{
name = top1;
position = "{271, 698}";
}
);
paths = (
{
closed = 1;
nodes = (
"60 50 OFFCURVE",
"123 -11 OFFCURVE",
"237 -11 CURVE SMOOTH",
"303 -11 OFFCURVE",
"350 8 OFFCURVE",
"389 33 CURVE",
"472 -106 LINE",
"548 -65 LINE",
"449 81 LINE",
"491 124 OFFCURVE",
"528 191 OFFCURVE",
"535 281 CURVE",
"819 281 LINE",
"819 357 LINE",
"534 357 LINE",
"515 538 OFFCURVE",
"383 635 OFFCURVE",
"242 635 CURVE SMOOTH",
"127 635 OFFCURVE",
"70 569 OFFCURVE",
"70 496 CURVE SMOOTH",
"70 423 OFFCURVE",
"126 371 OFFCURVE",
"213 371 CURVE SMOOTH",
"292 371 OFFCURVE",
"344 414 OFFCURVE",
"344 492 CURVE SMOOTH",
"344 504 OFFCURVE",
"342 517 OFFCURVE",
"339 530 CURVE",
"399 493 OFFCURVE",
"441 421 OFFCURVE",
"441 313 CURVE SMOOTH",
"441 239 OFFCURVE",
"420 186 OFFCURVE",
"396 153 CURVE",
"343 217 OFFCURVE",
"286 254 OFFCURVE",
"213 254 CURVE SMOOTH",
"116 254 OFFCURVE",
"60 200 OFFCURVE",
"60 127 CURVE SMOOTH"
);
},
{
closed = 1;
nodes = (
"155 155 OFFCURVE",
"178 176 OFFCURVE",
"213 176 CURVE SMOOTH",
"258 176 OFFCURVE",
"301 150 OFFCURVE",
"342 99 CURVE",
"315 80 OFFCURVE",
"281 67 OFFCURVE",
"241 67 CURVE SMOOTH",
"180 67 OFFCURVE",
"155 96 OFFCURVE",
"155 127 CURVE SMOOTH"
);
},
{
closed = 1;
nodes = (
"165 532 OFFCURVE",
"193 557 OFFCURVE",
"233 557 CURVE SMOOTH",
"252 556 LINE",
"262 540 OFFCURVE",
"267 521 OFFCURVE",
"267 498 CURVE SMOOTH",
"267 467 OFFCURVE",
"248 444 OFFCURVE",
"216 444 CURVE SMOOTH",
"184 444 OFFCURVE",
"165 466 OFFCURVE",
"165 496 CURVE SMOOTH"
);
}
);
};
layerId = "55C6F8EE-B60C-49C4-8D15-2255C9205224";
paths = (
{
closed = 1;
nodes = (
"60 50 OFFCURVE",
"123 -11 OFFCURVE",
"237 -11 CURVE SMOOTH",
"303 -11 OFFCURVE",
"350 8 OFFCURVE",
"389 33 CURVE",
"472 -106 LINE",
"548 -65 LINE",
"449 81 LINE",
"491 124 OFFCURVE",
"528 191 OFFCURVE",
"535 281 CURVE",
"819 281 LINE",
"819 357 LINE",
"534 357 LINE",
"515 538 OFFCURVE",
"383 635 OFFCURVE",
"242 635 CURVE SMOOTH",
"127 635 OFFCURVE",
"70 569 OFFCURVE",
"70 496 CURVE SMOOTH",
"70 423 OFFCURVE",
"126 371 OFFCURVE",
"213 371 CURVE SMOOTH",
"292 371 OFFCURVE",
"344 414 OFFCURVE",
"344 492 CURVE SMOOTH",
"344 504 OFFCURVE",
"342 517 OFFCURVE",
"339 530 CURVE",
"399 493 OFFCURVE",
"441 421 OFFCURVE",
"441 313 CURVE SMOOTH",
"441 239 OFFCURVE",
"420 186 OFFCURVE",
"396 153 CURVE",
"343 217 OFFCURVE",
"286 254 OFFCURVE",
"213 254 CURVE SMOOTH",
"116 254 OFFCURVE",
"60 200 OFFCURVE",
"60 127 CURVE SMOOTH"
);
},
{
closed = 1;
nodes = (
"155 155 OFFCURVE",
"178 176 OFFCURVE",
"213 176 CURVE SMOOTH",
"258 176 OFFCURVE",
"301 150 OFFCURVE",
"342 99 CURVE",
"315 80 OFFCURVE",
"281 67 OFFCURVE",
"241 67 CURVE SMOOTH",
"180 67 OFFCURVE",
"155 96 OFFCURVE",
"155 127 CURVE SMOOTH"
);
},
{
closed = 1;
nodes = (
"165 532 OFFCURVE",
"193 557 OFFCURVE",
"233 557 CURVE SMOOTH",
"252 556 LINE",
"262 540 OFFCURVE",
"267 521 OFFCURVE",
"267 498 CURVE SMOOTH",
"267 467 OFFCURVE",
"248 444 OFFCURVE",
"216 444 CURVE SMOOTH",
"184 444 OFFCURVE",
"165 466 OFFCURVE",
"165 496 CURVE SMOOTH"
);
}
);
width = 829;
}
);
leftKerningGroup = Da.MGondi;
rightKerningGroup = Ka.MGondi;
rightMetricsKey = Ka.MGondi;
unicode = 11D1E;
category = Letter;
},
{
glyphname = Na.MGondi;
lastChange = "2019-10-22 12:17:12 +0000";
layers = (
{
anchors = (
{
name = bottom1;
position = "{378, -78}";
},
{
name = top1;
position = "{378, 698}";
}
);
background = {
anchors = (
{
name = bottom1;
position = "{378, -78}";
},
{
name = top1;
position = "{378, 698}";
}
);
paths = (
{
closed = 1;
nodes = (
"85 52 OFFCURVE",
"147 -6 OFFCURVE",
"242 -6 CURVE SMOOTH",
"310 -6 OFFCURVE",
"359 28 OFFCURVE",
"377 95 CURVE",
"400 28 OFFCURVE",
"447 -6 OFFCURVE",
"516 -6 CURVE SMOOTH",
"609 -6 OFFCURVE",
"669 58 OFFCURVE",
"669 178 CURVE SMOOTH",
"669 281 LINE",
"963 281 LINE",
"963 357 LINE",
"669 357 LINE",
"669 630 LINE",
"574 630 LINE",
"574 178 LINE SMOOTH",
"574 105 OFFCURVE",
"551 72 OFFCURVE",
"505 72 CURVE SMOOTH",
"457 72 OFFCURVE",
"429 111 OFFCURVE",
"421 188 CURVE SMOOTH",
"415 271 LINE",
"338 271 LINE",
"333 188 LINE SMOOTH",
"326 107 OFFCURVE",
"304 72 OFFCURVE",
"253 72 CURVE SMOOTH",
"205 72 OFFCURVE",
"180 105 OFFCURVE",
"180 178 CURVE SMOOTH",
"182 630 LINE",
"85 630 LINE",
"85 178 LINE SMOOTH"
);
}
);
};
layerId = "55C6F8EE-B60C-49C4-8D15-2255C9205224";
paths = (
{
closed = 1;
nodes = (
"85 52 OFFCURVE",
"147 -6 OFFCURVE",
"242 -6 CURVE SMOOTH",
"310 -6 OFFCURVE",
"359 28 OFFCURVE",
"377 95 CURVE",
"400 28 OFFCURVE",
"447 -6 OFFCURVE",
"516 -6 CURVE SMOOTH",
"609 -6 OFFCURVE",
"669 58 OFFCURVE",
"669 178 CURVE SMOOTH",
"669 281 LINE",
"963 281 LINE",
"963 357 LINE",
"669 357 LINE",
"669 630 LINE",
"574 630 LINE",
"574 178 LINE SMOOTH",
"574 105 OFFCURVE",
"551 72 OFFCURVE",
"505 72 CURVE SMOOTH",
"457 72 OFFCURVE",
"429 111 OFFCURVE",
"421 188 CURVE SMOOTH",
"415 271 LINE",
"338 271 LINE",
"333 188 LINE SMOOTH",
"326 107 OFFCURVE",
"304 72 OFFCURVE",
"253 72 CURVE SMOOTH",
"205 72 OFFCURVE",
"180 105 OFFCURVE",
"180 178 CURVE SMOOTH",
"182 630 LINE",
"85 630 LINE",
"85 178 LINE SMOOTH"
);
}
);
width = 973;
}
);
leftKerningGroup = Jha.MGondi;
rightKerningGroup = Ta.MGondi;
rightMetricsKey = Ka.MGondi;
unicode = 11D1F;
category = Letter;
},
{
glyphname = Pa.MGondi;
lastChange = "2019-10-22 12:17:12 +0000";
layers = (
{
anchors = (
{
name = bottom1;
position = "{257, -78}";
},
{
name = top1;
position = "{257, 698}";
}
);
background = {
anchors = (
{
name = bottom1;
position = "{257, -78}";
},
{
name = top1;
position = "{257, 698}";
}
);
paths = (
{
closed = 1;
nodes = (
"190 0 LINE",
"190 281 LINE",
"329 281 LINE",
"329 0 LINE",
"424 0 LINE",
"424 281 LINE",
"718 281 LINE",
"718 357 LINE",
"424 357 LINE",
"424 630 LINE",
"329 630 LINE",
"329 357 LINE",
"190 357 LINE",
"190 630 LINE",
"95 630 LINE",
"95 0 LINE"
);
}
);
};
layerId = "55C6F8EE-B60C-49C4-8D15-2255C9205224";
paths = (
{
closed = 1;
nodes = (
"190 0 LINE",
"190 281 LINE",
"329 281 LINE",
"329 0 LINE",
"424 0 LINE",
"424 281 LINE",
"718 281 LINE",
"718 357 LINE",
"424 357 LINE",
"424 630 LINE",
"329 630 LINE",
"329 357 LINE",
"190 357 LINE",
"190 630 LINE",
"95 630 LINE",
"95 0 LINE"
);
}
);
width = 728;
}
);
rightMetricsKey = Ka.MGondi;
unicode = 11D20;
category = Letter;
},
{
glyphname = Pha.MGondi;
lastChange = "2019-11-22 14:58:44 +0000";
layers = (
{
anchors = (
{
name = bottom1;
position = "{371, -78}";
},
{
name = top1;
position = "{371, 698}";
}
);
background = {
anchors = (
{
name = bottom1;
position = "{371, -78}";
},
{
name = top1;
position = "{371, 698}";
}
);
paths = (
{
closed = 1;
nodes = (
"190 0 LINE",
"190 281 LINE",
"329 281 LINE",
"329 0 LINE",
"424 0 LINE",
"424 281 LINE",
"563 281 LINE",
"563 0 LINE",
"658 0 LINE",
"658 281 LINE",
"952 281 LINE",
"952 357 LINE",
"658 357 LINE",
"658 630 LINE",
"563 630 LINE",
"563 357 LINE",
"424 357 LINE",
"424 630 LINE",
"329 630 LINE",
"329 357 LINE",
"190 357 LINE",
"190 630 LINE",
"95 630 LINE",
"95 0 LINE"
);
}
);
};
layerId = "55C6F8EE-B60C-49C4-8D15-2255C9205224";
paths = (
{
closed = 1;
nodes = (
"190 0 LINE",
"190 281 LINE",
"329 281 LINE",
"329 0 LINE",
"424 0 LINE",
"424 281 LINE",
"563 281 LINE",
"563 0 LINE",
"658 0 LINE",
"658 281 LINE",
"952 281 LINE",
"952 357 LINE",
"658 357 LINE",
"658 630 LINE",
"563 630 LINE",
"563 357 LINE",
"424 357 LINE",
"424 630 LINE",
"329 630 LINE",
"329 357 LINE",
"190 357 LINE",
"190 630 LINE",
"95 630 LINE",
"95 0 LINE"
);
}
);
width = 962;
}
);
leftMetricsKey = Pa.MGondi;
rightKerningGroup = Pa.MGondi;
rightMetricsKey = Ka.MGondi;
unicode = 11D21;
category = Letter;
},
{
glyphname = Ba.MGondi;
lastChange = "2019-10-22 12:17:12 +0000";
layers = (
{
anchors = (
{
name = bottom1;
position = "{311, -78}";
},
{
name = top1;
position = "{331, 698}";
}
);
background = {
anchors = (
{
name = bottom1;
position = "{311, -78}";
},
{
name = top1;
position = "{331, 698}";
}
);
paths = (
{
closed = 1;
nodes = (
"90 59 OFFCURVE",
"178 -10 OFFCURVE",
"311 -10 CURVE SMOOTH",
"456 -10 OFFCURVE",
"533 68 OFFCURVE",
"533 170 CURVE SMOOTH",
"533 220 OFFCURVE",
"517 258 OFFCURVE",
"490 281 CURVE",
"781 281 LINE",
"781 357 LINE",
"185 357 LINE",
"185 635 LINE",
"90 635 LINE",
"90 175 LINE SMOOTH"
);
},
{
closed = 1;
nodes = (
"185 281 LINE",
"337 281 LINE SMOOTH",
"392 281 OFFCURVE",
"438 248 OFFCURVE",
"438 170 CURVE SMOOTH",
"438 112 OFFCURVE",
"393 68 OFFCURVE",
"313 68 CURVE SMOOTH",
"231 68 OFFCURVE",
"185 112 OFFCURVE",
"185 175 CURVE SMOOTH"
);
}
);
};
layerId = "55C6F8EE-B60C-49C4-8D15-2255C9205224";
paths = (
{
closed = 1;
nodes = (
"90 59 OFFCURVE",
"178 -10 OFFCURVE",
"311 -10 CURVE SMOOTH",
"456 -10 OFFCURVE",
"533 68 OFFCURVE",
"533 170 CURVE SMOOTH",
"533 220 OFFCURVE",
"517 258 OFFCURVE",
"490 281 CURVE",
"781 281 LINE",
"781 357 LINE",
"185 357 LINE",
"185 635 LINE",
"90 635 LINE",
"90 175 LINE SMOOTH"
);
},
{
closed = 1;
nodes = (
"185 281 LINE",
"337 281 LINE SMOOTH",
"392 281 OFFCURVE",
"438 248 OFFCURVE",
"438 170 CURVE SMOOTH",
"438 112 OFFCURVE",
"393 68 OFFCURVE",
"313 68 CURVE SMOOTH",
"231 68 OFFCURVE",
"185 112 OFFCURVE",
"185 175 CURVE SMOOTH"
);
}
);
width = 791;
}
);
rightMetricsKey = Ka.MGondi;
unicode = 11D22;
category = Letter;
},
{
glyphname = Bha.MGondi;
lastChange = "2019-10-22 12:17:12 +0000";
layers = (
{
anchors = (
{
name = bottom1;
position = "{388, -78}";
},
{
name = top1;
position = "{379, 698}";
}
);
background = {
anchors = (
{
name = bottom1;
position = "{388, -78}";
},
{
name = top1;
position = "{379, 698}";
}
);
paths = (
{
closed = 1;
nodes = (
"20 431 OFFCURVE",
"77 383 OFFCURVE",
"149 383 CURVE SMOOTH",
"165 383 OFFCURVE",
"179 385 OFFCURVE",
"191 389 CURVE",
"173 320 OFFCURVE",
"156 249 OFFCURVE",
"156 192 CURVE SMOOTH",
"156 64 OFFCURVE",
"247 -10 OFFCURVE",
"387 -10 CURVE SMOOTH",
"539 -10 OFFCURVE",
"608 74 OFFCURVE",
"608 202 CURVE SMOOTH",
"608 281 LINE",
"882 281 LINE",
"882 357 LINE",
"513 357 LINE",
"513 198 LINE SMOOTH",
"513 108 OFFCURVE",
"464 68 OFFCURVE",
"386 68 CURVE SMOOTH",
"302 68 OFFCURVE",
"251 118 OFFCURVE",
"251 193 CURVE SMOOTH",
"251 240 OFFCURVE",
"260 299 OFFCURVE",
"278 372 CURVE SMOOTH",
"288 414 OFFCURVE",
"300 450 OFFCURVE",
"300 509 CURVE SMOOTH",
"300 574 OFFCURVE",
"251 635 OFFCURVE",
"161 635 CURVE SMOOTH",
"75 635 OFFCURVE",
"20 578 OFFCURVE",
"20 506 CURVE SMOOTH"
);
},
{
closed = 1;
nodes = (
"110 536 OFFCURVE",
"131 559 OFFCURVE",
"163 559 CURVE SMOOTH",
"197 559 OFFCURVE",
"214 535 OFFCURVE",
"214 508 CURVE SMOOTH",
"214 498 OFFCURVE",
"213 488 OFFCURVE",
"212 478 CURVE",
"197 465 OFFCURVE",
"180 459 OFFCURVE",
"164 459 CURVE SMOOTH",
"130 459 OFFCURVE",
"110 480 OFFCURVE",
"110 508 CURVE SMOOTH"
);
}
);
};
layerId = "55C6F8EE-B60C-49C4-8D15-2255C9205224";
paths = (
{
closed = 1;
nodes = (
"20 431 OFFCURVE",
"77 383 OFFCURVE",
"149 383 CURVE SMOOTH",
"165 383 OFFCURVE",
"179 385 OFFCURVE",
"191 389 CURVE",
"173 320 OFFCURVE",
"156 249 OFFCURVE",
"156 192 CURVE SMOOTH",
"156 64 OFFCURVE",
"247 -10 OFFCURVE",
"387 -10 CURVE SMOOTH",
"539 -10 OFFCURVE",
"608 74 OFFCURVE",
"608 202 CURVE SMOOTH",
"608 281 LINE",
"882 281 LINE",
"882 357 LINE",
"513 357 LINE",
"513 198 LINE SMOOTH",
"513 108 OFFCURVE",
"464 68 OFFCURVE",
"386 68 CURVE SMOOTH",
"302 68 OFFCURVE",
"251 118 OFFCURVE",
"251 193 CURVE SMOOTH",
"251 240 OFFCURVE",
"260 299 OFFCURVE",
"278 372 CURVE SMOOTH",
"288 414 OFFCURVE",
"300 450 OFFCURVE",
"300 509 CURVE SMOOTH",
"300 574 OFFCURVE",
"251 635 OFFCURVE",
"161 635 CURVE SMOOTH",
"75 635 OFFCURVE",
"20 578 OFFCURVE",
"20 506 CURVE SMOOTH"
);
},
{
closed = 1;
nodes = (
"110 536 OFFCURVE",
"131 559 OFFCURVE",
"163 559 CURVE SMOOTH",
"197 559 OFFCURVE",
"214 535 OFFCURVE",
"214 508 CURVE SMOOTH",
"214 498 OFFCURVE",
"213 488 OFFCURVE",
"212 478 CURVE",
"197 465 OFFCURVE",
"180 459 OFFCURVE",
"164 459 CURVE SMOOTH",
"130 459 OFFCURVE",
"110 480 OFFCURVE",
"110 508 CURVE SMOOTH"
);
}
);
width = 892;
}
);
rightMetricsKey = Ka.MGondi;
unicode = 11D23;
category = Letter;
},
{
glyphname = Ma.MGondi;
lastChange = "2019-11-25 14:52:51 +0000";
layers = (
{
anchors = (
{
name = bottom1;
position = "{267, -78}";
},
{
name = top1;
position = "{307, 738}";
}
);
background = {
anchors = (
{
name = bottom1;
position = "{267, -78}";
},
{
name = top1;
position = "{307, 738}";
}
);
paths = (
{
closed = 1;
nodes = (
"40 478 OFFCURVE",
"96 429 OFFCURVE",
"193 429 CURVE SMOOTH",
"221 429 LINE",
"221 0 LINE",
"316 0 LINE",
"316 281 LINE",
"688 281 LINE",
"688 357 LINE",
"316 357 LINE",
"316 429 LINE",
"450 429 LINE",
"450 504 LINE",
"316 504 LINE",
"316 558 LINE SMOOTH",
"316 629 OFFCURVE",
"263 682 OFFCURVE",
"178 682 CURVE SMOOTH",
"88 682 OFFCURVE",
"40 624 OFFCURVE",
"40 555 CURVE SMOOTH"
);
},
{
closed = 1;
nodes = (
"126 588 OFFCURVE",
"145 608 OFFCURVE",
"175 608 CURVE SMOOTH",
"202 608 OFFCURVE",
"221 591 OFFCURVE",
"221 558 CURVE SMOOTH",
"221 504 LINE",
"191 504 LINE SMOOTH",
"144 504 OFFCURVE",
"126 529 OFFCURVE",
"126 557 CURVE SMOOTH"
);
}
);
};
layerId = "55C6F8EE-B60C-49C4-8D15-2255C9205224";
paths = (
{
closed = 1;
nodes = (
"40 478 OFFCURVE",
"96 429 OFFCURVE",
"193 429 CURVE SMOOTH",
"221 429 LINE",
"221 0 LINE",
"316 0 LINE",
"316 281 LINE",
"688 281 LINE",
"688 357 LINE",
"316 357 LINE",
"316 429 LINE",
"450 429 LINE",
"450 504 LINE",
"316 504 LINE",
"316 558 LINE SMOOTH",
"316 629 OFFCURVE",
"263 682 OFFCURVE",
"178 682 CURVE SMOOTH",
"88 682 OFFCURVE",
"40 624 OFFCURVE",
"40 555 CURVE SMOOTH"
);
},
{
closed = 1;
nodes = (
"126 588 OFFCURVE",
"145 608 OFFCURVE",
"175 608 CURVE SMOOTH",
"202 608 OFFCURVE",
"221 591 OFFCURVE",
"221 558 CURVE SMOOTH",
"221 504 LINE",
"191 504 LINE SMOOTH",
"144 504 OFFCURVE",
"126 529 OFFCURVE",
"126 557 CURVE SMOOTH"
);
}
);
width = 698;
}
);
rightMetricsKey = Ka.MGondi;
unicode = 11D24;
category = Letter;
},
{
glyphname = Ya.MGondi;
lastChange = "2019-11-22 14:58:55 +0000";
layers = (
{
anchors = (
{
name = bottom1;
position = "{314, -78}";
},
{
name = top1;
position = "{314, 698}";
}
);
background = {
anchors = (
{
name = bottom1;
position = "{314, -78}";
},
{
name = top1;
position = "{314, 698}";
}
);
paths = (
{
closed = 1;
nodes = (
"75 165 OFFCURVE",
"229 41 OFFCURVE",
"403 -15 CURVE",
"435 63 LINE",
"270 125 OFFCURVE",
"170 223 OFFCURVE",
"170 383 CURVE SMOOTH",
"170 486 OFFCURVE",
"226 556 OFFCURVE",
"315 556 CURVE SMOOTH",
"398 556 OFFCURVE",
"459 489 OFFCURVE",
"459 383 CURVE SMOOTH",
"459 281 LINE",
"828 281 LINE",
"828 357 LINE",
"554 357 LINE",
"554 383 LINE SMOOTH",
"554 542 OFFCURVE",
"454 635 OFFCURVE",
"315 635 CURVE SMOOTH",
"175 635 OFFCURVE",
"75 537 OFFCURVE",
"75 384 CURVE SMOOTH"
);
}
);
};
layerId = "55C6F8EE-B60C-49C4-8D15-2255C9205224";
paths = (
{
closed = 1;
nodes = (
"75 165 OFFCURVE",
"229 41 OFFCURVE",
"403 -15 CURVE",
"435 63 LINE",
"270 125 OFFCURVE",
"170 223 OFFCURVE",
"170 383 CURVE SMOOTH",
"170 486 OFFCURVE",
"226 556 OFFCURVE",
"315 556 CURVE SMOOTH",
"398 556 OFFCURVE",
"459 489 OFFCURVE",
"459 383 CURVE SMOOTH",
"459 281 LINE",
"828 281 LINE",
"828 357 LINE",
"554 357 LINE",
"554 383 LINE SMOOTH",
"554 542 OFFCURVE",
"454 635 OFFCURVE",
"315 635 CURVE SMOOTH",
"175 635 OFFCURVE",
"75 537 OFFCURVE",
"75 384 CURVE SMOOTH"
);
}
);
width = 838;
}
);
leftKerningGroup = Ka.MGondi;
leftMetricsKey = Ka.MGondi;
rightKerningGroup = Ka.MGondi;
rightMetricsKey = Ka.MGondi;
unicode = 11D25;
category = Letter;
},
{
glyphname = Ra.MGondi;
lastChange = "2019-10-22 12:17:12 +0000";
layers = (
{
anchors = (
{
name = bottom1;
position = "{343, -78}";
},
{
name = top1;
position = "{343, 698}";
}
);
background = {
anchors = (
{
name = bottom1;
position = "{343, -78}";
},
{
name = top1;
position = "{343, 698}";
}
);
paths = (
{
closed = 1;
nodes = (
"75 105 OFFCURVE",
"180 0 OFFCURVE",
"309 -10 CURVE",
"309 69 LINE",
"242 78 OFFCURVE",
"170 145 OFFCURVE",
"170 313 CURVE SMOOTH",
"170 490 OFFCURVE",
"245 546 OFFCURVE",
"309 556 CURVE",
"309 635 LINE",
"180 624 OFFCURVE",
"75 521 OFFCURVE",
"75 314 CURVE SMOOTH"
);
},
{
closed = 1;
nodes = (
"282 271 OFFCURVE",
"309 251 OFFCURVE",
"343 251 CURVE SMOOTH",
"377 251 OFFCURVE",
"406 271 OFFCURVE",
"406 319 CURVE SMOOTH",
"406 368 OFFCURVE",
"377 386 OFFCURVE",
"343 386 CURVE SMOOTH",
"309 386 OFFCURVE",
"282 368 OFFCURVE",
"282 319 CURVE SMOOTH"
);
},
{
closed = 1;
nodes = (
"501 -1 OFFCURVE",
"602 94 OFFCURVE",
"612 281 CURVE",
"896 281 LINE",
"896 357 LINE",
"611 357 LINE",
"598 535 OFFCURVE",
"499 625 OFFCURVE",
"379 635 CURVE",
"379 556 LINE",
"443 546 OFFCURVE",
"518 490 OFFCURVE",
"518 313 CURVE SMOOTH",
"518 145 OFFCURVE",
"446 78 OFFCURVE",
"379 69 CURVE",
"379 -10 LINE"
);
}
);
};
layerId = "55C6F8EE-B60C-49C4-8D15-2255C9205224";
paths = (
{
closed = 1;
nodes = (
"75 105 OFFCURVE",
"180 0 OFFCURVE",
"309 -10 CURVE",
"309 69 LINE",
"242 78 OFFCURVE",
"170 145 OFFCURVE",
"170 313 CURVE SMOOTH",
"170 490 OFFCURVE",
"245 546 OFFCURVE",
"309 556 CURVE",
"309 635 LINE",
"180 624 OFFCURVE",
"75 521 OFFCURVE",
"75 314 CURVE SMOOTH"
);
},
{
closed = 1;
nodes = (
"282 271 OFFCURVE",
"309 251 OFFCURVE",
"343 251 CURVE SMOOTH",
"377 251 OFFCURVE",
"406 271 OFFCURVE",
"406 319 CURVE SMOOTH",
"406 368 OFFCURVE",
"377 386 OFFCURVE",
"343 386 CURVE SMOOTH",
"309 386 OFFCURVE",
"282 368 OFFCURVE",
"282 319 CURVE SMOOTH"
);
},
{
closed = 1;
nodes = (
"501 -1 OFFCURVE",
"602 94 OFFCURVE",
"612 281 CURVE",
"896 281 LINE",
"896 357 LINE",
"611 357 LINE",
"598 535 OFFCURVE",
"499 625 OFFCURVE",
"379 635 CURVE",
"379 556 LINE",
"443 546 OFFCURVE",
"518 490 OFFCURVE",
"518 313 CURVE SMOOTH",
"518 145 OFFCURVE",
"446 78 OFFCURVE",
"379 69 CURVE",
"379 -10 LINE"
);
}
);
width = 906;
}
);
leftKerningGroup = Ka.MGondi;
leftMetricsKey = Ka.MGondi;
rightKerningGroup = Ka.MGondi;
rightMetricsKey = Ka.MGondi;
unicode = 11D26;
category = Letter;
},
{
glyphname = La.MGondi;
lastChange = "2019-10-22 12:17:12 +0000";
layers = (
{
anchors = (
{
name = bottom1;
position = "{322, -78}";
},
{
name = top1;
position = "{322, 698}";
}
);
background = {
anchors = (
{
name = bottom1;
position = "{322, -78}";
},
{
name = top1;
position = "{322, 698}";
}
);
paths = (
{
closed = 1;
nodes = (
"185 0 LINE",
"185 403 LINE SMOOTH",
"185 510 OFFCURVE",
"238 557 OFFCURVE",
"322 557 CURVE SMOOTH",
"406 557 OFFCURVE",
"459 510 OFFCURVE",
"459 403 CURVE SMOOTH",
"459 0 LINE",
"554 0 LINE",
"554 281 LINE",
"848 281 LINE",
"848 357 LINE",
"554 357 LINE",
"554 404 LINE SMOOTH",
"554 547 OFFCURVE",
"471 635 OFFCURVE",
"322 635 CURVE SMOOTH",
"170 635 OFFCURVE",
"90 548 OFFCURVE",
"90 404 CURVE SMOOTH",
"90 0 LINE"
);
}
);
};
layerId = "55C6F8EE-B60C-49C4-8D15-2255C9205224";
paths = (
{
closed = 1;
nodes = (
"185 0 LINE",
"185 403 LINE SMOOTH",
"185 510 OFFCURVE",
"238 557 OFFCURVE",
"322 557 CURVE SMOOTH",
"406 557 OFFCURVE",
"459 510 OFFCURVE",
"459 403 CURVE SMOOTH",
"459 0 LINE",
"554 0 LINE",
"554 281 LINE",
"848 281 LINE",
"848 357 LINE",
"554 357 LINE",
"554 404 LINE SMOOTH",
"554 547 OFFCURVE",
"471 635 OFFCURVE",
"322 635 CURVE SMOOTH",
"170 635 OFFCURVE",
"90 548 OFFCURVE",
"90 404 CURVE SMOOTH",
"90 0 LINE"
);
}
);
width = 858;
}
);
leftKerningGroup = Tta.MGondi;
leftMetricsKey = VowelA.MGondi;
rightKerningGroup = La.MGondi;
rightMetricsKey = Ka.MGondi;
unicode = 11D27;
category = Letter;
},
{
glyphname = Va.MGondi;
lastChange = "2019-10-22 12:17:12 +0000";
layers = (
{
anchors = (
{
name = bottom1;
position = "{393, -78}";
},
{
name = top1;
position = "{393, 698}";
}
);
background = {
anchors = (
{
name = bottom1;
position = "{393, -78}";
},
{
name = top1;
position = "{393, 698}";
}
);
paths = (
{
closed = 1;
nodes = (
"75 65 OFFCURVE",
"162 -10 OFFCURVE",
"285 -10 CURVE SMOOTH",
"395 -10 OFFCURVE",
"477 47 OFFCURVE",
"492 138 CURVE",
"502 137 OFFCURVE",
"513 136 OFFCURVE",
"523 136 CURVE SMOOTH",
"629 136 OFFCURVE",
"692 195 OFFCURVE",
"705 282 CURVE",
"981 282 LINE",
"981 358 LINE",
"703 358 LINE",
"688 440 OFFCURVE",
"625 496 OFFCURVE",
"523 496 CURVE SMOOTH",
"508 496 OFFCURVE",
"494 494 OFFCURVE",
"481 490 CURVE",
"469 576 OFFCURVE",
"392 635 OFFCURVE",
"287 635 CURVE SMOOTH",
"171 635 OFFCURVE",
"88 565 OFFCURVE",
"88 466 CURVE SMOOTH",
"88 386 OFFCURVE",
"141 340 OFFCURVE",
"184 327 CURVE",
"139 312 OFFCURVE",
"75 264 OFFCURVE",
"75 169 CURVE SMOOTH"
);
},
{
closed = 1;
nodes = (
"170 239 OFFCURVE",
"213 285 OFFCURVE",
"286 285 CURVE SMOOTH",
"360 285 OFFCURVE",
"399 239 OFFCURVE",
"399 175 CURVE SMOOTH",
"399 112 OFFCURVE",
"357 68 OFFCURVE",
"285 68 CURVE SMOOTH",
"213 68 OFFCURVE",
"170 112 OFFCURVE",
"170 175 CURVE SMOOTH"
);
},
{
closed = 1;
nodes = (
"183 516 OFFCURVE",
"221 556 OFFCURVE",
"287 556 CURVE SMOOTH",
"353 556 OFFCURVE",
"388 516 OFFCURVE",
"388 459 CURVE SMOOTH",
"388 404 OFFCURVE",
"351 364 OFFCURVE",
"286 364 CURVE SMOOTH",
"221 364 OFFCURVE",
"183 404 OFFCURVE",
"183 459 CURVE SMOOTH"
);
},
{
closed = 1;
nodes = (
"419 337 OFFCURVE",
"454 363 OFFCURVE",
"472 406 CURVE",
"484 413 OFFCURVE",
"501 417 OFFCURVE",
"515 417 CURVE SMOOTH",
"579 417 OFFCURVE",
"617 379 OFFCURVE",
"617 316 CURVE SMOOTH",
"617 254 OFFCURVE",
"579 215 OFFCURVE",
"515 215 CURVE SMOOTH",
"506 215 OFFCURVE",
"497 216 OFFCURVE",
"488 218 CURVE",
"471 278 OFFCURVE",
"427 312 OFFCURVE",
"389 326 CURVE"
);
}
);
};
layerId = "55C6F8EE-B60C-49C4-8D15-2255C9205224";
paths = (
{
closed = 1;
nodes = (
"75 65 OFFCURVE",
"162 -10 OFFCURVE",
"285 -10 CURVE SMOOTH",
"395 -10 OFFCURVE",
"477 47 OFFCURVE",
"492 138 CURVE",
"502 137 OFFCURVE",
"513 136 OFFCURVE",
"523 136 CURVE SMOOTH",
"629 136 OFFCURVE",
"692 195 OFFCURVE",
"705 282 CURVE",
"981 282 LINE",
"981 358 LINE",
"703 358 LINE",
"688 440 OFFCURVE",
"625 496 OFFCURVE",
"523 496 CURVE SMOOTH",
"508 496 OFFCURVE",
"494 494 OFFCURVE",
"481 490 CURVE",
"469 576 OFFCURVE",
"392 635 OFFCURVE",
"287 635 CURVE SMOOTH",
"171 635 OFFCURVE",
"88 565 OFFCURVE",
"88 466 CURVE SMOOTH",
"88 386 OFFCURVE",
"141 340 OFFCURVE",
"184 327 CURVE",
"139 312 OFFCURVE",
"75 264 OFFCURVE",
"75 169 CURVE SMOOTH"
);
},
{
closed = 1;
nodes = (
"170 239 OFFCURVE",
"213 285 OFFCURVE",
"286 285 CURVE SMOOTH",
"360 285 OFFCURVE",
"399 239 OFFCURVE",
"399 175 CURVE SMOOTH",
"399 112 OFFCURVE",
"357 68 OFFCURVE",
"285 68 CURVE SMOOTH",
"213 68 OFFCURVE",
"170 112 OFFCURVE",
"170 175 CURVE SMOOTH"
);
},
{
closed = 1;
nodes = (
"183 516 OFFCURVE",
"221 556 OFFCURVE",
"287 556 CURVE SMOOTH",
"353 556 OFFCURVE",
"388 516 OFFCURVE",
"388 459 CURVE SMOOTH",
"388 404 OFFCURVE",
"351 364 OFFCURVE",
"286 364 CURVE SMOOTH",
"221 364 OFFCURVE",
"183 404 OFFCURVE",
"183 459 CURVE SMOOTH"
);
},
{
closed = 1;
nodes = (
"419 337 OFFCURVE",
"454 363 OFFCURVE",
"472 406 CURVE",
"484 413 OFFCURVE",
"501 417 OFFCURVE",
"515 417 CURVE SMOOTH",
"579 417 OFFCURVE",
"617 379 OFFCURVE",
"617 316 CURVE SMOOTH",
"617 254 OFFCURVE",
"579 215 OFFCURVE",
"515 215 CURVE SMOOTH",
"506 215 OFFCURVE",
"497 216 OFFCURVE",
"488 218 CURVE",
"471 278 OFFCURVE",
"427 312 OFFCURVE",
"389 326 CURVE"
);
}
);
width = 991;
}
);
leftMetricsKey = Kha.MGondi;
rightMetricsKey = Ka.MGondi;
unicode = 11D28;
category = Letter;
},
{
glyphname = Sha.MGondi;
lastChange = "2019-10-22 12:17:12 +0000";
layers = (
{
anchors = (
{
name = bottom1;
position = "{325, -78}";
},
{
name = top1;
position = "{325, 698}";
}
);
background = {
anchors = (
{
name = bottom1;
position = "{325, -78}";
},
{
name = top1;
position = "{325, 698}";
}
);
paths = (
{
closed = 1;
nodes = (
"275 0 LINE",
"370 0 LINE",
"465 281 LINE",
"806 281 LINE",
"806 357 LINE",
"490 357 LINE",
"582 630 LINE",
"481 630 LINE",
"326 105 LINE",
"144 630 LINE",
"40 630 LINE"
);
}
);
};
layerId = "55C6F8EE-B60C-49C4-8D15-2255C9205224";
paths = (
{
closed = 1;
nodes = (
"275 0 LINE",
"370 0 LINE",
"465 281 LINE",
"806 281 LINE",
"806 357 LINE",
"490 357 LINE",
"582 630 LINE",
"481 630 LINE",
"326 105 LINE",
"144 630 LINE",
"40 630 LINE"
);
}
);
width = 816;
}
);
rightMetricsKey = Ka.MGondi;
unicode = 11D29;
category = Letter;
},
{
glyphname = Ssa.MGondi;
lastChange = "2019-10-22 12:17:12 +0000";
layers = (
{
anchors = (
{
name = bottom1;
position = "{325, -78}";
},
{
name = top1;
position = "{325, 698}";
}
);
background = {
anchors = (
{
name = bottom1;
position = "{325, -78}";
},
{
name = top1;
position = "{325, 698}";
}
);
paths = (
{
closed = 1;
nodes = (
"75 105 OFFCURVE",
"168 -10 OFFCURVE",
"326 -10 CURVE SMOOTH",
"481 -10 OFFCURVE",
"574 92 OFFCURVE",
"583 281 CURVE",
"866 281 LINE",
"866 357 LINE",
"583 357 LINE",
"570 539 OFFCURVE",
"478 635 OFFCURVE",
"326 635 CURVE SMOOTH",
"168 635 OFFCURVE",
"75 521 OFFCURVE",
"75 314 CURVE SMOOTH"
);
},
{
closed = 1;
nodes = (
"488 281 LINE",
"481 151 OFFCURVE",
"427 68 OFFCURVE",
"326 68 CURVE SMOOTH",
"232 68 OFFCURVE",
"178 151 OFFCURVE",
"171 281 CURVE"
);
},
{
closed = 1;
nodes = (
"182 480 OFFCURVE",
"235 556 OFFCURVE",
"326 556 CURVE SMOOTH",
"424 556 OFFCURVE",
"477 480 OFFCURVE",
"487 357 CURVE",
"172 357 LINE"
);
}
);
};
layerId = "55C6F8EE-B60C-49C4-8D15-2255C9205224";
paths = (
{
closed = 1;
nodes = (
"75 105 OFFCURVE",
"168 -10 OFFCURVE",
"326 -10 CURVE SMOOTH",
"481 -10 OFFCURVE",
"574 92 OFFCURVE",
"583 281 CURVE",
"866 281 LINE",
"866 357 LINE",
"583 357 LINE",
"570 539 OFFCURVE",
"478 635 OFFCURVE",
"326 635 CURVE SMOOTH",
"168 635 OFFCURVE",
"75 521 OFFCURVE",
"75 314 CURVE SMOOTH"
);
},
{
closed = 1;
nodes = (
"488 281 LINE",
"481 151 OFFCURVE",
"427 68 OFFCURVE",
"326 68 CURVE SMOOTH",
"232 68 OFFCURVE",
"178 151 OFFCURVE",
"171 281 CURVE"
);
},
{
closed = 1;
nodes = (
"182 480 OFFCURVE",
"235 556 OFFCURVE",
"326 556 CURVE SMOOTH",
"424 556 OFFCURVE",
"477 480 OFFCURVE",
"487 357 CURVE",
"172 357 LINE"
);
}
);
width = 876;
}
);
leftKerningGroup = Ka.MGondi;
leftMetricsKey = Ka.MGondi;
rightKerningGroup = Ka.MGondi;
rightMetricsKey = Ka.MGondi;
unicode = 11D2A;
category = Letter;
},
{
glyphname = Sa.MGondi;
lastChange = "2019-10-22 12:17:12 +0000";
layers = (
{
anchors = (
{
name = bottom1;
position = "{309, -78}";
},
{
name = top1;
position = "{281, 698}";
}
);
background = {
anchors = (
{
name = bottom1;
position = "{309, -78}";
},
{
name = top1;
position = "{281, 698}";
}
);
paths = (
{
closed = 1;
nodes = (
"75 66 OFFCURVE",
"163 -10 OFFCURVE",
"307 -10 CURVE SMOOTH",
"458 -10 OFFCURVE",
"543 69 OFFCURVE",
"543 200 CURVE SMOOTH",
"543 281 LINE",
"820 281 LINE",
"820 357 LINE",
"451 357 LINE",
"451 198 LINE SMOOTH",
"451 122 OFFCURVE",
"403 69 OFFCURVE",
"308 69 CURVE SMOOTH",
"222 69 OFFCURVE",
"167 114 OFFCURVE",
"167 179 CURVE SMOOTH",
"167 244 OFFCURVE",
"211 289 OFFCURVE",
"291 289 CURVE SMOOTH",
"328 289 LINE",
"328 358 LINE",
"297 358 LINE SMOOTH",
"216 358 OFFCURVE",
"171 402 OFFCURVE",
"171 458 CURVE SMOOTH",
"171 515 OFFCURVE",
"216 556 OFFCURVE",
"292 556 CURVE SMOOTH",
"355 556 OFFCURVE",
"401 527 OFFCURVE",
"430 501 CURVE",
"484 560 LINE",
"443 603 OFFCURVE",
"376 635 OFFCURVE",
"290 635 CURVE SMOOTH",
"166 635 OFFCURVE",
"79 564 OFFCURVE",
"79 463 CURVE SMOOTH",
"79 401 OFFCURVE",
"114 343 OFFCURVE",
"174 324 CURVE",
"111 302 OFFCURVE",
"75 243 OFFCURVE",
"75 181 CURVE SMOOTH"
);
}
);
};
layerId = "55C6F8EE-B60C-49C4-8D15-2255C9205224";
paths = (
{
closed = 1;
nodes = (
"75 66 OFFCURVE",
"163 -10 OFFCURVE",
"307 -10 CURVE SMOOTH",
"458 -10 OFFCURVE",
"543 69 OFFCURVE",
"543 200 CURVE SMOOTH",
"543 281 LINE",
"820 281 LINE",
"820 357 LINE",
"451 357 LINE",
"451 198 LINE SMOOTH",
"451 122 OFFCURVE",
"403 69 OFFCURVE",
"308 69 CURVE SMOOTH",
"222 69 OFFCURVE",
"167 114 OFFCURVE",
"167 179 CURVE SMOOTH",
"167 244 OFFCURVE",
"211 289 OFFCURVE",
"291 289 CURVE SMOOTH",
"328 289 LINE",
"328 358 LINE",
"297 358 LINE SMOOTH",
"216 358 OFFCURVE",
"171 402 OFFCURVE",
"171 458 CURVE SMOOTH",
"171 515 OFFCURVE",
"216 556 OFFCURVE",
"292 556 CURVE SMOOTH",
"355 556 OFFCURVE",
"401 527 OFFCURVE",
"430 501 CURVE",
"484 560 LINE",
"443 603 OFFCURVE",
"376 635 OFFCURVE",
"290 635 CURVE SMOOTH",
"166 635 OFFCURVE",
"79 564 OFFCURVE",
"79 463 CURVE SMOOTH",
"79 401 OFFCURVE",
"114 343 OFFCURVE",
"174 324 CURVE",
"111 302 OFFCURVE",
"75 243 OFFCURVE",
"75 181 CURVE SMOOTH"
);
}
);
width = 830;
}
);
leftMetricsKey = Kha.MGondi;
rightMetricsKey = Ka.MGondi;
unicode = 11D2B;
category = Letter;
},
{
glyphname = Ha.MGondi;
lastChange = "2019-10-22 12:17:12 +0000";
layers = (
{
anchors = (
{
name = bottom1;
position = "{377, -78}";
},
{
name = top1;
position = "{377, 698}";
}
);
background = {
anchors = (
{
name = bottom1;
position = "{377, -78}";
},
{
name = top1;
position = "{377, 698}";
}
);
paths = (
{
closed = 1;
nodes = (
"85 52 OFFCURVE",
"147 -6 OFFCURVE",
"242 -6 CURVE SMOOTH",
"310 -6 OFFCURVE",
"359 28 OFFCURVE",
"377 95 CURVE",
"400 28 OFFCURVE",
"447 -6 OFFCURVE",
"516 -6 CURVE SMOOTH",
"609 -6 OFFCURVE",
"669 58 OFFCURVE",
"669 178 CURVE SMOOTH",
"669 281 LINE",
"954 281 LINE",
"954 357 LINE",
"669 357 LINE",
"669 488 LINE SMOOTH",
"669 593 OFFCURVE",
"599 635 OFFCURVE",
"528 635 CURVE SMOOTH",
"448 635 OFFCURVE",
"391 576 OFFCURVE",
"391 480 CURVE SMOOTH",
"391 358 OFFCURVE",
"474 300 OFFCURVE",
"574 285 CURVE",
"574 178 LINE SMOOTH",
"574 105 OFFCURVE",
"551 72 OFFCURVE",
"505 72 CURVE SMOOTH",
"457 72 OFFCURVE",
"429 111 OFFCURVE",
"421 188 CURVE SMOOTH",
"415 251 LINE",
"338 251 LINE",
"333 188 LINE SMOOTH",
"326 107 OFFCURVE",
"304 72 OFFCURVE",
"253 72 CURVE SMOOTH",
"205 72 OFFCURVE",
"180 105 OFFCURVE",
"180 178 CURVE SMOOTH",
"182 630 LINE",
"85 630 LINE",
"85 178 LINE SMOOTH"
);
},
{
closed = 1;
nodes = (
"480 535 OFFCURVE",
"502 557 OFFCURVE",
"530 557 CURVE SMOOTH",
"556 557 OFFCURVE",
"579 536 OFFCURVE",
"579 488 CURVE SMOOTH",
"579 360 LINE",
"519 370 OFFCURVE",
"480 410 OFFCURVE",
"480 483 CURVE SMOOTH"
);
}
);
};
layerId = "55C6F8EE-B60C-49C4-8D15-2255C9205224";
paths = (
{
closed = 1;
nodes = (
"85 52 OFFCURVE",
"147 -6 OFFCURVE",
"242 -6 CURVE SMOOTH",
"310 -6 OFFCURVE",
"359 28 OFFCURVE",
"377 95 CURVE",
"400 28 OFFCURVE",
"447 -6 OFFCURVE",
"516 -6 CURVE SMOOTH",
"609 -6 OFFCURVE",
"669 58 OFFCURVE",
"669 178 CURVE SMOOTH",
"669 281 LINE",
"954 281 LINE",
"954 357 LINE",
"669 357 LINE",
"669 488 LINE SMOOTH",
"669 593 OFFCURVE",
"599 635 OFFCURVE",
"528 635 CURVE SMOOTH",
"448 635 OFFCURVE",
"391 576 OFFCURVE",
"391 480 CURVE SMOOTH",
"391 358 OFFCURVE",
"474 300 OFFCURVE",
"574 285 CURVE",
"574 178 LINE SMOOTH",
"574 105 OFFCURVE",
"551 72 OFFCURVE",
"505 72 CURVE SMOOTH",
"457 72 OFFCURVE",
"429 111 OFFCURVE",
"421 188 CURVE SMOOTH",
"415 251 LINE",
"338 251 LINE",
"333 188 LINE SMOOTH",
"326 107 OFFCURVE",
"304 72 OFFCURVE",
"253 72 CURVE SMOOTH",
"205 72 OFFCURVE",
"180 105 OFFCURVE",
"180 178 CURVE SMOOTH",
"182 630 LINE",
"85 630 LINE",
"85 178 LINE SMOOTH"
);
},
{
closed = 1;
nodes = (
"480 535 OFFCURVE",
"502 557 OFFCURVE",
"530 557 CURVE SMOOTH",
"556 557 OFFCURVE",
"579 536 OFFCURVE",
"579 488 CURVE SMOOTH",
"579 360 LINE",
"519 370 OFFCURVE",
"480 410 OFFCURVE",
"480 483 CURVE SMOOTH"
);
}
);
width = 964;
}
);
rightKerningGroup = Pa.MGondi;
rightMetricsKey = Ka.MGondi;
unicode = 11D2C;
category = Letter;
},
{
glyphname = Lla.MGondi;
lastChange = "2019-10-22 12:17:12 +0000";
layers = (
{
anchors = (
{
name = bottom1;
position = "{484, -78}";
},
{
name = top1;
position = "{484, 698}";
}
);
background = {
anchors = (
{
name = bottom1;
position = "{484, -78}";
},
{
name = top1;
position = "{484, 698}";
}
);
paths = (
{
closed = 1;
nodes = (
"75 85 OFFCURVE",
"161 -10 OFFCURVE",
"308 -10 CURVE SMOOTH",
"387 -10 OFFCURVE",
"444 25 OFFCURVE",
"476 87 CURVE",
"517 19 OFFCURVE",
"589 -10 OFFCURVE",
"660 -10 CURVE SMOOTH",
"803 -10 OFFCURVE",
"889 84 OFFCURVE",
"897 281 CURVE",
"1181 281 LINE",
"1181 357 LINE",
"897 357 LINE",
"886 554 OFFCURVE",
"799 635 OFFCURVE",
"666 635 CURVE SMOOTH",
"590 635 OFFCURVE",
"527 593 OFFCURVE",
"494 535 CURVE",
"449 602 OFFCURVE",
"383 635 OFFCURVE",
"314 635 CURVE SMOOTH",
"162 635 OFFCURVE",
"75 531 OFFCURVE",
"75 314 CURVE SMOOTH"
);
},
{
closed = 1;
nodes = (
"170 461 OFFCURVE",
"219 557 OFFCURVE",
"314 557 CURVE SMOOTH",
"367 557 OFFCURVE",
"425 523 OFFCURVE",
"453 444 CURVE",
"449 423 OFFCURVE",
"446 398 OFFCURVE",
"444 374 CURVE SMOOTH",
"435 269 LINE SMOOTH",
"424 122 OFFCURVE",
"381 68 OFFCURVE",
"308 68 CURVE SMOOTH",
"217 68 OFFCURVE",
"170 162 OFFCURVE",
"170 313 CURVE SMOOTH"
);
},
{
closed = 1;
nodes = (
"520 211 OFFCURVE",
"525 242 OFFCURVE",
"527 268 CURVE SMOOTH",
"537 367 LINE SMOOTH",
"546 470 OFFCURVE",
"590 556 OFFCURVE",
"666 556 CURVE SMOOTH",
"758 556 OFFCURVE",
"803 461 OFFCURVE",
"803 313 CURVE SMOOTH",
"803 165 OFFCURVE",
"755 68 OFFCURVE",
"660 68 CURVE SMOOTH",
"605 68 OFFCURVE",
"542 96 OFFCURVE",
"515 184 CURVE"
);
}
);
};
layerId = "55C6F8EE-B60C-49C4-8D15-2255C9205224";
paths = (
{
closed = 1;
nodes = (
"75 85 OFFCURVE",
"161 -10 OFFCURVE",
"308 -10 CURVE SMOOTH",
"387 -10 OFFCURVE",
"444 25 OFFCURVE",
"476 87 CURVE",
"517 19 OFFCURVE",
"589 -10 OFFCURVE",
"660 -10 CURVE SMOOTH",
"803 -10 OFFCURVE",
"889 84 OFFCURVE",
"897 281 CURVE",
"1181 281 LINE",
"1181 357 LINE",
"897 357 LINE",
"886 554 OFFCURVE",
"799 635 OFFCURVE",
"666 635 CURVE SMOOTH",
"590 635 OFFCURVE",
"527 593 OFFCURVE",
"494 535 CURVE",
"449 602 OFFCURVE",
"383 635 OFFCURVE",
"314 635 CURVE SMOOTH",
"162 635 OFFCURVE",
"75 531 OFFCURVE",
"75 314 CURVE SMOOTH"
);
},
{
closed = 1;
nodes = (
"170 461 OFFCURVE",
"219 557 OFFCURVE",
"314 557 CURVE SMOOTH",
"367 557 OFFCURVE",
"425 523 OFFCURVE",
"453 444 CURVE",
"449 423 OFFCURVE",
"446 398 OFFCURVE",
"444 374 CURVE SMOOTH",
"435 269 LINE SMOOTH",
"424 122 OFFCURVE",
"381 68 OFFCURVE",
"308 68 CURVE SMOOTH",
"217 68 OFFCURVE",
"170 162 OFFCURVE",
"170 313 CURVE SMOOTH"
);
},
{
closed = 1;
nodes = (
"520 211 OFFCURVE",
"525 242 OFFCURVE",
"527 268 CURVE SMOOTH",
"537 367 LINE SMOOTH",
"546 470 OFFCURVE",
"590 556 OFFCURVE",
"666 556 CURVE SMOOTH",
"758 556 OFFCURVE",
"803 461 OFFCURVE",
"803 313 CURVE SMOOTH",
"803 165 OFFCURVE",
"755 68 OFFCURVE",
"660 68 CURVE SMOOTH",
"605 68 OFFCURVE",
"542 96 OFFCURVE",
"515 184 CURVE"
);
}
);
width = 1191;
}
);
leftKerningGroup = Ka.MGondi;
leftMetricsKey = Ka.MGondi;
rightKerningGroup = Ka.MGondi;
rightMetricsKey = Ka.MGondi;
unicode = 11D2D;
category = Letter;
},
{
glyphname = Kssa.MGondi;
lastChange = "2019-10-22 12:17:12 +0000";
layers = (
{
anchors = (
{
name = bottom1;
position = "{493, -78}";
},
{
name = top1;
position = "{493, 698}";
}
);
background = {
anchors = (
{
name = bottom1;
position = "{493, -78}";
},
{
name = top1;
position = "{493, 698}";
}
);
paths = (
{
closed = 1;
nodes = (
"91 533 OFFCURVE",
"139 470 OFFCURVE",
"139 351 CURVE SMOOTH",
"139 0 LINE",
"234 0 LINE",
"234 433 LINE SMOOTH",
"234 518 OFFCURVE",
"281 557 OFFCURVE",
"339 557 CURVE SMOOTH",
"399 557 OFFCURVE",
"444 519 OFFCURVE",
"444 433 CURVE SMOOTH",
"444 0 LINE",
"539 0 LINE",
"539 423 LINE SMOOTH",
"539 516 OFFCURVE",
"585 557 OFFCURVE",
"649 557 CURVE SMOOTH",
"707 557 OFFCURVE",
"749 519 OFFCURVE",
"749 433 CURVE SMOOTH",
"749 0 LINE",
"844 0 LINE",
"844 281 LINE",
"1148 281 LINE",
"1148 357 LINE",
"844 357 LINE",
"844 434 LINE SMOOTH",
"844 554 OFFCURVE",
"776 635 OFFCURVE",
"650 635 CURVE SMOOTH",
"574 635 OFFCURVE",
"523 599 OFFCURVE",
"496 546 CURVE",
"471 599 OFFCURVE",
"415 635 OFFCURVE",
"342 635 CURVE SMOOTH",
"271 635 OFFCURVE",
"212 599 OFFCURVE",
"182 531 CURVE",
"163 574 OFFCURVE",
"134 608 OFFCURVE",
"105 634 CURVE",
"44 577 LINE"
);
}
);
};
layerId = "55C6F8EE-B60C-49C4-8D15-2255C9205224";
paths = (
{
closed = 1;
nodes = (
"91 533 OFFCURVE",
"139 470 OFFCURVE",
"139 351 CURVE SMOOTH",
"139 0 LINE",
"234 0 LINE",
"234 433 LINE SMOOTH",
"234 518 OFFCURVE",
"281 557 OFFCURVE",
"339 557 CURVE SMOOTH",
"399 557 OFFCURVE",
"444 519 OFFCURVE",
"444 433 CURVE SMOOTH",
"444 0 LINE",
"539 0 LINE",
"539 423 LINE SMOOTH",
"539 516 OFFCURVE",
"585 557 OFFCURVE",
"649 557 CURVE SMOOTH",
"707 557 OFFCURVE",
"749 519 OFFCURVE",
"749 433 CURVE SMOOTH",
"749 0 LINE",
"844 0 LINE",
"844 281 LINE",
"1148 281 LINE",
"1148 357 LINE",
"844 357 LINE",
"844 434 LINE SMOOTH",
"844 554 OFFCURVE",
"776 635 OFFCURVE",
"650 635 CURVE SMOOTH",
"574 635 OFFCURVE",
"523 599 OFFCURVE",
"496 546 CURVE",
"471 599 OFFCURVE",
"415 635 OFFCURVE",
"342 635 CURVE SMOOTH",
"271 635 OFFCURVE",
"212 599 OFFCURVE",
"182 531 CURVE",
"163 574 OFFCURVE",
"134 608 OFFCURVE",
"105 634 CURVE",
"44 577 LINE"
);
}
);
width = 1158;
}
);
rightKerningGroup = La.MGondi;
rightMetricsKey = Ka.MGondi;
unicode = 11D2E;
category = Letter;
},
{
glyphname = Jnya.MGondi;
lastChange = "2019-10-22 12:17:12 +0000";
layers = (
{
anchors = (
{
name = bottom1;
position = "{366, -78}";
},
{
name = top1;
position = "{396, 698}";
}
);
background = {
anchors = (
{
name = bottom1;
position = "{366, -78}";
},
{
name = top1;
position = "{396, 698}";
}
);
paths = (
{
closed = 1;
nodes = (
"80 52 OFFCURVE",
"133 -10 OFFCURVE",
"223 -10 CURVE SMOOTH",
"318 -10 OFFCURVE",
"363 56 OFFCURVE",
"363 173 CURVE SMOOTH",
"363 297 OFFCURVE",
"323 404 OFFCURVE",
"271 495 CURVE",
"312 536 OFFCURVE",
"358 557 OFFCURVE",
"404 557 CURVE SMOOTH",
"471 557 OFFCURVE",
"517 513 OFFCURVE",
"517 426 CURVE SMOOTH",
"517 0 LINE",
"612 0 LINE",
"612 281 LINE",
"906 281 LINE",
"906 357 LINE",
"612 357 LINE",
"612 426 LINE SMOOTH",
"612 564 OFFCURVE",
"533 635 OFFCURVE",
"411 635 CURVE SMOOTH",
"335 635 OFFCURVE",
"263 596 OFFCURVE",
"220 551 CURVE",
"200 578 OFFCURVE",
"179 606 OFFCURVE",
"156 635 CURVE",
"88 582 LINE",
"113 552 OFFCURVE",
"143 515 OFFCURVE",
"165 485 CURVE",
"128 424 OFFCURVE",
"80 311 OFFCURVE",
"80 173 CURVE SMOOTH"
);
},
{
closed = 1;
nodes = (
"173 277 OFFCURVE",
"192 353 OFFCURVE",
"218 422 CURVE",
"258 341 OFFCURVE",
"274 259 OFFCURVE",
"274 173 CURVE SMOOTH",
"274 101 OFFCURVE",
"255 68 OFFCURVE",
"224 68 CURVE SMOOTH",
"188 68 OFFCURVE",
"173 101 OFFCURVE",
"173 173 CURVE SMOOTH"
);
}
);
};
layerId = "55C6F8EE-B60C-49C4-8D15-2255C9205224";
paths = (
{
closed = 1;
nodes = (
"80 52 OFFCURVE",
"133 -10 OFFCURVE",
"223 -10 CURVE SMOOTH",
"318 -10 OFFCURVE",
"363 56 OFFCURVE",
"363 173 CURVE SMOOTH",
"363 297 OFFCURVE",
"323 404 OFFCURVE",
"271 495 CURVE",
"312 536 OFFCURVE",
"358 557 OFFCURVE",
"404 557 CURVE SMOOTH",
"471 557 OFFCURVE",
"517 513 OFFCURVE",
"517 426 CURVE SMOOTH",
"517 0 LINE",
"612 0 LINE",
"612 281 LINE",
"906 281 LINE",
"906 357 LINE",
"612 357 LINE",
"612 426 LINE SMOOTH",
"612 564 OFFCURVE",
"533 635 OFFCURVE",
"411 635 CURVE SMOOTH",
"335 635 OFFCURVE",
"263 596 OFFCURVE",
"220 551 CURVE",
"200 578 OFFCURVE",
"179 606 OFFCURVE",
"156 635 CURVE",
"88 582 LINE",
"113 552 OFFCURVE",
"143 515 OFFCURVE",
"165 485 CURVE",
"128 424 OFFCURVE",
"80 311 OFFCURVE",
"80 173 CURVE SMOOTH"
);
},
{
closed = 1;
nodes = (
"173 277 OFFCURVE",
"192 353 OFFCURVE",
"218 422 CURVE",
"258 341 OFFCURVE",
"274 259 OFFCURVE",
"274 173 CURVE SMOOTH",
"274 101 OFFCURVE",
"255 68 OFFCURVE",
"224 68 CURVE SMOOTH",
"188 68 OFFCURVE",
"173 101 OFFCURVE",
"173 173 CURVE SMOOTH"
);
}
);
width = 916;
}
);
rightKerningGroup = La.MGondi;
rightMetricsKey = Ka.MGondi;
unicode = 11D2F;
category = Letter;
},
{
glyphname = Tra.MGondi;
lastChange = "2019-10-22 12:17:12 +0000";
layers = (
{
anchors = (
{
name = bottom1;
position = "{304, -78}";
},
{
name = top1;
position = "{304, 698}";
}
);
background = {
anchors = (
{
name = bottom1;
position = "{304, -78}";
},
{
name = top1;
position = "{304, 698}";
}
);
paths = (
{
closed = 1;
nodes = (
"71 60 OFFCURVE",
"168 -10 OFFCURVE",
"303 -10 CURVE SMOOTH",
"445 -10 OFFCURVE",
"529 64 OFFCURVE",
"529 167 CURVE SMOOTH",
"529 214 OFFCURVE",
"512 254 OFFCURVE",
"483 281 CURVE",
"787 281 LINE",
"787 357 LINE",
"457 357 LINE",
"493 380 OFFCURVE",
"514 420 OFFCURVE",
"514 463 CURVE SMOOTH",
"514 573 OFFCURVE",
"418 635 OFFCURVE",
"296 635 CURVE SMOOTH",
"174 635 OFFCURVE",
"95 573 OFFCURVE",
"95 504 CURVE SMOOTH",
"95 461 OFFCURVE",
"126 431 OFFCURVE",
"181 431 CURVE SMOOTH",
"235 431 OFFCURVE",
"262 461 OFFCURVE",
"262 494 CURVE SMOOTH",
"262 516 OFFCURVE",
"250 534 OFFCURVE",
"232 545 CURVE",
"252 551 OFFCURVE",
"274 556 OFFCURVE",
"300 556 CURVE SMOOTH",
"377 556 OFFCURVE",
"422 515 OFFCURVE",
"422 460 CURVE SMOOTH",
"422 407 OFFCURVE",
"381 366 OFFCURVE",
"310 366 CURVE SMOOTH",
"254 366 LINE",
"254 297 LINE",
"318 297 LINE SMOOTH",
"391 297 OFFCURVE",
"441 249 OFFCURVE",
"441 183 CURVE SMOOTH",
"441 110 OFFCURVE",
"384 69 OFFCURVE",
"304 69 CURVE SMOOTH",
"224 69 OFFCURVE",
"163 111 OFFCURVE",
"163 187 CURVE SMOOTH",
"163 205 OFFCURVE",
"166 225 OFFCURVE",
"170 239 CURVE",
"84 260 LINE",
"78 242 OFFCURVE",
"71 217 OFFCURVE",
"71 187 CURVE SMOOTH"
);
}
);
};
layerId = "55C6F8EE-B60C-49C4-8D15-2255C9205224";
paths = (
{
closed = 1;
nodes = (
"71 60 OFFCURVE",
"168 -10 OFFCURVE",
"303 -10 CURVE SMOOTH",
"445 -10 OFFCURVE",
"529 64 OFFCURVE",
"529 167 CURVE SMOOTH",
"529 214 OFFCURVE",
"512 254 OFFCURVE",
"483 281 CURVE",
"787 281 LINE",
"787 357 LINE",
"457 357 LINE",
"493 380 OFFCURVE",
"514 420 OFFCURVE",
"514 463 CURVE SMOOTH",
"514 573 OFFCURVE",
"418 635 OFFCURVE",
"296 635 CURVE SMOOTH",
"174 635 OFFCURVE",
"95 573 OFFCURVE",
"95 504 CURVE SMOOTH",
"95 461 OFFCURVE",
"126 431 OFFCURVE",
"181 431 CURVE SMOOTH",
"235 431 OFFCURVE",
"262 461 OFFCURVE",
"262 494 CURVE SMOOTH",
"262 516 OFFCURVE",
"250 534 OFFCURVE",
"232 545 CURVE",
"252 551 OFFCURVE",
"274 556 OFFCURVE",
"300 556 CURVE SMOOTH",
"377 556 OFFCURVE",
"422 515 OFFCURVE",
"422 460 CURVE SMOOTH",
"422 407 OFFCURVE",
"381 366 OFFCURVE",
"310 366 CURVE SMOOTH",
"254 366 LINE",
"254 297 LINE",
"318 297 LINE SMOOTH",
"391 297 OFFCURVE",
"441 249 OFFCURVE",
"441 183 CURVE SMOOTH",
"441 110 OFFCURVE",
"384 69 OFFCURVE",
"304 69 CURVE SMOOTH",
"224 69 OFFCURVE",
"163 111 OFFCURVE",
"163 187 CURVE SMOOTH",
"163 205 OFFCURVE",
"166 225 OFFCURVE",
"170 239 CURVE",
"84 260 LINE",
"78 242 OFFCURVE",
"71 217 OFFCURVE",
"71 187 CURVE SMOOTH"
);
}
);
width = 797;
}
);
rightKerningGroup = Cha.MGondi;
rightMetricsKey = Ka.MGondi;
unicode = 11D30;
category = Letter;
},
{
glyphname = MatraAa.MGondi;
lastChange = "2019-12-10 13:06:08 +0000";
layers = (
{
background = {
paths = (
{
closed = 1;
nodes = (
"-10 428 LINE",
"-10 504 LINE",
"-334 504 LINE",
"-334 428 LINE"
);
},
{
closed = 1;
nodes = (
"-10 281 LINE",
"-10 357 LINE",
"-294 357 LINE",
"-294 281 LINE"
);
}
);
};
layerId = "55C6F8EE-B60C-49C4-8D15-2255C9205224";
paths = (
{
closed = 1;
nodes = (
"-10 428 LINE",
"-10 504 LINE",
"-334 504 LINE",
"-334 428 LINE"
);
},
{
closed = 1;
nodes = (
"-10 281 LINE",
"-10 357 LINE",
"-294 357 LINE",
"-294 281 LINE"
);
}
);
width = 20;
}
);
unicode = 11D31;
category = Letter;
},
{
glyphname = MatraI.MGondi;
lastChange = "2019-10-22 12:17:12 +0000";
layers = (
{
background = {
paths = (
{
closed = 1;
nodes = (
"59 281 LINE",
"59 357 LINE",
"-123 357 LINE",
"-123 506 LINE SMOOTH",
"-123 546 OFFCURVE",
"-105 564 OFFCURVE",
"-75 564 CURVE SMOOTH",
"-48 564 OFFCURVE",
"-31 545 OFFCURVE",
"-31 508 CURVE SMOOTH",
"-31 466 LINE",
"57 466 LINE",
"57 504 LINE SMOOTH",
"57 582 OFFCURVE",
"11 635 OFFCURVE",
"-75 635 CURVE SMOOTH",
"-157 635 OFFCURVE",
"-209 591 OFFCURVE",
"-209 504 CURVE SMOOTH",
"-209 357 LINE",
"-316 357 LINE",
"-316 281 LINE"
);
}
);
};
layerId = "55C6F8EE-B60C-49C4-8D15-2255C9205224";
paths = (
{
closed = 1;
nodes = (
"59 281 LINE",
"59 357 LINE",
"-123 357 LINE",
"-123 506 LINE SMOOTH",
"-123 546 OFFCURVE",
"-105 564 OFFCURVE",
"-75 564 CURVE SMOOTH",
"-48 564 OFFCURVE",
"-31 545 OFFCURVE",
"-31 508 CURVE SMOOTH",
"-31 466 LINE",
"57 466 LINE",
"57 504 LINE SMOOTH",
"57 582 OFFCURVE",
"11 635 OFFCURVE",
"-75 635 CURVE SMOOTH",
"-157 635 OFFCURVE",
"-209 591 OFFCURVE",
"-209 504 CURVE SMOOTH",
"-209 357 LINE",
"-316 357 LINE",
"-316 281 LINE"
);
}
);
width = 89;
}
);
leftKerningGroup = MatraI.MGondi;
unicode = 11D32;
category = Letter;
},
{
glyphname = MatraIi.MGondi;
lastChange = "2019-10-22 12:17:12 +0000";
layers = (
{
background = {
paths = (
{
closed = 1;
nodes = (
"166 281 LINE",
"166 357 LINE",
"67 357 LINE",
"67 504 LINE SMOOTH",
"67 591 OFFCURVE",
"15 635 OFFCURVE",
"-67 635 CURVE SMOOTH",
"-153 635 OFFCURVE",
"-199 582 OFFCURVE",
"-199 504 CURVE SMOOTH",
"-199 466 LINE",
"-111 466 LINE",
"-111 508 LINE SMOOTH",
"-111 545 OFFCURVE",
"-94 564 OFFCURVE",
"-67 564 CURVE SMOOTH",
"-37 564 OFFCURVE",
"-19 546 OFFCURVE",
"-19 506 CURVE SMOOTH",
"-19 357 LINE",
"-295 357 LINE",
"-295 281 LINE"
);
}
);
};
layerId = "55C6F8EE-B60C-49C4-8D15-2255C9205224";
paths = (
{
closed = 1;
nodes = (
"166 281 LINE",
"166 357 LINE",
"67 357 LINE",
"67 504 LINE SMOOTH",
"67 591 OFFCURVE",
"15 635 OFFCURVE",
"-67 635 CURVE SMOOTH",
"-153 635 OFFCURVE",
"-199 582 OFFCURVE",
"-199 504 CURVE SMOOTH",
"-199 466 LINE",
"-111 466 LINE",
"-111 508 LINE SMOOTH",
"-111 545 OFFCURVE",
"-94 564 OFFCURVE",
"-67 564 CURVE SMOOTH",
"-37 564 OFFCURVE",
"-19 546 OFFCURVE",
"-19 506 CURVE SMOOTH",
"-19 357 LINE",
"-295 357 LINE",
"-295 281 LINE"
);
}
);
width = 186;
}
);
leftKerningGroup = MatraIi.MGondi;
unicode = 11D33;
category = Letter;
},
{
glyphname = MatraU.MGondi;
lastChange = "2019-12-10 13:07:35 +0000";
layers = (
{
background = {
paths = (
{
closed = 1;
nodes = (
"157 281 LINE",
"157 357 LINE",
"58 357 LINE",
"58 630 LINE",
"-27 630 LINE",
"-27 554 LINE SMOOTH",
"-27 527 OFFCURVE",
"-44 506 OFFCURVE",
"-78 506 CURVE SMOOTH",
"-107 506 OFFCURVE",
"-127 524 OFFCURVE",
"-127 556 CURVE SMOOTH",
"-127 630 LINE",
"-213 630 LINE",
"-213 556 LINE SMOOTH",
"-213 475 OFFCURVE",
"-161 436 OFFCURVE",
"-92 436 CURVE SMOOTH",
"-62 436 OFFCURVE",
"-41 444 OFFCURVE",
"-27 456 CURVE",
"-27 357 LINE",
"-323 357 LINE",
"-323 281 LINE"
);
}
);
};
layerId = "55C6F8EE-B60C-49C4-8D15-2255C9205224";
paths = (
{
closed = 1;
nodes = (
"157 281 LINE",
"157 357 LINE",
"58 357 LINE",
"58 630 LINE",
"-27 630 LINE",
"-27 554 LINE SMOOTH",
"-27 527 OFFCURVE",
"-44 506 OFFCURVE",
"-78 506 CURVE SMOOTH",
"-107 506 OFFCURVE",
"-127 524 OFFCURVE",
"-127 556 CURVE SMOOTH",
"-127 630 LINE",
"-213 630 LINE",
"-213 556 LINE SMOOTH",
"-213 475 OFFCURVE",
"-161 436 OFFCURVE",
"-92 436 CURVE SMOOTH",
"-62 436 OFFCURVE",
"-41 444 OFFCURVE",
"-27 456 CURVE",
"-27 357 LINE",
"-323 357 LINE",
"-323 281 LINE"
);
}
);
width = 177;
}
);
leftKerningGroup = MatraU.MGondi;
unicode = 11D34;
category = Letter;
},
{
glyphname = MatraUu.MGondi;
lastChange = "2019-11-25 14:37:01 +0000";
layers = (
{
background = {
paths = (
{
closed = 1;
nodes = (
"105 281 LINE",
"105 357 LINE",
"-98 357 LINE",
"-98 456 LINE",
"-84 444 OFFCURVE",
"-63 436 OFFCURVE",
"-33 436 CURVE SMOOTH",
"36 436 OFFCURVE",
"88 475 OFFCURVE",
"88 556 CURVE SMOOTH",
"88 630 LINE",
"2 630 LINE",
"2 556 LINE SMOOTH",
"2 524 OFFCURVE",
"-18 506 OFFCURVE",
"-47 506 CURVE SMOOTH",
"-81 506 OFFCURVE",
"-98 527 OFFCURVE",
"-98 554 CURVE SMOOTH",
"-98 630 LINE",
"-183 630 LINE",
"-183 357 LINE",
"-323 357 LINE",
"-323 281 LINE"
);
}
);
};
layerId = "55C6F8EE-B60C-49C4-8D15-2255C9205224";
paths = (
{
closed = 1;
nodes = (
"105 281 LINE",
"105 357 LINE",
"-98 357 LINE",
"-98 456 LINE",
"-84 444 OFFCURVE",
"-63 436 OFFCURVE",
"-33 436 CURVE SMOOTH",
"36 436 OFFCURVE",
"88 475 OFFCURVE",
"88 556 CURVE SMOOTH",
"88 630 LINE",
"2 630 LINE",
"2 556 LINE SMOOTH",
"2 524 OFFCURVE",
"-18 506 OFFCURVE",
"-47 506 CURVE SMOOTH",
"-81 506 OFFCURVE",
"-98 527 OFFCURVE",
"-98 554 CURVE SMOOTH",
"-98 630 LINE",
"-183 630 LINE",
"-183 357 LINE",
"-323 357 LINE",
"-323 281 LINE"
);
}
);
width = 135;
}
);
leftKerningGroup = MatraUu.MGondi;
unicode = 11D35;
category = Letter;
},
{
glyphname = MatraVocalicR.MGondi;
lastChange = "2019-11-23 13:39:31 +0000";
layers = (
{
background = {
anchors = (
{
name = _top2;
position = "{-234, 347}";
}
);
};
layerId = "55C6F8EE-B60C-49C4-8D15-2255C9205224";
paths = (
{
closed = 1;
nodes = (
"-170 281 LINE",
"-170 131 LINE SMOOTH",
"-170 53 OFFCURVE",
"-124 6 OFFCURVE",
"-38 6 CURVE SMOOTH",
"44 6 OFFCURVE",
"92 53 OFFCURVE",
"92 131 CURVE SMOOTH",
"92 281 LINE",
"181 281 LINE",
"181 357 LINE",
"-316 357 LINE",
"-316 281 LINE"
);
},
{
closed = 1;
nodes = (
"-82 281 LINE",
"6 281 LINE",
"6 131 LINE SMOOTH",
"6 93 OFFCURVE",
"-11 77 OFFCURVE",
"-38 77 CURVE SMOOTH",
"-69 77 OFFCURVE",
"-82 94 OFFCURVE",
"-82 131 CURVE SMOOTH"
);
}
);
width = 201;
}
);
unicode = 11D36;
},
{
glyphname = MatraE.MGondi;
lastChange = "2019-10-22 12:17:12 +0000";
layers = (
{
background = {
paths = (
{
closed = 1;
nodes = (
"12 281 LINE",
"12 357 LINE",
"-97 357 LINE",
"-97 630 LINE",
"-182 630 LINE",
"-182 357 LINE",
"-312 357 LINE",
"-312 281 LINE"
);
}
);
};
layerId = "55C6F8EE-B60C-49C4-8D15-2255C9205224";
paths = (
{
closed = 1;
nodes = (
"12 281 LINE",
"12 357 LINE",
"-97 357 LINE",
"-97 630 LINE",
"-182 630 LINE",
"-182 357 LINE",
"-312 357 LINE",
"-312 281 LINE"
);
}
);
width = 22;
}
);
leftKerningGroup = MatraE.MGondi;
unicode = 11D3A;
category = Letter;
},
{
glyphname = MatraAi.MGondi;
lastChange = "2019-11-25 14:37:07 +0000";
layers = (
{
background = {
paths = (
{
closed = 1;
nodes = (
"161 281 LINE",
"161 357 LINE",
"64 357 LINE",
"64 630 LINE",
"-16 630 LINE",
"-16 357 LINE",
"-101 357 LINE",
"-101 630 LINE",
"-182 630 LINE",
"-182 357 LINE",
"-312 357 LINE",
"-312 281 LINE"
);
}
);
};
layerId = "55C6F8EE-B60C-49C4-8D15-2255C9205224";
paths = (
{
closed = 1;
nodes = (
"161 281 LINE",
"161 357 LINE",
"64 357 LINE",
"64 630 LINE",
"-16 630 LINE",
"-16 357 LINE",
"-101 357 LINE",
"-101 630 LINE",
"-182 630 LINE",
"-182 357 LINE",
"-312 357 LINE",
"-312 281 LINE"
);
}
);
width = 171;
}
);
leftKerningGroup = MatraAi.MGondi;
unicode = 11D3C;
category = Letter;
},
{
glyphname = MatraO.MGondi;
lastChange = "2019-10-22 12:17:12 +0000";
layers = (
{
background = {
paths = (
{
closed = 1;
nodes = (
"0 428 LINE",
"0 504 LINE",
"-114 504 LINE",
"-114 680 LINE",
"-197 680 LINE",
"-197 504 LINE",
"-334 504 LINE",
"-334 428 LINE"
);
},
{
closed = 1;
nodes = (
"0 281 LINE",
"0 357 LINE",
"-304 357 LINE",
"-304 281 LINE"
);
}
);
};
layerId = "55C6F8EE-B60C-49C4-8D15-2255C9205224";
paths = (
{
closed = 1;
nodes = (
"0 428 LINE",
"0 504 LINE",
"-114 504 LINE",
"-114 680 LINE",
"-197 680 LINE",
"-197 504 LINE",
"-334 504 LINE",
"-334 428 LINE"
);
},
{
closed = 1;
nodes = (
"0 281 LINE",
"0 357 LINE",
"-304 357 LINE",
"-304 281 LINE"
);
}
);
width = 30;
}
);
leftKerningGroup = MatraO.MGondi;
unicode = 11D3D;
category = Letter;
},
{
glyphname = MatraAu.MGondi;
lastChange = "2019-11-25 14:37:11 +0000";
layers = (
{
background = {
paths = (
{
closed = 1;
nodes = (
"125 428 LINE",
"125 504 LINE",
"38 504 LINE",
"38 680 LINE",
"-42 680 LINE",
"-42 504 LINE",
"-117 504 LINE",
"-117 680 LINE",
"-197 680 LINE",
"-197 504 LINE",
"-324 504 LINE",
"-324 428 LINE"
);
},
{
closed = 1;
nodes = (
"125 281 LINE",
"125 357 LINE",
"-294 357 LINE",
"-294 281 LINE"
);
}
);
};
layerId = "55C6F8EE-B60C-49C4-8D15-2255C9205224";
paths = (
{
closed = 1;
nodes = (
"125 428 LINE",
"125 504 LINE",
"38 504 LINE",
"38 680 LINE",
"-42 680 LINE",
"-42 504 LINE",
"-117 504 LINE",
"-117 680 LINE",
"-197 680 LINE",
"-197 504 LINE",
"-324 504 LINE",
"-324 428 LINE"
);
},
{
closed = 1;
nodes = (
"125 281 LINE",
"125 357 LINE",
"-294 357 LINE",
"-294 281 LINE"
);
}
);
width = 155;
}
);
leftKerningGroup = MatraAu.MGondi;
unicode = 11D3F;
category = Letter;
},
{
glyphname = Anusvara.MGondi;
lastChange = "2019-11-23 08:36:15 +0000";
layers = (
{
background = {
paths = (
{
closed = 1;
nodes = (
"11 448 OFFCURVE",
"38 428 OFFCURVE",
"72 428 CURVE SMOOTH",
"106 428 OFFCURVE",
"135 448 OFFCURVE",
"135 496 CURVE SMOOTH",
"135 545 OFFCURVE",
"106 563 OFFCURVE",
"72 563 CURVE SMOOTH",
"38 563 OFFCURVE",
"11 545 OFFCURVE",
"11 496 CURVE SMOOTH"
);
}
);
};
layerId = "55C6F8EE-B60C-49C4-8D15-2255C9205224";
paths = (
{
closed = 1;
nodes = (
"11 448 OFFCURVE",
"38 428 OFFCURVE",
"72 428 CURVE SMOOTH",
"106 428 OFFCURVE",
"135 448 OFFCURVE",
"135 496 CURVE SMOOTH",
"135 545 OFFCURVE",
"106 563 OFFCURVE",
"72 563 CURVE SMOOTH",
"38 563 OFFCURVE",
"11 545 OFFCURVE",
"11 496 CURVE SMOOTH"
);
}
);
width = 200;
}
);
unicode = 11D40;
category = Letter;
},
{
glyphname = Visarga.MGondi;
lastChange = "2019-11-23 12:30:46 +0000";
layers = (
{
background = {
paths = (
{
closed = 1;
nodes = (
"-203 448 OFFCURVE",
"-176 428 OFFCURVE",
"-142 428 CURVE SMOOTH",
"-108 428 OFFCURVE",
"-79 448 OFFCURVE",
"-79 496 CURVE SMOOTH",
"-79 545 OFFCURVE",
"-108 563 OFFCURVE",
"-142 563 CURVE SMOOTH",
"-176 563 OFFCURVE",
"-203 545 OFFCURVE",
"-203 496 CURVE SMOOTH"
);
},
{
closed = 1;
nodes = (
"-14 448 OFFCURVE",
"13 428 OFFCURVE",
"47 428 CURVE SMOOTH",
"81 428 OFFCURVE",
"110 448 OFFCURVE",
"110 496 CURVE SMOOTH",
"110 545 OFFCURVE",
"81 563 OFFCURVE",
"47 563 CURVE SMOOTH",
"13 563 OFFCURVE",
"-14 545 OFFCURVE",
"-14 496 CURVE SMOOTH"
);
}
);
};
layerId = "55C6F8EE-B60C-49C4-8D15-2255C9205224";
paths = (
{
closed = 1;
nodes = (
"-203 448 OFFCURVE",
"-176 428 OFFCURVE",
"-142 428 CURVE SMOOTH",
"-108 428 OFFCURVE",
"-79 448 OFFCURVE",
"-79 496 CURVE SMOOTH",
"-79 545 OFFCURVE",
"-108 563 OFFCURVE",
"-142 563 CURVE SMOOTH",
"-176 563 OFFCURVE",
"-203 545 OFFCURVE",
"-203 496 CURVE SMOOTH"
);
},
{
closed = 1;
nodes = (
"-14 448 OFFCURVE",
"13 428 OFFCURVE",
"47 428 CURVE SMOOTH",
"81 428 OFFCURVE",
"110 448 OFFCURVE",
"110 496 CURVE SMOOTH",
"110 545 OFFCURVE",
"81 563 OFFCURVE",
"47 563 CURVE SMOOTH",
"13 563 OFFCURVE",
"-14 545 OFFCURVE",
"-14 496 CURVE SMOOTH"
);
}
);
width = 155;
}
);
unicode = 11D41;
category = Letter;
},
{
glyphname = Nukta.MGondi;
lastChange = "2019-11-22 16:02:05 +0000";
layers = (
{
anchors = (
{
name = _bottom1;
position = "{-541, -78}";
}
);
background = {
anchors = (
{
name = _bottom1;
position = "{-541, -78}";
}
);
paths = (
{
closed = 1;
nodes = (
"-602 -193 OFFCURVE",
"-575 -213 OFFCURVE",
"-541 -213 CURVE SMOOTH",
"-507 -213 OFFCURVE",
"-478 -193 OFFCURVE",
"-478 -145 CURVE SMOOTH",
"-478 -96 OFFCURVE",
"-507 -78 OFFCURVE",
"-541 -78 CURVE SMOOTH",
"-575 -78 OFFCURVE",
"-602 -96 OFFCURVE",
"-602 -145 CURVE SMOOTH"
);
}
);
};
layerId = "55C6F8EE-B60C-49C4-8D15-2255C9205224";
paths = (
{
closed = 1;
nodes = (
"-602 -193 OFFCURVE",
"-575 -213 OFFCURVE",
"-541 -213 CURVE SMOOTH",
"-507 -213 OFFCURVE",
"-478 -193 OFFCURVE",
"-478 -145 CURVE SMOOTH",
"-478 -96 OFFCURVE",
"-507 -78 OFFCURVE",
"-541 -78 CURVE SMOOTH",
"-575 -78 OFFCURVE",
"-602 -96 OFFCURVE",
"-602 -145 CURVE SMOOTH"
);
}
);
width = 0;
}
);
unicode = 11D42;
category = Mark;
subCategory = Nonspacing;
},
{
glyphname = Chandra.MGondi;
lastChange = "2019-10-22 12:17:12 +0000";
layers = (
{
background = {
paths = (
{
closed = 1;
nodes = (
"-235 490 OFFCURVE",
"-183 435 OFFCURVE",
"-86 435 CURVE SMOOTH",
"11 435 OFFCURVE",
"63 490 OFFCURVE",
"63 579 CURVE",
"-23 579 LINE",
"-23 527 OFFCURVE",
"-48 505 OFFCURVE",
"-86 505 CURVE SMOOTH",
"-124 505 OFFCURVE",
"-149 527 OFFCURVE",
"-149 579 CURVE",
"-235 579 LINE"
);
}
);
};
layerId = "55C6F8EE-B60C-49C4-8D15-2255C9205224";
paths = (
{
closed = 1;
nodes = (
"-235 490 OFFCURVE",
"-183 435 OFFCURVE",
"-86 435 CURVE SMOOTH",
"11 435 OFFCURVE",
"63 490 OFFCURVE",
"63 579 CURVE",
"-23 579 LINE",
"-23 527 OFFCURVE",
"-48 505 OFFCURVE",
"-86 505 CURVE SMOOTH",
"-124 505 OFFCURVE",
"-149 527 OFFCURVE",
"-149 579 CURVE",
"-235 579 LINE"
);
}
);
width = 53;
}
);
unicode = 11D43;
category = Letter;
},
{
glyphname = Halanta.MGondi;
lastChange = "2019-10-22 12:17:12 +0000";
layers = (
{
background = {
paths = (
{
closed = 1;
nodes = (
"-72 10 LINE",
"-21 63 LINE",
"-166 221 LINE",
"-226 159 LINE"
);
}
);
};
layerId = "55C6F8EE-B60C-49C4-8D15-2255C9205224";
paths = (
{
closed = 1;
nodes = (
"-72 10 LINE",
"-21 63 LINE",
"-166 221 LINE",
"-226 159 LINE"
);
}
);
width = 0;
}
);
unicode = 11D44;
},
{
glyphname = Repha.MGondi;
lastChange = "2019-11-23 10:01:33 +0000";
layers = (
{
layerId = "55C6F8EE-B60C-49C4-8D15-2255C9205224";
paths = (
{
closed = 1;
nodes = (
"181 281 LINE",
"181 357 LINE",
"92 357 LINE",
"92 510 LINE SMOOTH",
"92 588 OFFCURVE",
"44 635 OFFCURVE",
"-38 635 CURVE SMOOTH",
"-124 635 OFFCURVE",
"-170 588 OFFCURVE",
"-170 510 CURVE SMOOTH",
"-170 357 LINE",
"-376 357 LINE",
"-376 281 LINE"
);
},
{
closed = 1;
nodes = (
"-82 510 LINE SMOOTH",
"-82 547 OFFCURVE",
"-69 564 OFFCURVE",
"-38 564 CURVE SMOOTH",
"-11 564 OFFCURVE",
"6 548 OFFCURVE",
"6 510 CURVE SMOOTH",
"6 357 LINE",
"-82 357 LINE"
);
}
);
width = 201;
}
);
unicode = 11D46;
category = Letter;
},
{
glyphname = Rakara.MGondi;
lastChange = "2019-10-22 12:17:12 +0000";
layers = (
{
background = {
paths = (
{
closed = 1;
nodes = (
"-182 281 LINE",
"-182 0 LINE",
"-97 0 LINE",
"-97 281 LINE",
"-20 281 LINE",
"-20 357 LINE",
"-312 357 LINE",
"-312 281 LINE"
);
}
);
};
layerId = "55C6F8EE-B60C-49C4-8D15-2255C9205224";
paths = (
{
closed = 1;
nodes = (
"-182 281 LINE",
"-182 0 LINE",
"-97 0 LINE",
"-97 281 LINE",
"-20 281 LINE",
"-20 357 LINE",
"-312 357 LINE",
"-312 281 LINE"
);
}
);
width = 0;
}
);
unicode = 11D47;
category = Letter;
},
{
glyphname = Zero.MGondi;
lastChange = "2019-10-22 12:17:12 +0000";
layers = (
{
background = {
paths = (
{
closed = 1;
nodes = (
"75 125 OFFCURVE",
"168 -10 OFFCURVE",
"326 -10 CURVE SMOOTH",
"491 -10 OFFCURVE",
"584 124 OFFCURVE",
"584 313 CURVE SMOOTH",
"584 503 OFFCURVE",
"490 635 OFFCURVE",
"326 635 CURVE SMOOTH",
"168 635 OFFCURVE",
"75 501 OFFCURVE",
"75 314 CURVE SMOOTH"
);
},
{
closed = 1;
nodes = (
"170 461 OFFCURVE",
"223 556 OFFCURVE",
"326 556 CURVE SMOOTH",
"435 556 OFFCURVE",
"489 461 OFFCURVE",
"489 313 CURVE SMOOTH",
"489 164 OFFCURVE",
"435 68 OFFCURVE",
"326 68 CURVE SMOOTH",
"223 68 OFFCURVE",
"170 165 OFFCURVE",
"170 313 CURVE SMOOTH"
);
}
);
};
layerId = "55C6F8EE-B60C-49C4-8D15-2255C9205224";
paths = (
{
closed = 1;
nodes = (
"75 125 OFFCURVE",
"168 -10 OFFCURVE",
"326 -10 CURVE SMOOTH",
"491 -10 OFFCURVE",
"584 124 OFFCURVE",
"584 313 CURVE SMOOTH",
"584 503 OFFCURVE",
"490 635 OFFCURVE",
"326 635 CURVE SMOOTH",
"168 635 OFFCURVE",
"75 501 OFFCURVE",
"75 314 CURVE SMOOTH"
);
},
{
closed = 1;
nodes = (
"170 461 OFFCURVE",
"223 556 OFFCURVE",
"326 556 CURVE SMOOTH",
"435 556 OFFCURVE",
"489 461 OFFCURVE",
"489 313 CURVE SMOOTH",
"489 164 OFFCURVE",
"435 68 OFFCURVE",
"326 68 CURVE SMOOTH",
"223 68 OFFCURVE",
"170 165 OFFCURVE",
"170 313 CURVE SMOOTH"
);
}
);
width = 659;
}
);
unicode = 11D50;
category = Number;
},
{
glyphname = One.MGondi;
lastChange = "2019-10-22 12:17:12 +0000";
layers = (
{
background = {
paths = (
{
closed = 1;
nodes = (
"90 74 OFFCURVE",
"174 -10 OFFCURVE",
"314 -10 CURVE SMOOTH",
"461 -10 OFFCURVE",
"527 74 OFFCURVE",
"530 206 CURVE",
"442 206 LINE",
"437 106 OFFCURVE",
"389 68 OFFCURVE",
"314 68 CURVE SMOOTH",
"234 68 OFFCURVE",
"185 115 OFFCURVE",
"185 213 CURVE SMOOTH",
"185 630 LINE",
"90 630 LINE",
"90 212 LINE SMOOTH"
);
}
);
};
layerId = "55C6F8EE-B60C-49C4-8D15-2255C9205224";
paths = (
{
closed = 1;
nodes = (
"90 74 OFFCURVE",
"174 -10 OFFCURVE",
"314 -10 CURVE SMOOTH",
"461 -10 OFFCURVE",
"527 74 OFFCURVE",
"530 206 CURVE",
"442 206 LINE",
"437 106 OFFCURVE",
"389 68 OFFCURVE",
"314 68 CURVE SMOOTH",
"234 68 OFFCURVE",
"185 115 OFFCURVE",
"185 213 CURVE SMOOTH",
"185 630 LINE",
"90 630 LINE",
"90 212 LINE SMOOTH"
);
}
);
width = 577;
}
);
unicode = 11D51;
category = Number;
},
{
glyphname = Two.MGondi;
lastChange = "2019-10-22 12:17:12 +0000";
layers = (
{
background = {
paths = (
{
closed = 1;
nodes = (
"90 77 OFFCURVE",
"166 -10 OFFCURVE",
"322 -10 CURVE SMOOTH",
"479 -10 OFFCURVE",
"554 77 OFFCURVE",
"554 221 CURVE SMOOTH",
"554 630 LINE",
"459 630 LINE",
"459 222 LINE SMOOTH",
"459 115 OFFCURVE",
"406 68 OFFCURVE",
"322 68 CURVE SMOOTH",
"238 68 OFFCURVE",
"185 115 OFFCURVE",
"185 222 CURVE SMOOTH",
"185 630 LINE",
"90 630 LINE",
"90 221 LINE SMOOTH"
);
}
);
};
layerId = "55C6F8EE-B60C-49C4-8D15-2255C9205224";
paths = (
{
closed = 1;
nodes = (
"90 77 OFFCURVE",
"166 -10 OFFCURVE",
"322 -10 CURVE SMOOTH",
"479 -10 OFFCURVE",
"554 77 OFFCURVE",
"554 221 CURVE SMOOTH",
"554 630 LINE",
"459 630 LINE",
"459 222 LINE SMOOTH",
"459 115 OFFCURVE",
"406 68 OFFCURVE",
"322 68 CURVE SMOOTH",
"238 68 OFFCURVE",
"185 115 OFFCURVE",
"185 222 CURVE SMOOTH",
"185 630 LINE",
"90 630 LINE",
"90 221 LINE SMOOTH"
);
}
);
width = 644;
}
);
unicode = 11D52;
category = Number;
},
{
glyphname = Three.MGondi;
lastChange = "2019-10-22 12:17:12 +0000";
layers = (
{
background = {
paths = (
{
closed = 1;
nodes = (
"185 0 LINE",
"185 403 LINE SMOOTH",
"185 510 OFFCURVE",
"238 557 OFFCURVE",
"322 557 CURVE SMOOTH",
"406 557 OFFCURVE",
"459 510 OFFCURVE",
"459 403 CURVE SMOOTH",
"459 0 LINE",
"554 0 LINE",
"554 404 LINE SMOOTH",
"554 547 OFFCURVE",
"471 635 OFFCURVE",
"322 635 CURVE SMOOTH",
"170 635 OFFCURVE",
"90 548 OFFCURVE",
"90 404 CURVE SMOOTH",
"90 0 LINE"
);
}
);
};
layerId = "55C6F8EE-B60C-49C4-8D15-2255C9205224";
paths = (
{
closed = 1;
nodes = (
"185 0 LINE",
"185 403 LINE SMOOTH",
"185 510 OFFCURVE",
"238 557 OFFCURVE",
"322 557 CURVE SMOOTH",
"406 557 OFFCURVE",
"459 510 OFFCURVE",
"459 403 CURVE SMOOTH",
"459 0 LINE",
"554 0 LINE",
"554 404 LINE SMOOTH",
"554 547 OFFCURVE",
"471 635 OFFCURVE",
"322 635 CURVE SMOOTH",
"170 635 OFFCURVE",
"90 548 OFFCURVE",
"90 404 CURVE SMOOTH",
"90 0 LINE"
);
}
);
width = 644;
}
);
unicode = 11D53;
category = Number;
},
{
glyphname = Four.MGondi;
lastChange = "2019-10-22 12:17:12 +0000";
layers = (
{
background = {
paths = (
{
closed = 1;
nodes = (
"75 105 OFFCURVE",
"168 -10 OFFCURVE",
"326 -10 CURVE SMOOTH",
"490 -10 OFFCURVE",
"584 104 OFFCURVE",
"584 313 CURVE SMOOTH",
"584 523 OFFCURVE",
"490 635 OFFCURVE",
"326 635 CURVE SMOOTH",
"168 635 OFFCURVE",
"75 521 OFFCURVE",
"75 314 CURVE SMOOTH"
);
},
{
closed = 1;
nodes = (
"488 281 LINE",
"481 151 OFFCURVE",
"427 68 OFFCURVE",
"326 68 CURVE SMOOTH",
"232 68 OFFCURVE",
"178 151 OFFCURVE",
"171 281 CURVE"
);
},
{
closed = 1;
nodes = (
"182 480 OFFCURVE",
"235 556 OFFCURVE",
"326 556 CURVE SMOOTH",
"424 556 OFFCURVE",
"477 480 OFFCURVE",
"487 357 CURVE",
"172 357 LINE"
);
}
);
};
layerId = "55C6F8EE-B60C-49C4-8D15-2255C9205224";
paths = (
{
closed = 1;
nodes = (
"75 105 OFFCURVE",
"168 -10 OFFCURVE",
"326 -10 CURVE SMOOTH",
"490 -10 OFFCURVE",
"584 104 OFFCURVE",
"584 313 CURVE SMOOTH",
"584 523 OFFCURVE",
"490 635 OFFCURVE",
"326 635 CURVE SMOOTH",
"168 635 OFFCURVE",
"75 521 OFFCURVE",
"75 314 CURVE SMOOTH"
);
},
{
closed = 1;
nodes = (
"488 281 LINE",
"481 151 OFFCURVE",
"427 68 OFFCURVE",
"326 68 CURVE SMOOTH",
"232 68 OFFCURVE",
"178 151 OFFCURVE",
"171 281 CURVE"
);
},
{
closed = 1;
nodes = (
"182 480 OFFCURVE",
"235 556 OFFCURVE",
"326 556 CURVE SMOOTH",
"424 556 OFFCURVE",
"477 480 OFFCURVE",
"487 357 CURVE",
"172 357 LINE"
);
}
);
width = 659;
}
);
unicode = 11D54;
category = Number;
},
{
glyphname = Five.MGondi;
lastChange = "2019-10-22 12:17:12 +0000";
layers = (
{
background = {
paths = (
{
closed = 1;
nodes = (
"185 0 LINE",
"185 87 LINE",
"225 77 OFFCURVE",
"272 70 OFFCURVE",
"321 70 CURVE SMOOTH",
"485 70 OFFCURVE",
"555 140 OFFCURVE",
"555 246 CURVE SMOOTH",
"555 306 OFFCURVE",
"509 354 OFFCURVE",
"453 370 CURVE",
"494 389 OFFCURVE",
"525 431 OFFCURVE",
"525 480 CURVE SMOOTH",
"525 568 OFFCURVE",
"453 630 OFFCURVE",
"340 630 CURVE SMOOTH",
"90 630 LINE",
"90 0 LINE"
);
},
{
closed = 1;
nodes = (
"185 326 LINE",
"371 326 LINE SMOOTH",
"422 326 OFFCURVE",
"463 294 OFFCURVE",
"463 244 CURVE SMOOTH",
"463 188 OFFCURVE",
"424 149 OFFCURVE",
"320 149 CURVE SMOOTH",
"268 149 OFFCURVE",
"222 158 OFFCURVE",
"185 170 CURVE"
);
},
{
closed = 1;
nodes = (
"185 554 LINE",
"338 554 LINE SMOOTH",
"402 554 OFFCURVE",
"433 526 OFFCURVE",
"433 470 CURVE SMOOTH",
"433 425 OFFCURVE",
"401 395 OFFCURVE",
"341 395 CURVE SMOOTH",
"185 395 LINE"
);
}
);
};
layerId = "55C6F8EE-B60C-49C4-8D15-2255C9205224";
paths = (
{
closed = 1;
nodes = (
"185 0 LINE",
"185 87 LINE",
"225 77 OFFCURVE",
"272 70 OFFCURVE",
"321 70 CURVE SMOOTH",
"485 70 OFFCURVE",
"555 140 OFFCURVE",
"555 246 CURVE SMOOTH",
"555 306 OFFCURVE",
"509 354 OFFCURVE",
"453 370 CURVE",
"494 389 OFFCURVE",
"525 431 OFFCURVE",
"525 480 CURVE SMOOTH",
"525 568 OFFCURVE",
"453 630 OFFCURVE",
"340 630 CURVE SMOOTH",
"90 630 LINE",
"90 0 LINE"
);
},
{
closed = 1;
nodes = (
"185 326 LINE",
"371 326 LINE SMOOTH",
"422 326 OFFCURVE",
"463 294 OFFCURVE",
"463 244 CURVE SMOOTH",
"463 188 OFFCURVE",
"424 149 OFFCURVE",
"320 149 CURVE SMOOTH",
"268 149 OFFCURVE",
"222 158 OFFCURVE",
"185 170 CURVE"
);
},
{
closed = 1;
nodes = (
"185 554 LINE",
"338 554 LINE SMOOTH",
"402 554 OFFCURVE",
"433 526 OFFCURVE",
"433 470 CURVE SMOOTH",
"433 425 OFFCURVE",
"401 395 OFFCURVE",
"341 395 CURVE SMOOTH",
"185 395 LINE"
);
}
);
width = 635;
}
);
unicode = 11D55;
category = Number;
},
{
glyphname = Six.MGondi;
lastChange = "2019-10-22 12:17:12 +0000";
layers = (
{
background = {
paths = (
{
closed = 1;
nodes = (
"90 52 OFFCURVE",
"152 -6 OFFCURVE",
"247 -6 CURVE SMOOTH",
"315 -6 OFFCURVE",
"364 28 OFFCURVE",
"382 95 CURVE",
"405 28 OFFCURVE",
"452 -6 OFFCURVE",
"521 -6 CURVE SMOOTH",
"614 -6 OFFCURVE",
"674 58 OFFCURVE",
"674 178 CURVE SMOOTH",
"674 488 LINE SMOOTH",
"674 593 OFFCURVE",
"604 635 OFFCURVE",
"533 635 CURVE SMOOTH",
"453 635 OFFCURVE",
"396 576 OFFCURVE",
"396 480 CURVE SMOOTH",
"396 358 OFFCURVE",
"479 300 OFFCURVE",
"579 285 CURVE",
"579 178 LINE SMOOTH",
"579 105 OFFCURVE",
"556 72 OFFCURVE",
"510 72 CURVE SMOOTH",
"462 72 OFFCURVE",
"433 111 OFFCURVE",
"426 188 CURVE SMOOTH",
"420 251 LINE",
"343 251 LINE",
"338 188 LINE SMOOTH",
"332 107 OFFCURVE",
"309 72 OFFCURVE",
"258 72 CURVE SMOOTH",
"210 72 OFFCURVE",
"185 105 OFFCURVE",
"185 178 CURVE SMOOTH",
"187 630 LINE",
"90 630 LINE",
"90 178 LINE SMOOTH"
);
},
{
closed = 1;
nodes = (
"485 535 OFFCURVE",
"507 557 OFFCURVE",
"535 557 CURVE SMOOTH",
"561 557 OFFCURVE",
"584 536 OFFCURVE",
"584 488 CURVE SMOOTH",
"584 360 LINE",
"524 370 OFFCURVE",
"485 410 OFFCURVE",
"485 483 CURVE SMOOTH"
);
}
);
};
layerId = "55C6F8EE-B60C-49C4-8D15-2255C9205224";
paths = (
{
closed = 1;
nodes = (
"90 52 OFFCURVE",
"152 -6 OFFCURVE",
"247 -6 CURVE SMOOTH",
"315 -6 OFFCURVE",
"364 28 OFFCURVE",
"382 95 CURVE",
"405 28 OFFCURVE",
"452 -6 OFFCURVE",
"521 -6 CURVE SMOOTH",
"614 -6 OFFCURVE",
"674 58 OFFCURVE",
"674 178 CURVE SMOOTH",
"674 488 LINE SMOOTH",
"674 593 OFFCURVE",
"604 635 OFFCURVE",
"533 635 CURVE SMOOTH",
"453 635 OFFCURVE",
"396 576 OFFCURVE",
"396 480 CURVE SMOOTH",
"396 358 OFFCURVE",
"479 300 OFFCURVE",
"579 285 CURVE",
"579 178 LINE SMOOTH",
"579 105 OFFCURVE",
"556 72 OFFCURVE",
"510 72 CURVE SMOOTH",
"462 72 OFFCURVE",
"433 111 OFFCURVE",
"426 188 CURVE SMOOTH",
"420 251 LINE",
"343 251 LINE",
"338 188 LINE SMOOTH",
"332 107 OFFCURVE",
"309 72 OFFCURVE",
"258 72 CURVE SMOOTH",
"210 72 OFFCURVE",
"185 105 OFFCURVE",
"185 178 CURVE SMOOTH",
"187 630 LINE",
"90 630 LINE",
"90 178 LINE SMOOTH"
);
},
{
closed = 1;
nodes = (
"485 535 OFFCURVE",
"507 557 OFFCURVE",
"535 557 CURVE SMOOTH",
"561 557 OFFCURVE",
"584 536 OFFCURVE",
"584 488 CURVE SMOOTH",
"584 360 LINE",
"524 370 OFFCURVE",
"485 410 OFFCURVE",
"485 483 CURVE SMOOTH"
);
}
);
width = 764;
}
);
unicode = 11D56;
category = Number;
},
{
glyphname = Seven.MGondi;
lastChange = "2019-10-22 12:17:12 +0000";
layers = (
{
background = {
paths = (
{
closed = 1;
nodes = (
"50 78 OFFCURVE",
"118 -10 OFFCURVE",
"269 -10 CURVE SMOOTH",
"410 -10 OFFCURVE",
"487 74 OFFCURVE",
"487 212 CURVE SMOOTH",
"487 630 LINE",
"392 630 LINE",
"392 213 LINE SMOOTH",
"392 115 OFFCURVE",
"345 68 OFFCURVE",
"269 68 CURVE SMOOTH",
"191 68 OFFCURVE",
"140 109 OFFCURVE",
"135 216 CURVE",
"47 216 LINE"
);
}
);
};
layerId = "55C6F8EE-B60C-49C4-8D15-2255C9205224";
paths = (
{
closed = 1;
nodes = (
"50 78 OFFCURVE",
"118 -10 OFFCURVE",
"269 -10 CURVE SMOOTH",
"410 -10 OFFCURVE",
"487 74 OFFCURVE",
"487 212 CURVE SMOOTH",
"487 630 LINE",
"392 630 LINE",
"392 213 LINE SMOOTH",
"392 115 OFFCURVE",
"345 68 OFFCURVE",
"269 68 CURVE SMOOTH",
"191 68 OFFCURVE",
"140 109 OFFCURVE",
"135 216 CURVE",
"47 216 LINE"
);
}
);
width = 577;
}
);
unicode = 11D57;
category = Number;
},
{
glyphname = Eight.MGondi;
lastChange = "2019-10-22 12:17:12 +0000";
layers = (
{
background = {
paths = (
{
closed = 1;
nodes = (
"65 372 OFFCURVE",
"130 322 OFFCURVE",
"186 280 CURVE SMOOTH",
"275 214 LINE",
"123 0 LINE",
"233 0 LINE",
"393 227 LINE SMOOTH",
"440 294 OFFCURVE",
"509 381 OFFCURVE",
"509 467 CURVE SMOOTH",
"509 564 OFFCURVE",
"436 635 OFFCURVE",
"319 635 CURVE SMOOTH",
"260 635 LINE SMOOTH",
"142 635 OFFCURVE",
"65 565 OFFCURVE",
"65 464 CURVE SMOOTH"
);
},
{
closed = 1;
nodes = (
"158 521 OFFCURVE",
"203 553 OFFCURVE",
"257 556 CURVE SMOOTH",
"276 557 OFFCURVE",
"298 556 OFFCURVE",
"314 556 CURVE SMOOTH",
"377 556 OFFCURVE",
"416 522 OFFCURVE",
"416 463 CURVE SMOOTH",
"416 413 OFFCURVE",
"371 347 OFFCURVE",
"323 281 CURVE",
"238 343 LINE SMOOTH",
"198 373 OFFCURVE",
"158 418 OFFCURVE",
"158 464 CURVE SMOOTH"
);
}
);
};
layerId = "55C6F8EE-B60C-49C4-8D15-2255C9205224";
paths = (
{
closed = 1;
nodes = (
"65 372 OFFCURVE",
"130 322 OFFCURVE",
"186 280 CURVE SMOOTH",
"275 214 LINE",
"123 0 LINE",
"233 0 LINE",
"393 227 LINE SMOOTH",
"440 294 OFFCURVE",
"509 381 OFFCURVE",
"509 467 CURVE SMOOTH",
"509 564 OFFCURVE",
"436 635 OFFCURVE",
"319 635 CURVE SMOOTH",
"260 635 LINE SMOOTH",
"142 635 OFFCURVE",
"65 565 OFFCURVE",
"65 464 CURVE SMOOTH"
);
},
{
closed = 1;
nodes = (
"158 521 OFFCURVE",
"203 553 OFFCURVE",
"257 556 CURVE SMOOTH",
"276 557 OFFCURVE",
"298 556 OFFCURVE",
"314 556 CURVE SMOOTH",
"377 556 OFFCURVE",
"416 522 OFFCURVE",
"416 463 CURVE SMOOTH",
"416 413 OFFCURVE",
"371 347 OFFCURVE",
"323 281 CURVE",
"238 343 LINE SMOOTH",
"198 373 OFFCURVE",
"158 418 OFFCURVE",
"158 464 CURVE SMOOTH"
);
}
);
width = 549;
}
);
unicode = 11D58;
category = Number;
},
{
glyphname = Nine.MGondi;
lastChange = "2019-10-22 12:17:12 +0000";
layers = (
{
background = {
paths = (
{
closed = 1;
nodes = (
"75 94 OFFCURVE",
"188 -10 OFFCURVE",
"340 -10 CURVE SMOOTH",
"469 -10 OFFCURVE",
"538 70 OFFCURVE",
"538 165 CURVE SMOOTH",
"538 274 OFFCURVE",
"451 314 OFFCURVE",
"353 359 CURVE",
"185 426 LINE",
"213 518 OFFCURVE",
"287 556 OFFCURVE",
"355 556 CURVE SMOOTH",
"406 556 OFFCURVE",
"448 541 OFFCURVE",
"477 525 CURVE",
"505 595 LINE",
"469 616 OFFCURVE",
"415 635 OFFCURVE",
"353 635 CURVE SMOOTH",
"206 635 OFFCURVE",
"75 540 OFFCURVE",
"75 303 CURVE SMOOTH"
);
},
{
closed = 1;
nodes = (
"170 314 OFFCURVE",
"170 332 OFFCURVE",
"171 349 CURVE",
"346 275 LINE",
"396 250 OFFCURVE",
"443 229 OFFCURVE",
"443 162 CURVE SMOOTH",
"443 109 OFFCURVE",
"405 69 OFFCURVE",
"340 69 CURVE SMOOTH",
"253 69 OFFCURVE",
"170 132 OFFCURVE",
"170 298 CURVE SMOOTH"
);
}
);
};
layerId = "55C6F8EE-B60C-49C4-8D15-2255C9205224";
paths = (
{
closed = 1;
nodes = (
"75 94 OFFCURVE",
"188 -10 OFFCURVE",
"340 -10 CURVE SMOOTH",
"469 -10 OFFCURVE",
"538 70 OFFCURVE",
"538 165 CURVE SMOOTH",
"538 274 OFFCURVE",
"451 314 OFFCURVE",
"353 359 CURVE",
"185 426 LINE",
"213 518 OFFCURVE",
"287 556 OFFCURVE",
"355 556 CURVE SMOOTH",
"406 556 OFFCURVE",
"448 541 OFFCURVE",
"477 525 CURVE",
"505 595 LINE",
"469 616 OFFCURVE",
"415 635 OFFCURVE",
"353 635 CURVE SMOOTH",
"206 635 OFFCURVE",
"75 540 OFFCURVE",
"75 303 CURVE SMOOTH"
);
},
{
closed = 1;
nodes = (
"170 314 OFFCURVE",
"170 332 OFFCURVE",
"171 349 CURVE",
"346 275 LINE",
"396 250 OFFCURVE",
"443 229 OFFCURVE",
"443 162 CURVE SMOOTH",
"443 109 OFFCURVE",
"405 69 OFFCURVE",
"340 69 CURVE SMOOTH",
"253 69 OFFCURVE",
"170 132 OFFCURVE",
"170 298 CURVE SMOOTH"
);
}
);
width = 583;
}
);
unicode = 11D59;
category = Number;
},
{
glyphname = KaHalf.MGondi;
lastChange = "2019-11-23 13:31:22 +0000";
layers = (
{
background = {
paths = (
{
closed = 1;
nodes = (
"75 125 OFFCURVE",
"168 -10 OFFCURVE",
"326 -10 CURVE SMOOTH",
"491 -10 OFFCURVE",
"584 124 OFFCURVE",
"584 313 CURVE SMOOTH",
"584 503 OFFCURVE",
"490 635 OFFCURVE",
"326 635 CURVE SMOOTH",
"168 635 OFFCURVE",
"75 501 OFFCURVE",
"75 314 CURVE SMOOTH"
);
},
{
closed = 1;
nodes = (
"170 461 OFFCURVE",
"223 556 OFFCURVE",
"326 556 CURVE SMOOTH",
"435 556 OFFCURVE",
"489 461 OFFCURVE",
"489 313 CURVE SMOOTH",
"489 164 OFFCURVE",
"435 68 OFFCURVE",
"326 68 CURVE SMOOTH",
"223 68 OFFCURVE",
"170 165 OFFCURVE",
"170 313 CURVE SMOOTH"
);
}
);
};
layerId = "55C6F8EE-B60C-49C4-8D15-2255C9205224";
paths = (
{
closed = 1;
nodes = (
"75 125 OFFCURVE",
"168 -10 OFFCURVE",
"326 -10 CURVE SMOOTH",
"491 -10 OFFCURVE",
"584 124 OFFCURVE",
"584 313 CURVE SMOOTH",
"584 503 OFFCURVE",
"490 635 OFFCURVE",
"326 635 CURVE SMOOTH",
"168 635 OFFCURVE",
"75 501 OFFCURVE",
"75 314 CURVE SMOOTH"
);
},
{
closed = 1;
nodes = (
"170 461 OFFCURVE",
"223 556 OFFCURVE",
"326 556 CURVE SMOOTH",
"435 556 OFFCURVE",
"489 461 OFFCURVE",
"489 313 CURVE SMOOTH",
"489 164 OFFCURVE",
"435 68 OFFCURVE",
"326 68 CURVE SMOOTH",
"223 68 OFFCURVE",
"170 165 OFFCURVE",
"170 313 CURVE SMOOTH"
);
}
);
width = 659;
}
);
leftMetricsKey = Ka.MGondi;
rightKerningGroup = KaHalf.MGondi;
},
{
glyphname = KhaHalf.MGondi;
lastChange = "2019-11-23 13:31:34 +0000";
layers = (
{
background = {
paths = (
{
closed = 1;
nodes = (
"75 65 OFFCURVE",
"162 -10 OFFCURVE",
"285 -10 CURVE SMOOTH",
"407 -10 OFFCURVE",
"494 60 OFFCURVE",
"494 168 CURVE SMOOTH",
"494 259 OFFCURVE",
"437 309 OFFCURVE",
"389 326 CURVE",
"431 341 OFFCURVE",
"483 387 OFFCURVE",
"483 465 CURVE SMOOTH",
"483 564 OFFCURVE",
"402 635 OFFCURVE",
"287 635 CURVE SMOOTH",
"171 635 OFFCURVE",
"88 565 OFFCURVE",
"88 466 CURVE SMOOTH",
"88 386 OFFCURVE",
"141 340 OFFCURVE",
"184 327 CURVE",
"139 312 OFFCURVE",
"75 264 OFFCURVE",
"75 169 CURVE SMOOTH"
);
},
{
closed = 1;
nodes = (
"170 239 OFFCURVE",
"213 285 OFFCURVE",
"286 285 CURVE SMOOTH",
"360 285 OFFCURVE",
"399 239 OFFCURVE",
"399 175 CURVE SMOOTH",
"399 112 OFFCURVE",
"357 68 OFFCURVE",
"285 68 CURVE SMOOTH",
"213 68 OFFCURVE",
"170 112 OFFCURVE",
"170 175 CURVE SMOOTH"
);
},
{
closed = 1;
nodes = (
"183 516 OFFCURVE",
"221 556 OFFCURVE",
"287 556 CURVE SMOOTH",
"353 556 OFFCURVE",
"388 516 OFFCURVE",
"388 459 CURVE SMOOTH",
"388 404 OFFCURVE",
"351 364 OFFCURVE",
"286 364 CURVE SMOOTH",
"221 364 OFFCURVE",
"183 404 OFFCURVE",
"183 459 CURVE SMOOTH"
);
}
);
};
layerId = "55C6F8EE-B60C-49C4-8D15-2255C9205224";
paths = (
{
closed = 1;
nodes = (
"75 65 OFFCURVE",
"162 -10 OFFCURVE",
"285 -10 CURVE SMOOTH",
"407 -10 OFFCURVE",
"494 60 OFFCURVE",
"494 168 CURVE SMOOTH",
"494 259 OFFCURVE",
"437 309 OFFCURVE",
"389 326 CURVE",
"431 341 OFFCURVE",
"483 387 OFFCURVE",
"483 465 CURVE SMOOTH",
"483 564 OFFCURVE",
"402 635 OFFCURVE",
"287 635 CURVE SMOOTH",
"171 635 OFFCURVE",
"88 565 OFFCURVE",
"88 466 CURVE SMOOTH",
"88 386 OFFCURVE",
"141 340 OFFCURVE",
"184 327 CURVE",
"139 312 OFFCURVE",
"75 264 OFFCURVE",
"75 169 CURVE SMOOTH"
);
},
{
closed = 1;
nodes = (
"170 239 OFFCURVE",
"213 285 OFFCURVE",
"286 285 CURVE SMOOTH",
"360 285 OFFCURVE",
"399 239 OFFCURVE",
"399 175 CURVE SMOOTH",
"399 112 OFFCURVE",
"357 68 OFFCURVE",
"285 68 CURVE SMOOTH",
"213 68 OFFCURVE",
"170 112 OFFCURVE",
"170 175 CURVE SMOOTH"
);
},
{
closed = 1;
nodes = (
"183 516 OFFCURVE",
"221 556 OFFCURVE",
"287 556 CURVE SMOOTH",
"353 556 OFFCURVE",
"388 516 OFFCURVE",
"388 459 CURVE SMOOTH",
"388 404 OFFCURVE",
"351 364 OFFCURVE",
"286 364 CURVE SMOOTH",
"221 364 OFFCURVE",
"183 404 OFFCURVE",
"183 459 CURVE SMOOTH"
);
}
);
width = 569;
}
);
leftMetricsKey = Kha.MGondi;
rightKerningGroup = KhaHalf.MGondi;
},
{
glyphname = GaHalf.MGondi;
lastChange = "2019-11-23 13:31:44 +0000";
layers = (
{
background = {
paths = (
{
closed = 1;
nodes = (
"185 0 LINE",
"185 630 LINE",
"90 630 LINE",
"90 0 LINE"
);
}
);
};
layerId = "55C6F8EE-B60C-49C4-8D15-2255C9205224";
paths = (
{
closed = 1;
nodes = (
"185 0 LINE",
"185 630 LINE",
"90 630 LINE",
"90 0 LINE"
);
}
);
width = 275;
}
);
leftMetricsKey = Ga.MGondi;
rightKerningGroup = GaHalf.MGondi;
},
{
glyphname = GhaHalf.MGondi;
lastChange = "2019-10-22 12:17:12 +0000";
layers = (
{
background = {
paths = (
{
closed = 1;
nodes = (
"75 100 OFFCURVE",
"168 -10 OFFCURVE",
"341 -10 CURVE SMOOTH",
"411 -10 OFFCURVE",
"462 6 OFFCURVE",
"510 39 CURVE",
"474 107 LINE",
"433 84 OFFCURVE",
"394 69 OFFCURVE",
"341 69 CURVE SMOOTH",
"235 69 OFFCURVE",
"170 147 OFFCURVE",
"170 312 CURVE SMOOTH",
"170 464 OFFCURVE",
"236 556 OFFCURVE",
"341 556 CURVE SMOOTH",
"391 556 OFFCURVE",
"432 536 OFFCURVE",
"469 507 CURVE",
"505 583 LINE",
"457 618 OFFCURVE",
"406 635 OFFCURVE",
"341 635 CURVE SMOOTH",
"169 635 OFFCURVE",
"75 501 OFFCURVE",
"75 313 CURVE SMOOTH"
);
}
);
};
layerId = "55C6F8EE-B60C-49C4-8D15-2255C9205224";
paths = (
{
closed = 1;
nodes = (
"75 100 OFFCURVE",
"168 -10 OFFCURVE",
"341 -10 CURVE SMOOTH",
"411 -10 OFFCURVE",
"462 6 OFFCURVE",
"510 39 CURVE",
"474 107 LINE",
"433 84 OFFCURVE",
"394 69 OFFCURVE",
"341 69 CURVE SMOOTH",
"235 69 OFFCURVE",
"170 147 OFFCURVE",
"170 312 CURVE SMOOTH",
"170 464 OFFCURVE",
"236 556 OFFCURVE",
"341 556 CURVE SMOOTH",
"391 556 OFFCURVE",
"432 536 OFFCURVE",
"469 507 CURVE",
"505 583 LINE",
"457 618 OFFCURVE",
"406 635 OFFCURVE",
"341 635 CURVE SMOOTH",
"169 635 OFFCURVE",
"75 501 OFFCURVE",
"75 313 CURVE SMOOTH"
);
}
);
width = 575;
}
);
leftKerningGroup = Ka.MGondi;
leftMetricsKey = Ka.MGondi;
},
{
glyphname = NgaHalf.MGondi;
lastChange = "2019-10-22 12:17:12 +0000";
layers = (
{
background = {
paths = (
{
closed = 1;
nodes = (
"114 32 OFFCURVE",
"192 -10 OFFCURVE",
"305 -10 CURVE SMOOTH",
"452 -10 OFFCURVE",
"536 61 OFFCURVE",
"536 174 CURVE SMOOTH",
"536 269 OFFCURVE",
"467 323 OFFCURVE",
"346 357 CURVE SMOOTH",
"296 371 LINE SMOOTH",
"218 393 OFFCURVE",
"190 420 OFFCURVE",
"190 469 CURVE SMOOTH",
"190 524 OFFCURVE",
"235 556 OFFCURVE",
"305 556 CURVE SMOOTH",
"366 556 OFFCURVE",
"414 528 OFFCURVE",
"453 495 CURVE",
"500 558 LINE",
"463 597 OFFCURVE",
"389 635 OFFCURVE",
"305 635 CURVE SMOOTH",
"183 635 OFFCURVE",
"99 573 OFFCURVE",
"99 467 CURVE SMOOTH",
"99 371 OFFCURVE",
"171 325 OFFCURVE",
"268 298 CURVE SMOOTH",
"335 279 LINE SMOOTH",
"428 253 OFFCURVE",
"446 214 OFFCURVE",
"446 171 CURVE SMOOTH",
"446 106 OFFCURVE",
"397 68 OFFCURVE",
"305 68 CURVE SMOOTH",
"229 68 OFFCURVE",
"176 96 OFFCURVE",
"125 140 CURVE",
"70 75 LINE"
);
},
{
closed = 1;
nodes = (
"547 432 OFFCURVE",
"574 412 OFFCURVE",
"608 412 CURVE SMOOTH",
"642 412 OFFCURVE",
"671 432 OFFCURVE",
"671 480 CURVE SMOOTH",
"671 529 OFFCURVE",
"642 547 OFFCURVE",
"608 547 CURVE SMOOTH",
"574 547 OFFCURVE",
"547 529 OFFCURVE",
"547 480 CURVE SMOOTH"
);
}
);
};
layerId = "55C6F8EE-B60C-49C4-8D15-2255C9205224";
paths = (
{
closed = 1;
nodes = (
"114 32 OFFCURVE",
"192 -10 OFFCURVE",
"305 -10 CURVE SMOOTH",
"452 -10 OFFCURVE",
"536 61 OFFCURVE",
"536 174 CURVE SMOOTH",
"536 269 OFFCURVE",
"467 323 OFFCURVE",
"346 357 CURVE SMOOTH",
"296 371 LINE SMOOTH",
"218 393 OFFCURVE",
"190 420 OFFCURVE",
"190 469 CURVE SMOOTH",
"190 524 OFFCURVE",
"235 556 OFFCURVE",
"305 556 CURVE SMOOTH",
"366 556 OFFCURVE",
"414 528 OFFCURVE",
"453 495 CURVE",
"500 558 LINE",
"463 597 OFFCURVE",
"389 635 OFFCURVE",
"305 635 CURVE SMOOTH",
"183 635 OFFCURVE",
"99 573 OFFCURVE",
"99 467 CURVE SMOOTH",
"99 371 OFFCURVE",
"171 325 OFFCURVE",
"268 298 CURVE SMOOTH",
"335 279 LINE SMOOTH",
"428 253 OFFCURVE",
"446 214 OFFCURVE",
"446 171 CURVE SMOOTH",
"446 106 OFFCURVE",
"397 68 OFFCURVE",
"305 68 CURVE SMOOTH",
"229 68 OFFCURVE",
"176 96 OFFCURVE",
"125 140 CURVE",
"70 75 LINE"
);
},
{
closed = 1;
nodes = (
"547 432 OFFCURVE",
"574 412 OFFCURVE",
"608 412 CURVE SMOOTH",
"642 412 OFFCURVE",
"671 432 OFFCURVE",
"671 480 CURVE SMOOTH",
"671 529 OFFCURVE",
"642 547 OFFCURVE",
"608 547 CURVE SMOOTH",
"574 547 OFFCURVE",
"547 529 OFFCURVE",
"547 480 CURVE SMOOTH"
);
}
);
width = 680;
}
);
leftMetricsKey = Nga.MGondi;
},
{
glyphname = CaHalf.MGondi;
lastChange = "2019-10-22 12:17:12 +0000";
layers = (
{
background = {
paths = (
{
closed = 1;
nodes = (
"101 507 LINE",
"142 536 OFFCURVE",
"187 556 OFFCURVE",
"243 556 CURVE SMOOTH",
"359 556 OFFCURVE",
"430 464 OFFCURVE",
"430 312 CURVE SMOOTH",
"430 163 OFFCURVE",
"366 69 OFFCURVE",
"243 69 CURVE SMOOTH",
"186 69 OFFCURVE",
"143 89 OFFCURVE",
"102 118 CURVE",
"66 42 LINE",
"114 7 OFFCURVE",
"173 -10 OFFCURVE",
"243 -10 CURVE SMOOTH",
"432 -10 OFFCURVE",
"525 116 OFFCURVE",
"525 313 CURVE SMOOTH",
"525 503 OFFCURVE",
"425 635 OFFCURVE",
"243 635 CURVE SMOOTH",
"172 635 OFFCURVE",
"113 618 OFFCURVE",
"65 583 CURVE"
);
}
);
};
layerId = "55C6F8EE-B60C-49C4-8D15-2255C9205224";
paths = (
{
closed = 1;
nodes = (
"101 507 LINE",
"142 536 OFFCURVE",
"187 556 OFFCURVE",
"243 556 CURVE SMOOTH",
"359 556 OFFCURVE",
"430 464 OFFCURVE",
"430 312 CURVE SMOOTH",
"430 163 OFFCURVE",
"366 69 OFFCURVE",
"243 69 CURVE SMOOTH",
"186 69 OFFCURVE",
"143 89 OFFCURVE",
"102 118 CURVE",
"66 42 LINE",
"114 7 OFFCURVE",
"173 -10 OFFCURVE",
"243 -10 CURVE SMOOTH",
"432 -10 OFFCURVE",
"525 116 OFFCURVE",
"525 313 CURVE SMOOTH",
"525 503 OFFCURVE",
"425 635 OFFCURVE",
"243 635 CURVE SMOOTH",
"172 635 OFFCURVE",
"113 618 OFFCURVE",
"65 583 CURVE"
);
}
);
width = 600;
}
);
leftKerningGroup = Ca.MGondi;
leftMetricsKey = Ca.MGondi;
},
{
glyphname = ChaHalf.MGondi;
lastChange = "2019-10-22 12:17:12 +0000";
layers = (
{
background = {
components = (
{
name = CaHalf.MGondi;
}
);
paths = (
{
closed = 1;
nodes = (
"498 281 LINE",
"498 357 LINE",
"177 357 LINE",
"177 281 LINE"
);
}
);
};
components = (
{
name = CaHalf.MGondi;
}
);
layerId = "55C6F8EE-B60C-49C4-8D15-2255C9205224";
paths = (
{
closed = 1;
nodes = (
"498 281 LINE",
"498 357 LINE",
"177 357 LINE",
"177 281 LINE"
);
}
);
width = 600;
}
);
leftMetricsKey = Cha.MGondi;
},
{
glyphname = JaHalf.MGondi;
lastChange = "2019-11-23 13:31:52 +0000";
layers = (
{
background = {
paths = (
{
closed = 1;
nodes = (
"75 125 OFFCURVE",
"172 -10 OFFCURVE",
"336 -10 CURVE SMOOTH",
"506 -10 OFFCURVE",
"604 124 OFFCURVE",
"604 313 CURVE SMOOTH",
"604 503 OFFCURVE",
"506 635 OFFCURVE",
"336 635 CURVE SMOOTH",
"172 635 OFFCURVE",
"75 501 OFFCURVE",
"75 314 CURVE SMOOTH"
);
},
{
closed = 1;
nodes = (
"170 436 OFFCURVE",
"209 522 OFFCURVE",
"285 548 CURVE",
"281 528 OFFCURVE",
"278 508 OFFCURVE",
"279 489 CURVE SMOOTH",
"283 335 OFFCURVE",
"383 282 OFFCURVE",
"503 282 CURVE SMOOTH",
"508 282 LINE",
"501 152 OFFCURVE",
"444 68 OFFCURVE",
"336 68 CURVE SMOOTH",
"227 68 OFFCURVE",
"170 165 OFFCURVE",
"170 313 CURVE SMOOTH"
);
},
{
closed = 1;
nodes = (
"369 518 OFFCURVE",
"372 537 OFFCURVE",
"376 552 CURVE",
"455 534 OFFCURVE",
"498 463 OFFCURVE",
"507 357 CURVE",
"492 357 LINE SMOOTH",
"419 357 OFFCURVE",
"369 406 OFFCURVE",
"369 499 CURVE SMOOTH"
);
}
);
};
layerId = "55C6F8EE-B60C-49C4-8D15-2255C9205224";
paths = (
{
closed = 1;
nodes = (
"75 125 OFFCURVE",
"172 -10 OFFCURVE",
"336 -10 CURVE SMOOTH",
"506 -10 OFFCURVE",
"604 124 OFFCURVE",
"604 313 CURVE SMOOTH",
"604 503 OFFCURVE",
"506 635 OFFCURVE",
"336 635 CURVE SMOOTH",
"172 635 OFFCURVE",
"75 501 OFFCURVE",
"75 314 CURVE SMOOTH"
);
},
{
closed = 1;
nodes = (
"170 436 OFFCURVE",
"209 522 OFFCURVE",
"285 548 CURVE",
"281 528 OFFCURVE",
"278 508 OFFCURVE",
"279 489 CURVE SMOOTH",
"283 335 OFFCURVE",
"383 282 OFFCURVE",
"503 282 CURVE SMOOTH",
"508 282 LINE",
"501 152 OFFCURVE",
"444 68 OFFCURVE",
"336 68 CURVE SMOOTH",
"227 68 OFFCURVE",
"170 165 OFFCURVE",
"170 313 CURVE SMOOTH"
);
},
{
closed = 1;
nodes = (
"369 518 OFFCURVE",
"372 537 OFFCURVE",
"376 552 CURVE",
"455 534 OFFCURVE",
"498 463 OFFCURVE",
"507 357 CURVE",
"492 357 LINE SMOOTH",
"419 357 OFFCURVE",
"369 406 OFFCURVE",
"369 499 CURVE SMOOTH"
);
}
);
width = 679;
}
);
leftKerningGroup = Ka.MGondi;
leftMetricsKey = KaHalf.MGondi;
rightKerningGroup = KaHalf.MGondi;
},
{
glyphname = JhaHalf.MGondi;
lastChange = "2019-10-22 12:17:12 +0000";
layers = (
{
background = {
paths = (
{
closed = 1;
nodes = (
"182 -1 LINE",
"180 451 LINE",
"180 524 OFFCURVE",
"208 557 OFFCURVE",
"256 557 CURVE SMOOTH",
"301 557 OFFCURVE",
"327 522 OFFCURVE",
"333 441 CURVE SMOOTH",
"338 358 LINE",
"415 358 LINE",
"421 441 LINE SMOOTH",
"428 518 OFFCURVE",
"454 557 OFFCURVE",
"501 557 CURVE SMOOTH",
"548 557 OFFCURVE",
"574 524 OFFCURVE",
"574 451 CURVE SMOOTH",
"574 -1 LINE",
"669 -1 LINE",
"669 451 LINE SMOOTH",
"670 571 OFFCURVE",
"612 635 OFFCURVE",
"518 635 CURVE SMOOTH",
"449 635 OFFCURVE",
"400 601 OFFCURVE",
"377 534 CURVE",
"359 601 OFFCURVE",
"309 635 OFFCURVE",
"241 635 CURVE SMOOTH",
"146 635 OFFCURVE",
"85 577 OFFCURVE",
"85 451 CURVE SMOOTH",
"85 -1 LINE"
);
}
);
};
layerId = "55C6F8EE-B60C-49C4-8D15-2255C9205224";
paths = (
{
closed = 1;
nodes = (
"182 -1 LINE",
"180 451 LINE",
"180 524 OFFCURVE",
"208 557 OFFCURVE",
"256 557 CURVE SMOOTH",
"301 557 OFFCURVE",
"327 522 OFFCURVE",
"333 441 CURVE SMOOTH",
"338 358 LINE",
"415 358 LINE",
"421 441 LINE SMOOTH",
"428 518 OFFCURVE",
"454 557 OFFCURVE",
"501 557 CURVE SMOOTH",
"548 557 OFFCURVE",
"574 524 OFFCURVE",
"574 451 CURVE SMOOTH",
"574 -1 LINE",
"669 -1 LINE",
"669 451 LINE SMOOTH",
"670 571 OFFCURVE",
"612 635 OFFCURVE",
"518 635 CURVE SMOOTH",
"449 635 OFFCURVE",
"400 601 OFFCURVE",
"377 534 CURVE",
"359 601 OFFCURVE",
"309 635 OFFCURVE",
"241 635 CURVE SMOOTH",
"146 635 OFFCURVE",
"85 577 OFFCURVE",
"85 451 CURVE SMOOTH",
"85 -1 LINE"
);
}
);
width = 754;
}
);
leftMetricsKey = Jha.MGondi;
},
{
glyphname = NyaHalf.MGondi;
lastChange = "2019-10-22 12:17:12 +0000";
layers = (
{
background = {
paths = (
{
closed = 1;
nodes = (
"154 444 LINE",
"154 0 LINE",
"249 0 LINE",
"249 444 LINE",
"277 444 LINE SMOOTH",
"374 444 OFFCURVE",
"430 493 OFFCURVE",
"430 570 CURVE SMOOTH",
"430 639 OFFCURVE",
"382 697 OFFCURVE",
"292 697 CURVE SMOOTH",
"207 697 OFFCURVE",
"154 644 OFFCURVE",
"154 573 CURVE SMOOTH",
"154 518 LINE",
"30 518 LINE",
"30 444 LINE"
);
},
{
closed = 1;
nodes = (
"249 573 LINE SMOOTH",
"249 606 OFFCURVE",
"268 623 OFFCURVE",
"295 623 CURVE SMOOTH",
"325 623 OFFCURVE",
"344 603 OFFCURVE",
"344 572 CURVE SMOOTH",
"344 544 OFFCURVE",
"326 518 OFFCURVE",
"279 518 CURVE SMOOTH",
"249 518 LINE"
);
}
);
};
layerId = "55C6F8EE-B60C-49C4-8D15-2255C9205224";
paths = (
{
closed = 1;
nodes = (
"154 444 LINE",
"154 0 LINE",
"249 0 LINE",
"249 444 LINE",
"277 444 LINE SMOOTH",
"374 444 OFFCURVE",
"430 493 OFFCURVE",
"430 570 CURVE SMOOTH",
"430 639 OFFCURVE",
"382 697 OFFCURVE",
"292 697 CURVE SMOOTH",
"207 697 OFFCURVE",
"154 644 OFFCURVE",
"154 573 CURVE SMOOTH",
"154 518 LINE",
"30 518 LINE",
"30 444 LINE"
);
},
{
closed = 1;
nodes = (
"249 573 LINE SMOOTH",
"249 606 OFFCURVE",
"268 623 OFFCURVE",
"295 623 CURVE SMOOTH",
"325 623 OFFCURVE",
"344 603 OFFCURVE",
"344 572 CURVE SMOOTH",
"344 544 OFFCURVE",
"326 518 OFFCURVE",
"279 518 CURVE SMOOTH",
"249 518 LINE"
);
}
);
width = 470;
}
);
leftKerningGroup = Nya.MGondi;
leftMetricsKey = Nya.MGondi;
},
{
glyphname = TtaHalf.MGondi;
lastChange = "2019-10-22 12:17:12 +0000";
layers = (
{
background = {
paths = (
{
closed = 1;
nodes = (
"90 82 OFFCURVE",
"168 -5 OFFCURVE",
"317 -5 CURVE SMOOTH",
"463 -5 OFFCURVE",
"544 83 OFFCURVE",
"544 226 CURVE SMOOTH",
"544 357 LINE",
"449 357 LINE",
"449 227 LINE SMOOTH",
"449 120 OFFCURVE",
"398 73 OFFCURVE",
"317 73 CURVE SMOOTH",
"236 73 OFFCURVE",
"185 120 OFFCURVE",
"185 227 CURVE SMOOTH",
"185 630 LINE",
"90 630 LINE",
"90 226 LINE SMOOTH"
);
}
);
};
layerId = "55C6F8EE-B60C-49C4-8D15-2255C9205224";
paths = (
{
closed = 1;
nodes = (
"90 82 OFFCURVE",
"168 -5 OFFCURVE",
"317 -5 CURVE SMOOTH",
"463 -5 OFFCURVE",
"544 83 OFFCURVE",
"544 226 CURVE SMOOTH",
"544 357 LINE",
"449 357 LINE",
"449 227 LINE SMOOTH",
"449 120 OFFCURVE",
"398 73 OFFCURVE",
"317 73 CURVE SMOOTH",
"236 73 OFFCURVE",
"185 120 OFFCURVE",
"185 227 CURVE SMOOTH",
"185 630 LINE",
"90 630 LINE",
"90 226 LINE SMOOTH"
);
}
);
width = 624;
}
);
leftKerningGroup = Tta.MGondi;
leftMetricsKey = Tta.MGondi;
},
{
glyphname = TthaHalf.MGondi;
lastChange = "2019-10-22 12:17:12 +0000";
layers = (
{
background = {
paths = (
{
closed = 1;
nodes = (
"198 281 LINE",
"198 0 LINE",
"293 0 LINE",
"293 630 LINE",
"198 630 LINE",
"198 357 LINE",
"60 357 LINE",
"60 281 LINE"
);
}
);
};
layerId = "55C6F8EE-B60C-49C4-8D15-2255C9205224";
paths = (
{
closed = 1;
nodes = (
"198 281 LINE",
"198 0 LINE",
"293 0 LINE",
"293 630 LINE",
"198 630 LINE",
"198 357 LINE",
"60 357 LINE",
"60 281 LINE"
);
}
);
width = 373;
}
);
leftMetricsKey = Ttha.MGondi;
},
{
glyphname = DdaHalf.MGondi;
lastChange = "2019-11-23 13:32:07 +0000";
layers = (
{
background = {
paths = (
{
closed = 1;
nodes = (
"114 32 OFFCURVE",
"192 -10 OFFCURVE",
"305 -10 CURVE SMOOTH",
"452 -10 OFFCURVE",
"536 61 OFFCURVE",
"536 174 CURVE SMOOTH",
"536 269 OFFCURVE",
"467 323 OFFCURVE",
"346 357 CURVE SMOOTH",
"296 371 LINE SMOOTH",
"218 393 OFFCURVE",
"190 420 OFFCURVE",
"190 469 CURVE SMOOTH",
"190 524 OFFCURVE",
"235 556 OFFCURVE",
"305 556 CURVE SMOOTH",
"366 556 OFFCURVE",
"414 528 OFFCURVE",
"453 495 CURVE",
"500 558 LINE",
"463 597 OFFCURVE",
"389 635 OFFCURVE",
"305 635 CURVE SMOOTH",
"183 635 OFFCURVE",
"99 573 OFFCURVE",
"99 467 CURVE SMOOTH",
"99 371 OFFCURVE",
"171 325 OFFCURVE",
"268 298 CURVE SMOOTH",
"335 279 LINE SMOOTH",
"428 253 OFFCURVE",
"446 214 OFFCURVE",
"446 171 CURVE SMOOTH",
"446 106 OFFCURVE",
"397 68 OFFCURVE",
"305 68 CURVE SMOOTH",
"229 68 OFFCURVE",
"176 96 OFFCURVE",
"125 140 CURVE",
"70 75 LINE"
);
}
);
};
layerId = "55C6F8EE-B60C-49C4-8D15-2255C9205224";
paths = (
{
closed = 1;
nodes = (
"114 32 OFFCURVE",
"192 -10 OFFCURVE",
"305 -10 CURVE SMOOTH",
"452 -10 OFFCURVE",
"536 61 OFFCURVE",
"536 174 CURVE SMOOTH",
"536 269 OFFCURVE",
"467 323 OFFCURVE",
"346 357 CURVE SMOOTH",
"296 371 LINE SMOOTH",
"218 393 OFFCURVE",
"190 420 OFFCURVE",
"190 469 CURVE SMOOTH",
"190 524 OFFCURVE",
"235 556 OFFCURVE",
"305 556 CURVE SMOOTH",
"366 556 OFFCURVE",
"414 528 OFFCURVE",
"453 495 CURVE",
"500 558 LINE",
"463 597 OFFCURVE",
"389 635 OFFCURVE",
"305 635 CURVE SMOOTH",
"183 635 OFFCURVE",
"99 573 OFFCURVE",
"99 467 CURVE SMOOTH",
"99 371 OFFCURVE",
"171 325 OFFCURVE",
"268 298 CURVE SMOOTH",
"335 279 LINE SMOOTH",
"428 253 OFFCURVE",
"446 214 OFFCURVE",
"446 171 CURVE SMOOTH",
"446 106 OFFCURVE",
"397 68 OFFCURVE",
"305 68 CURVE SMOOTH",
"229 68 OFFCURVE",
"176 96 OFFCURVE",
"125 140 CURVE",
"70 75 LINE"
);
}
);
width = 630;
}
);
leftKerningGroup = Nga.MGondi;
leftMetricsKey = Dda.MGondi;
rightKerningGroup = DdaHalf.MGondi;
},
{
glyphname = DdhaHalf.MGondi;
lastChange = "2019-11-23 13:32:32 +0000";
layers = (
{
background = {
paths = (
{
closed = 1;
nodes = (
"185 0 LINE",
"185 393 LINE SMOOTH",
"185 507 OFFCURVE",
"248 557 OFFCURVE",
"332 557 CURVE SMOOTH",
"422 557 OFFCURVE",
"479 507 OFFCURVE",
"479 393 CURVE SMOOTH",
"479 0 LINE",
"574 0 LINE",
"574 394 LINE SMOOTH",
"574 544 OFFCURVE",
"487 635 OFFCURVE",
"332 635 CURVE SMOOTH",
"173 635 OFFCURVE",
"90 544 OFFCURVE",
"90 394 CURVE SMOOTH",
"90 0 LINE"
);
},
{
closed = 1;
nodes = (
"270 255 OFFCURVE",
"297 235 OFFCURVE",
"331 235 CURVE SMOOTH",
"365 235 OFFCURVE",
"394 255 OFFCURVE",
"394 303 CURVE SMOOTH",
"394 352 OFFCURVE",
"365 370 OFFCURVE",
"331 370 CURVE SMOOTH",
"297 370 OFFCURVE",
"270 352 OFFCURVE",
"270 303 CURVE SMOOTH"
);
}
);
};
layerId = "55C6F8EE-B60C-49C4-8D15-2255C9205224";
paths = (
{
closed = 1;
nodes = (
"185 0 LINE",
"185 393 LINE SMOOTH",
"185 507 OFFCURVE",
"248 557 OFFCURVE",
"332 557 CURVE SMOOTH",
"422 557 OFFCURVE",
"479 507 OFFCURVE",
"479 393 CURVE SMOOTH",
"479 0 LINE",
"574 0 LINE",
"574 394 LINE SMOOTH",
"574 544 OFFCURVE",
"487 635 OFFCURVE",
"332 635 CURVE SMOOTH",
"173 635 OFFCURVE",
"90 544 OFFCURVE",
"90 394 CURVE SMOOTH",
"90 0 LINE"
);
},
{
closed = 1;
nodes = (
"270 255 OFFCURVE",
"297 235 OFFCURVE",
"331 235 CURVE SMOOTH",
"365 235 OFFCURVE",
"394 255 OFFCURVE",
"394 303 CURVE SMOOTH",
"394 352 OFFCURVE",
"365 370 OFFCURVE",
"331 370 CURVE SMOOTH",
"297 370 OFFCURVE",
"270 352 OFFCURVE",
"270 303 CURVE SMOOTH"
);
}
);
width = 664;
}
);
leftKerningGroup = Tta.MGondi;
leftMetricsKey = VowelA.MGondi;
rightKerningGroup = DdhaHalf.MGondi;
},
{
glyphname = NnaHalf.MGondi;
lastChange = "2019-10-22 12:17:12 +0000";
layers = (
{
background = {
paths = (
{
closed = 1;
nodes = (
"90 51 OFFCURVE",
"143 -10 OFFCURVE",
"247 -10 CURVE SMOOTH",
"342 -10 OFFCURVE",
"398 46 OFFCURVE",
"398 139 CURVE SMOOTH",
"398 225 OFFCURVE",
"343 284 OFFCURVE",
"255 284 CURVE SMOOTH",
"228 284 OFFCURVE",
"204 278 OFFCURVE",
"185 269 CURVE",
"185 403 LINE",
"185 510 OFFCURVE",
"238 557 OFFCURVE",
"322 557 CURVE SMOOTH",
"406 557 OFFCURVE",
"459 510 OFFCURVE",
"459 403 CURVE SMOOTH",
"459 314 LINE",
"554 314 LINE",
"554 404 LINE SMOOTH",
"554 547 OFFCURVE",
"471 635 OFFCURVE",
"322 635 CURVE SMOOTH",
"170 635 OFFCURVE",
"90 548 OFFCURVE",
"90 404 CURVE SMOOTH",
"90 143 LINE SMOOTH"
);
},
{
closed = 1;
nodes = (
"185 188 LINE",
"204 200 OFFCURVE",
"223 206 OFFCURVE",
"242 206 CURVE SMOOTH",
"278 206 OFFCURVE",
"303 181 OFFCURVE",
"303 137 CURVE SMOOTH",
"303 89 OFFCURVE",
"276 68 OFFCURVE",
"245 68 CURVE SMOOTH",
"208 68 OFFCURVE",
"185 89 OFFCURVE",
"185 135 CURVE SMOOTH"
);
}
);
};
layerId = "55C6F8EE-B60C-49C4-8D15-2255C9205224";
paths = (
{
closed = 1;
nodes = (
"90 51 OFFCURVE",
"143 -10 OFFCURVE",
"247 -10 CURVE SMOOTH",
"342 -10 OFFCURVE",
"398 46 OFFCURVE",
"398 139 CURVE SMOOTH",
"398 225 OFFCURVE",
"343 284 OFFCURVE",
"255 284 CURVE SMOOTH",
"228 284 OFFCURVE",
"204 278 OFFCURVE",
"185 269 CURVE",
"185 403 LINE",
"185 510 OFFCURVE",
"238 557 OFFCURVE",
"322 557 CURVE SMOOTH",
"406 557 OFFCURVE",
"459 510 OFFCURVE",
"459 403 CURVE SMOOTH",
"459 314 LINE",
"554 314 LINE",
"554 404 LINE SMOOTH",
"554 547 OFFCURVE",
"471 635 OFFCURVE",
"322 635 CURVE SMOOTH",
"170 635 OFFCURVE",
"90 548 OFFCURVE",
"90 404 CURVE SMOOTH",
"90 143 LINE SMOOTH"
);
},
{
closed = 1;
nodes = (
"185 188 LINE",
"204 200 OFFCURVE",
"223 206 OFFCURVE",
"242 206 CURVE SMOOTH",
"278 206 OFFCURVE",
"303 181 OFFCURVE",
"303 137 CURVE SMOOTH",
"303 89 OFFCURVE",
"276 68 OFFCURVE",
"245 68 CURVE SMOOTH",
"208 68 OFFCURVE",
"185 89 OFFCURVE",
"185 135 CURVE SMOOTH"
);
}
);
width = 634;
}
);
leftMetricsKey = Nna.MGondi;
rightKerningGroup = DdhaHalf.MGondi;
},
{
glyphname = TaHalf.MGondi;
lastChange = "2019-10-22 12:17:12 +0000";
layers = (
{
background = {
paths = (
{
closed = 1;
nodes = (
"90 82 OFFCURVE",
"166 -5 OFFCURVE",
"322 -5 CURVE SMOOTH",
"479 -5 OFFCURVE",
"554 82 OFFCURVE",
"554 226 CURVE SMOOTH",
"554 630 LINE",
"459 630 LINE",
"459 227 LINE SMOOTH",
"459 120 OFFCURVE",
"406 73 OFFCURVE",
"322 73 CURVE SMOOTH",
"238 73 OFFCURVE",
"185 120 OFFCURVE",
"185 227 CURVE SMOOTH",
"185 630 LINE",
"90 630 LINE",
"90 226 LINE SMOOTH"
);
}
);
};
layerId = "55C6F8EE-B60C-49C4-8D15-2255C9205224";
paths = (
{
closed = 1;
nodes = (
"90 82 OFFCURVE",
"166 -5 OFFCURVE",
"322 -5 CURVE SMOOTH",
"479 -5 OFFCURVE",
"554 82 OFFCURVE",
"554 226 CURVE SMOOTH",
"554 630 LINE",
"459 630 LINE",
"459 227 LINE SMOOTH",
"459 120 OFFCURVE",
"406 73 OFFCURVE",
"322 73 CURVE SMOOTH",
"238 73 OFFCURVE",
"185 120 OFFCURVE",
"185 227 CURVE SMOOTH",
"185 630 LINE",
"90 630 LINE",
"90 226 LINE SMOOTH"
);
}
);
width = 644;
}
);
leftKerningGroup = Tta.MGondi;
leftMetricsKey = Ta.MGondi;
rightKerningGroup = DdhaHalf.MGondi;
},
{
glyphname = ThaHalf.MGondi;
lastChange = "2019-10-22 12:17:12 +0000";
layers = (
{
background = {
paths = (
{
closed = 1;
nodes = (
"153 0 LINE",
"286 232 LINE",
"412 0 LINE",
"525 0 LINE",
"328 312 LINE",
"525 630 LINE",
"420 630 LINE",
"282 392 LINE",
"145 630 LINE",
"40 630 LINE",
"237 313 LINE",
"40 0 LINE"
);
}
);
};
layerId = "55C6F8EE-B60C-49C4-8D15-2255C9205224";
paths = (
{
closed = 1;
nodes = (
"153 0 LINE",
"286 232 LINE",
"412 0 LINE",
"525 0 LINE",
"328 312 LINE",
"525 630 LINE",
"420 630 LINE",
"282 392 LINE",
"145 630 LINE",
"40 630 LINE",
"237 313 LINE",
"40 0 LINE"
);
}
);
width = 565;
}
);
leftMetricsKey = Tha.MGondi;
},
{
glyphname = DaHalf.MGondi;
lastChange = "2019-10-22 12:17:12 +0000";
layers = (
{
background = {
paths = (
{
closed = 1;
nodes = (
"70 55 OFFCURVE",
"130 -9 OFFCURVE",
"241 -9 CURVE SMOOTH",
"433 -9 OFFCURVE",
"536 138 OFFCURVE",
"536 313 CURVE SMOOTH",
"536 523 OFFCURVE",
"394 635 OFFCURVE",
"242 635 CURVE SMOOTH",
"127 635 OFFCURVE",
"70 569 OFFCURVE",
"70 497 CURVE SMOOTH",
"70 423 OFFCURVE",
"126 371 OFFCURVE",
"213 371 CURVE SMOOTH",
"292 371 OFFCURVE",
"344 414 OFFCURVE",
"344 492 CURVE SMOOTH",
"344 504 OFFCURVE",
"342 518 OFFCURVE",
"339 531 CURVE",
"399 495 OFFCURVE",
"441 421 OFFCURVE",
"441 313 CURVE SMOOTH",
"441 204 OFFCURVE",
"397 129 OFFCURVE",
"336 93 CURVE",
"341 107 OFFCURVE",
"344 121 OFFCURVE",
"344 134 CURVE SMOOTH",
"344 208 OFFCURVE",
"289 255 OFFCURVE",
"213 255 CURVE SMOOTH",
"129 255 OFFCURVE",
"70 206 OFFCURVE",
"70 130 CURVE SMOOTH"
);
},
{
closed = 1;
nodes = (
"165 159 OFFCURVE",
"184 182 OFFCURVE",
"216 182 CURVE SMOOTH",
"248 182 OFFCURVE",
"267 159 OFFCURVE",
"267 128 CURVE SMOOTH",
"267 105 OFFCURVE",
"262 86 OFFCURVE",
"252 70 CURVE",
"236 69 LINE SMOOTH",
"194 69 OFFCURVE",
"165 93 OFFCURVE",
"165 128 CURVE SMOOTH"
);
},
{
closed = 1;
nodes = (
"165 532 OFFCURVE",
"193 557 OFFCURVE",
"233 557 CURVE SMOOTH",
"252 556 LINE",
"262 540 OFFCURVE",
"267 521 OFFCURVE",
"267 498 CURVE SMOOTH",
"267 467 OFFCURVE",
"248 444 OFFCURVE",
"216 444 CURVE SMOOTH",
"184 444 OFFCURVE",
"165 466 OFFCURVE",
"165 496 CURVE SMOOTH"
);
}
);
};
layerId = "55C6F8EE-B60C-49C4-8D15-2255C9205224";
paths = (
{
closed = 1;
nodes = (
"70 55 OFFCURVE",
"130 -9 OFFCURVE",
"241 -9 CURVE SMOOTH",
"433 -9 OFFCURVE",
"536 138 OFFCURVE",
"536 313 CURVE SMOOTH",
"536 523 OFFCURVE",
"394 635 OFFCURVE",
"242 635 CURVE SMOOTH",
"127 635 OFFCURVE",
"70 569 OFFCURVE",
"70 497 CURVE SMOOTH",
"70 423 OFFCURVE",
"126 371 OFFCURVE",
"213 371 CURVE SMOOTH",
"292 371 OFFCURVE",
"344 414 OFFCURVE",
"344 492 CURVE SMOOTH",
"344 504 OFFCURVE",
"342 518 OFFCURVE",
"339 531 CURVE",
"399 495 OFFCURVE",
"441 421 OFFCURVE",
"441 313 CURVE SMOOTH",
"441 204 OFFCURVE",
"397 129 OFFCURVE",
"336 93 CURVE",
"341 107 OFFCURVE",
"344 121 OFFCURVE",
"344 134 CURVE SMOOTH",
"344 208 OFFCURVE",
"289 255 OFFCURVE",
"213 255 CURVE SMOOTH",
"129 255 OFFCURVE",
"70 206 OFFCURVE",
"70 130 CURVE SMOOTH"
);
},
{
closed = 1;
nodes = (
"165 159 OFFCURVE",
"184 182 OFFCURVE",
"216 182 CURVE SMOOTH",
"248 182 OFFCURVE",
"267 159 OFFCURVE",
"267 128 CURVE SMOOTH",
"267 105 OFFCURVE",
"262 86 OFFCURVE",
"252 70 CURVE",
"236 69 LINE SMOOTH",
"194 69 OFFCURVE",
"165 93 OFFCURVE",
"165 128 CURVE SMOOTH"
);
},
{
closed = 1;
nodes = (
"165 532 OFFCURVE",
"193 557 OFFCURVE",
"233 557 CURVE SMOOTH",
"252 556 LINE",
"262 540 OFFCURVE",
"267 521 OFFCURVE",
"267 498 CURVE SMOOTH",
"267 467 OFFCURVE",
"248 444 OFFCURVE",
"216 444 CURVE SMOOTH",
"184 444 OFFCURVE",
"165 466 OFFCURVE",
"165 496 CURVE SMOOTH"
);
}
);
width = 611;
}
);
leftKerningGroup = Da.MGondi;
leftMetricsKey = Da.MGondi;
},
{
glyphname = DhaHalf.MGondi;
lastChange = "2019-10-22 12:17:12 +0000";
layers = (
{
background = {
paths = (
{
closed = 1;
nodes = (
"60 50 OFFCURVE",
"123 -11 OFFCURVE",
"237 -11 CURVE SMOOTH",
"303 -11 OFFCURVE",
"350 8 OFFCURVE",
"389 33 CURVE",
"472 -106 LINE",
"548 -65 LINE",
"449 81 LINE",
"496 129 OFFCURVE",
"536 207 OFFCURVE",
"536 313 CURVE SMOOTH",
"536 522 OFFCURVE",
"394 635 OFFCURVE",
"242 635 CURVE SMOOTH",
"127 635 OFFCURVE",
"70 569 OFFCURVE",
"70 496 CURVE SMOOTH",
"70 423 OFFCURVE",
"126 371 OFFCURVE",
"213 371 CURVE SMOOTH",
"292 371 OFFCURVE",
"344 414 OFFCURVE",
"344 492 CURVE SMOOTH",
"344 504 OFFCURVE",
"342 517 OFFCURVE",
"339 530 CURVE",
"399 493 OFFCURVE",
"441 421 OFFCURVE",
"441 313 CURVE SMOOTH",
"441 239 OFFCURVE",
"420 186 OFFCURVE",
"396 153 CURVE",
"343 217 OFFCURVE",
"286 254 OFFCURVE",
"213 254 CURVE SMOOTH",
"116 254 OFFCURVE",
"60 200 OFFCURVE",
"60 127 CURVE SMOOTH"
);
},
{
closed = 1;
nodes = (
"155 155 OFFCURVE",
"178 176 OFFCURVE",
"213 176 CURVE SMOOTH",
"258 176 OFFCURVE",
"301 150 OFFCURVE",
"342 99 CURVE",
"315 80 OFFCURVE",
"281 67 OFFCURVE",
"241 67 CURVE SMOOTH",
"180 67 OFFCURVE",
"155 96 OFFCURVE",
"155 127 CURVE SMOOTH"
);
},
{
closed = 1;
nodes = (
"165 532 OFFCURVE",
"193 557 OFFCURVE",
"233 557 CURVE SMOOTH",
"252 556 LINE",
"262 540 OFFCURVE",
"267 521 OFFCURVE",
"267 498 CURVE SMOOTH",
"267 467 OFFCURVE",
"248 444 OFFCURVE",
"216 444 CURVE SMOOTH",
"184 444 OFFCURVE",
"165 466 OFFCURVE",
"165 496 CURVE SMOOTH"
);
}
);
};
layerId = "55C6F8EE-B60C-49C4-8D15-2255C9205224";
paths = (
{
closed = 1;
nodes = (
"60 50 OFFCURVE",
"123 -11 OFFCURVE",
"237 -11 CURVE SMOOTH",
"303 -11 OFFCURVE",
"350 8 OFFCURVE",
"389 33 CURVE",
"472 -106 LINE",
"548 -65 LINE",
"449 81 LINE",
"496 129 OFFCURVE",
"536 207 OFFCURVE",
"536 313 CURVE SMOOTH",
"536 522 OFFCURVE",
"394 635 OFFCURVE",
"242 635 CURVE SMOOTH",
"127 635 OFFCURVE",
"70 569 OFFCURVE",
"70 496 CURVE SMOOTH",
"70 423 OFFCURVE",
"126 371 OFFCURVE",
"213 371 CURVE SMOOTH",
"292 371 OFFCURVE",
"344 414 OFFCURVE",
"344 492 CURVE SMOOTH",
"344 504 OFFCURVE",
"342 517 OFFCURVE",
"339 530 CURVE",
"399 493 OFFCURVE",
"441 421 OFFCURVE",
"441 313 CURVE SMOOTH",
"441 239 OFFCURVE",
"420 186 OFFCURVE",
"396 153 CURVE",
"343 217 OFFCURVE",
"286 254 OFFCURVE",
"213 254 CURVE SMOOTH",
"116 254 OFFCURVE",
"60 200 OFFCURVE",
"60 127 CURVE SMOOTH"
);
},
{
closed = 1;
nodes = (
"155 155 OFFCURVE",
"178 176 OFFCURVE",
"213 176 CURVE SMOOTH",
"258 176 OFFCURVE",
"301 150 OFFCURVE",
"342 99 CURVE",
"315 80 OFFCURVE",
"281 67 OFFCURVE",
"241 67 CURVE SMOOTH",
"180 67 OFFCURVE",
"155 96 OFFCURVE",
"155 127 CURVE SMOOTH"
);
},
{
closed = 1;
nodes = (
"165 532 OFFCURVE",
"193 557 OFFCURVE",
"233 557 CURVE SMOOTH",
"252 556 LINE",
"262 540 OFFCURVE",
"267 521 OFFCURVE",
"267 498 CURVE SMOOTH",
"267 467 OFFCURVE",
"248 444 OFFCURVE",
"216 444 CURVE SMOOTH",
"184 444 OFFCURVE",
"165 466 OFFCURVE",
"165 496 CURVE SMOOTH"
);
}
);
width = 616;
}
);
leftKerningGroup = Da.MGondi;
leftMetricsKey = Dha.MGondi;
rightKerningGroup = DaHalf.MGondi;
},
{
glyphname = NaHalf.MGondi;
lastChange = "2019-10-22 12:17:12 +0000";
layers = (
{
background = {
paths = (
{
closed = 1;
nodes = (
"85 52 OFFCURVE",
"147 -6 OFFCURVE",
"242 -6 CURVE SMOOTH",
"310 -6 OFFCURVE",
"359 28 OFFCURVE",
"377 95 CURVE",
"400 28 OFFCURVE",
"447 -6 OFFCURVE",
"516 -6 CURVE SMOOTH",
"609 -6 OFFCURVE",
"669 58 OFFCURVE",
"669 178 CURVE SMOOTH",
"669 630 LINE",
"574 630 LINE",
"574 178 LINE SMOOTH",
"574 105 OFFCURVE",
"551 72 OFFCURVE",
"505 72 CURVE SMOOTH",
"457 72 OFFCURVE",
"429 111 OFFCURVE",
"421 188 CURVE SMOOTH",
"415 271 LINE",
"338 271 LINE",
"333 188 LINE SMOOTH",
"326 107 OFFCURVE",
"304 72 OFFCURVE",
"253 72 CURVE SMOOTH",
"205 72 OFFCURVE",
"180 105 OFFCURVE",
"180 178 CURVE SMOOTH",
"182 630 LINE",
"85 630 LINE",
"85 178 LINE SMOOTH"
);
}
);
};
layerId = "55C6F8EE-B60C-49C4-8D15-2255C9205224";
paths = (
{
closed = 1;
nodes = (
"85 52 OFFCURVE",
"147 -6 OFFCURVE",
"242 -6 CURVE SMOOTH",
"310 -6 OFFCURVE",
"359 28 OFFCURVE",
"377 95 CURVE",
"400 28 OFFCURVE",
"447 -6 OFFCURVE",
"516 -6 CURVE SMOOTH",
"609 -6 OFFCURVE",
"669 58 OFFCURVE",
"669 178 CURVE SMOOTH",
"669 630 LINE",
"574 630 LINE",
"574 178 LINE SMOOTH",
"574 105 OFFCURVE",
"551 72 OFFCURVE",
"505 72 CURVE SMOOTH",
"457 72 OFFCURVE",
"429 111 OFFCURVE",
"421 188 CURVE SMOOTH",
"415 271 LINE",
"338 271 LINE",
"333 188 LINE SMOOTH",
"326 107 OFFCURVE",
"304 72 OFFCURVE",
"253 72 CURVE SMOOTH",
"205 72 OFFCURVE",
"180 105 OFFCURVE",
"180 178 CURVE SMOOTH",
"182 630 LINE",
"85 630 LINE",
"85 178 LINE SMOOTH"
);
}
);
width = 754;
}
);
leftKerningGroup = Jha.MGondi;
leftMetricsKey = Na.MGondi;
},
{
glyphname = PaHalf.MGondi;
lastChange = "2019-10-22 12:17:12 +0000";
layers = (
{
background = {
paths = (
{
closed = 1;
nodes = (
"190 0 LINE",
"190 281 LINE",
"329 281 LINE",
"329 0 LINE",
"424 0 LINE",
"424 630 LINE",
"329 630 LINE",
"329 357 LINE",
"190 357 LINE",
"190 630 LINE",
"95 630 LINE",
"95 0 LINE"
);
}
);
};
layerId = "55C6F8EE-B60C-49C4-8D15-2255C9205224";
paths = (
{
closed = 1;
nodes = (
"190 0 LINE",
"190 281 LINE",
"329 281 LINE",
"329 0 LINE",
"424 0 LINE",
"424 630 LINE",
"329 630 LINE",
"329 357 LINE",
"190 357 LINE",
"190 630 LINE",
"95 630 LINE",
"95 0 LINE"
);
}
);
width = 519;
}
);
leftMetricsKey = Pa.MGondi;
},
{
glyphname = PhaHalf.MGondi;
lastChange = "2019-10-22 12:17:12 +0000";
layers = (
{
background = {
paths = (
{
closed = 1;
nodes = (
"190 0 LINE",
"190 281 LINE",
"329 281 LINE",
"329 0 LINE",
"424 0 LINE",
"424 281 LINE",
"563 281 LINE",
"563 0 LINE",
"658 0 LINE",
"658 630 LINE",
"563 630 LINE",
"563 357 LINE",
"424 357 LINE",
"424 630 LINE",
"329 630 LINE",
"329 357 LINE",
"190 357 LINE",
"190 630 LINE",
"95 630 LINE",
"95 0 LINE"
);
}
);
};
layerId = "55C6F8EE-B60C-49C4-8D15-2255C9205224";
paths = (
{
closed = 1;
nodes = (
"190 0 LINE",
"190 281 LINE",
"329 281 LINE",
"329 0 LINE",
"424 0 LINE",
"424 281 LINE",
"563 281 LINE",
"563 0 LINE",
"658 0 LINE",
"658 630 LINE",
"563 630 LINE",
"563 357 LINE",
"424 357 LINE",
"424 630 LINE",
"329 630 LINE",
"329 357 LINE",
"190 357 LINE",
"190 630 LINE",
"95 630 LINE",
"95 0 LINE"
);
}
);
width = 748;
}
);
leftMetricsKey = Pa.MGondi;
},
{
glyphname = BaHalf.MGondi;
lastChange = "2019-10-22 12:17:12 +0000";
layers = (
{
background = {
paths = (
{
closed = 1;
nodes = (
"90 59 OFFCURVE",
"179 -10 OFFCURVE",
"314 -10 CURVE SMOOTH",
"457 -10 OFFCURVE",
"533 68 OFFCURVE",
"533 180 CURVE SMOOTH",
"533 305 OFFCURVE",
"449 357 OFFCURVE",
"337 357 CURVE SMOOTH",
"185 357 LINE",
"185 635 LINE",
"90 635 LINE",
"90 175 LINE SMOOTH"
);
},
{
closed = 1;
nodes = (
"185 281 LINE",
"327 281 LINE SMOOTH",
"398 281 OFFCURVE",
"438 251 OFFCURVE",
"438 180 CURVE SMOOTH",
"438 112 OFFCURVE",
"394 68 OFFCURVE",
"316 68 CURVE SMOOTH",
"232 68 OFFCURVE",
"185 112 OFFCURVE",
"185 175 CURVE SMOOTH"
);
}
);
};
layerId = "55C6F8EE-B60C-49C4-8D15-2255C9205224";
paths = (
{
closed = 1;
nodes = (
"90 59 OFFCURVE",
"179 -10 OFFCURVE",
"314 -10 CURVE SMOOTH",
"457 -10 OFFCURVE",
"533 68 OFFCURVE",
"533 180 CURVE SMOOTH",
"533 305 OFFCURVE",
"449 357 OFFCURVE",
"337 357 CURVE SMOOTH",
"185 357 LINE",
"185 635 LINE",
"90 635 LINE",
"90 175 LINE SMOOTH"
);
},
{
closed = 1;
nodes = (
"185 281 LINE",
"327 281 LINE SMOOTH",
"398 281 OFFCURVE",
"438 251 OFFCURVE",
"438 180 CURVE SMOOTH",
"438 112 OFFCURVE",
"394 68 OFFCURVE",
"316 68 CURVE SMOOTH",
"232 68 OFFCURVE",
"185 112 OFFCURVE",
"185 175 CURVE SMOOTH"
);
}
);
width = 596;
}
);
leftMetricsKey = Ba.MGondi;
},
{
glyphname = BhaHalf.MGondi;
lastChange = "2019-10-22 12:17:12 +0000";
layers = (
{
background = {
paths = (
{
closed = 1;
nodes = (
"20 431 OFFCURVE",
"77 383 OFFCURVE",
"149 383 CURVE SMOOTH",
"165 383 OFFCURVE",
"179 385 OFFCURVE",
"191 389 CURVE",
"173 320 OFFCURVE",
"156 249 OFFCURVE",
"156 192 CURVE SMOOTH",
"156 64 OFFCURVE",
"247 -10 OFFCURVE",
"387 -10 CURVE SMOOTH",
"539 -10 OFFCURVE",
"608 74 OFFCURVE",
"608 202 CURVE SMOOTH",
"608 357 LINE",
"513 357 LINE",
"513 198 LINE SMOOTH",
"513 108 OFFCURVE",
"464 68 OFFCURVE",
"386 68 CURVE SMOOTH",
"302 68 OFFCURVE",
"251 118 OFFCURVE",
"251 193 CURVE SMOOTH",
"251 240 OFFCURVE",
"260 299 OFFCURVE",
"278 372 CURVE SMOOTH",
"288 414 OFFCURVE",
"300 450 OFFCURVE",
"300 509 CURVE SMOOTH",
"300 574 OFFCURVE",
"251 635 OFFCURVE",
"161 635 CURVE SMOOTH",
"75 635 OFFCURVE",
"20 578 OFFCURVE",
"20 506 CURVE SMOOTH"
);
},
{
closed = 1;
nodes = (
"110 536 OFFCURVE",
"131 559 OFFCURVE",
"163 559 CURVE SMOOTH",
"197 559 OFFCURVE",
"214 535 OFFCURVE",
"214 508 CURVE SMOOTH",
"214 498 OFFCURVE",
"213 488 OFFCURVE",
"212 478 CURVE",
"197 465 OFFCURVE",
"180 459 OFFCURVE",
"164 459 CURVE SMOOTH",
"130 459 OFFCURVE",
"110 480 OFFCURVE",
"110 508 CURVE SMOOTH"
);
}
);
};
layerId = "55C6F8EE-B60C-49C4-8D15-2255C9205224";
paths = (
{
closed = 1;
nodes = (
"20 431 OFFCURVE",
"77 383 OFFCURVE",
"149 383 CURVE SMOOTH",
"165 383 OFFCURVE",
"179 385 OFFCURVE",
"191 389 CURVE",
"173 320 OFFCURVE",
"156 249 OFFCURVE",
"156 192 CURVE SMOOTH",
"156 64 OFFCURVE",
"247 -10 OFFCURVE",
"387 -10 CURVE SMOOTH",
"539 -10 OFFCURVE",
"608 74 OFFCURVE",
"608 202 CURVE SMOOTH",
"608 357 LINE",
"513 357 LINE",
"513 198 LINE SMOOTH",
"513 108 OFFCURVE",
"464 68 OFFCURVE",
"386 68 CURVE SMOOTH",
"302 68 OFFCURVE",
"251 118 OFFCURVE",
"251 193 CURVE SMOOTH",
"251 240 OFFCURVE",
"260 299 OFFCURVE",
"278 372 CURVE SMOOTH",
"288 414 OFFCURVE",
"300 450 OFFCURVE",
"300 509 CURVE SMOOTH",
"300 574 OFFCURVE",
"251 635 OFFCURVE",
"161 635 CURVE SMOOTH",
"75 635 OFFCURVE",
"20 578 OFFCURVE",
"20 506 CURVE SMOOTH"
);
},
{
closed = 1;
nodes = (
"110 536 OFFCURVE",
"131 559 OFFCURVE",
"163 559 CURVE SMOOTH",
"197 559 OFFCURVE",
"214 535 OFFCURVE",
"214 508 CURVE SMOOTH",
"214 498 OFFCURVE",
"213 488 OFFCURVE",
"212 478 CURVE",
"197 465 OFFCURVE",
"180 459 OFFCURVE",
"164 459 CURVE SMOOTH",
"130 459 OFFCURVE",
"110 480 OFFCURVE",
"110 508 CURVE SMOOTH"
);
}
);
width = 688;
}
);
leftMetricsKey = Bha.MGondi;
rightKerningGroup = BaHalf.MGondi;
},
{
glyphname = MaHalf.MGondi;
lastChange = "2019-10-22 12:17:12 +0000";
layers = (
{
background = {
paths = (
{
closed = 1;
nodes = (
"40 478 OFFCURVE",
"96 429 OFFCURVE",
"193 429 CURVE SMOOTH",
"221 429 LINE",
"221 0 LINE",
"316 0 LINE",
"316 429 LINE",
"450 429 LINE",
"450 504 LINE",
"316 504 LINE",
"316 558 LINE SMOOTH",
"316 629 OFFCURVE",
"263 682 OFFCURVE",
"178 682 CURVE SMOOTH",
"88 682 OFFCURVE",
"40 624 OFFCURVE",
"40 555 CURVE SMOOTH"
);
},
{
closed = 1;
nodes = (
"126 588 OFFCURVE",
"145 608 OFFCURVE",
"175 608 CURVE SMOOTH",
"202 608 OFFCURVE",
"221 591 OFFCURVE",
"221 558 CURVE SMOOTH",
"221 504 LINE",
"191 504 LINE SMOOTH",
"144 504 OFFCURVE",
"126 529 OFFCURVE",
"126 557 CURVE SMOOTH"
);
}
);
};
layerId = "55C6F8EE-B60C-49C4-8D15-2255C9205224";
paths = (
{
closed = 1;
nodes = (
"40 478 OFFCURVE",
"96 429 OFFCURVE",
"193 429 CURVE SMOOTH",
"221 429 LINE",
"221 0 LINE",
"316 0 LINE",
"316 429 LINE",
"450 429 LINE",
"450 504 LINE",
"316 504 LINE",
"316 558 LINE SMOOTH",
"316 629 OFFCURVE",
"263 682 OFFCURVE",
"178 682 CURVE SMOOTH",
"88 682 OFFCURVE",
"40 624 OFFCURVE",
"40 555 CURVE SMOOTH"
);
},
{
closed = 1;
nodes = (
"126 588 OFFCURVE",
"145 608 OFFCURVE",
"175 608 CURVE SMOOTH",
"202 608 OFFCURVE",
"221 591 OFFCURVE",
"221 558 CURVE SMOOTH",
"221 504 LINE",
"191 504 LINE SMOOTH",
"144 504 OFFCURVE",
"126 529 OFFCURVE",
"126 557 CURVE SMOOTH"
);
}
);
width = 480;
}
);
leftMetricsKey = Ma.MGondi;
},
{
glyphname = YaHalf.MGondi;
lastChange = "2019-11-23 13:32:48 +0000";
layers = (
{
background = {
paths = (
{
closed = 1;
nodes = (
"75 165 OFFCURVE",
"229 41 OFFCURVE",
"403 -15 CURVE",
"435 63 LINE",
"270 125 OFFCURVE",
"170 223 OFFCURVE",
"170 383 CURVE SMOOTH",
"170 486 OFFCURVE",
"226 556 OFFCURVE",
"315 556 CURVE SMOOTH",
"398 556 OFFCURVE",
"459 489 OFFCURVE",
"459 383 CURVE SMOOTH",
"459 314 LINE",
"554 314 LINE",
"554 383 LINE SMOOTH",
"554 542 OFFCURVE",
"454 635 OFFCURVE",
"315 635 CURVE SMOOTH",
"175 635 OFFCURVE",
"75 537 OFFCURVE",
"75 384 CURVE SMOOTH"
);
}
);
};
layerId = "55C6F8EE-B60C-49C4-8D15-2255C9205224";
paths = (
{
closed = 1;
nodes = (
"75 165 OFFCURVE",
"229 41 OFFCURVE",
"403 -15 CURVE",
"435 63 LINE",
"270 125 OFFCURVE",
"170 223 OFFCURVE",
"170 383 CURVE SMOOTH",
"170 486 OFFCURVE",
"226 556 OFFCURVE",
"315 556 CURVE SMOOTH",
"398 556 OFFCURVE",
"459 489 OFFCURVE",
"459 383 CURVE SMOOTH",
"459 314 LINE",
"554 314 LINE",
"554 383 LINE SMOOTH",
"554 542 OFFCURVE",
"454 635 OFFCURVE",
"315 635 CURVE SMOOTH",
"175 635 OFFCURVE",
"75 537 OFFCURVE",
"75 384 CURVE SMOOTH"
);
}
);
width = 634;
}
);
leftKerningGroup = Ka.MGondi;
leftMetricsKey = Ka.MGondi;
rightKerningGroup = KaHalf.MGondi;
},
{
glyphname = RaHalf.MGondi;
lastChange = "2019-10-22 12:17:12 +0000";
layers = (
{
background = {
paths = (
{
closed = 1;
nodes = (
"75 105 OFFCURVE",
"180 0 OFFCURVE",
"309 -10 CURVE",
"309 69 LINE",
"242 78 OFFCURVE",
"170 145 OFFCURVE",
"170 313 CURVE SMOOTH",
"170 490 OFFCURVE",
"245 546 OFFCURVE",
"309 556 CURVE",
"309 635 LINE",
"180 624 OFFCURVE",
"75 521 OFFCURVE",
"75 314 CURVE SMOOTH"
);
},
{
closed = 1;
nodes = (
"282 271 OFFCURVE",
"309 251 OFFCURVE",
"343 251 CURVE SMOOTH",
"377 251 OFFCURVE",
"406 271 OFFCURVE",
"406 319 CURVE SMOOTH",
"406 368 OFFCURVE",
"377 386 OFFCURVE",
"343 386 CURVE SMOOTH",
"309 386 OFFCURVE",
"282 368 OFFCURVE",
"282 319 CURVE SMOOTH"
);
},
{
closed = 1;
nodes = (
"508 0 OFFCURVE",
"613 105 OFFCURVE",
"613 314 CURVE SMOOTH",
"613 521 OFFCURVE",
"508 624 OFFCURVE",
"379 635 CURVE",
"379 556 LINE",
"443 546 OFFCURVE",
"518 490 OFFCURVE",
"518 313 CURVE SMOOTH",
"518 145 OFFCURVE",
"446 78 OFFCURVE",
"379 69 CURVE",
"379 -10 LINE"
);
}
);
};
layerId = "55C6F8EE-B60C-49C4-8D15-2255C9205224";
paths = (
{
closed = 1;
nodes = (
"75 105 OFFCURVE",
"180 0 OFFCURVE",
"309 -10 CURVE",
"309 69 LINE",
"242 78 OFFCURVE",
"170 145 OFFCURVE",
"170 313 CURVE SMOOTH",
"170 490 OFFCURVE",
"245 546 OFFCURVE",
"309 556 CURVE",
"309 635 LINE",
"180 624 OFFCURVE",
"75 521 OFFCURVE",
"75 314 CURVE SMOOTH"
);
},
{
closed = 1;
nodes = (
"282 271 OFFCURVE",
"309 251 OFFCURVE",
"343 251 CURVE SMOOTH",
"377 251 OFFCURVE",
"406 271 OFFCURVE",
"406 319 CURVE SMOOTH",
"406 368 OFFCURVE",
"377 386 OFFCURVE",
"343 386 CURVE SMOOTH",
"309 386 OFFCURVE",
"282 368 OFFCURVE",
"282 319 CURVE SMOOTH"
);
},
{
closed = 1;
nodes = (
"508 0 OFFCURVE",
"613 105 OFFCURVE",
"613 314 CURVE SMOOTH",
"613 521 OFFCURVE",
"508 624 OFFCURVE",
"379 635 CURVE",
"379 556 LINE",
"443 546 OFFCURVE",
"518 490 OFFCURVE",
"518 313 CURVE SMOOTH",
"518 145 OFFCURVE",
"446 78 OFFCURVE",
"379 69 CURVE",
"379 -10 LINE"
);
}
);
width = 688;
}
);
leftKerningGroup = Ka.MGondi;
leftMetricsKey = Ka.MGondi;
rightKerningGroup = KaHalf.MGondi;
rightMetricsKey = KaHalf.MGondi;
},
{
glyphname = LaHalf.MGondi;
lastChange = "2019-10-22 12:17:12 +0000";
layers = (
{
background = {
paths = (
{
closed = 1;
nodes = (
"185 0 LINE",
"185 403 LINE SMOOTH",
"185 510 OFFCURVE",
"238 557 OFFCURVE",
"322 557 CURVE SMOOTH",
"406 557 OFFCURVE",
"459 510 OFFCURVE",
"459 403 CURVE SMOOTH",
"459 0 LINE",
"554 0 LINE",
"554 404 LINE SMOOTH",
"554 547 OFFCURVE",
"471 635 OFFCURVE",
"322 635 CURVE SMOOTH",
"170 635 OFFCURVE",
"90 548 OFFCURVE",
"90 404 CURVE SMOOTH",
"90 0 LINE"
);
}
);
};
layerId = "55C6F8EE-B60C-49C4-8D15-2255C9205224";
paths = (
{
closed = 1;
nodes = (
"185 0 LINE",
"185 403 LINE SMOOTH",
"185 510 OFFCURVE",
"238 557 OFFCURVE",
"322 557 CURVE SMOOTH",
"406 557 OFFCURVE",
"459 510 OFFCURVE",
"459 403 CURVE SMOOTH",
"459 0 LINE",
"554 0 LINE",
"554 404 LINE SMOOTH",
"554 547 OFFCURVE",
"471 635 OFFCURVE",
"322 635 CURVE SMOOTH",
"170 635 OFFCURVE",
"90 548 OFFCURVE",
"90 404 CURVE SMOOTH",
"90 0 LINE"
);
}
);
width = 644;
}
);
leftKerningGroup = Tta.MGondi;
leftMetricsKey = VowelA.MGondi;
rightKerningGroup = DdhaHalf.MGondi;
},
{
glyphname = VaHalf.MGondi;
lastChange = "2019-10-22 12:17:12 +0000";
layers = (
{
background = {
paths = (
{
closed = 1;
nodes = (
"75 65 OFFCURVE",
"162 -10 OFFCURVE",
"285 -10 CURVE SMOOTH",
"395 -10 OFFCURVE",
"477 47 OFFCURVE",
"492 138 CURVE",
"502 137 OFFCURVE",
"513 136 OFFCURVE",
"523 136 CURVE SMOOTH",
"642 136 OFFCURVE",
"707 210 OFFCURVE",
"707 316 CURVE SMOOTH",
"707 421 OFFCURVE",
"641 496 OFFCURVE",
"523 496 CURVE SMOOTH",
"508 496 OFFCURVE",
"494 494 OFFCURVE",
"481 490 CURVE",
"469 576 OFFCURVE",
"392 635 OFFCURVE",
"287 635 CURVE SMOOTH",
"171 635 OFFCURVE",
"88 565 OFFCURVE",
"88 466 CURVE SMOOTH",
"88 386 OFFCURVE",
"141 340 OFFCURVE",
"184 327 CURVE",
"139 312 OFFCURVE",
"75 264 OFFCURVE",
"75 169 CURVE SMOOTH"
);
},
{
closed = 1;
nodes = (
"170 239 OFFCURVE",
"213 285 OFFCURVE",
"286 285 CURVE SMOOTH",
"360 285 OFFCURVE",
"399 239 OFFCURVE",
"399 175 CURVE SMOOTH",
"399 112 OFFCURVE",
"357 68 OFFCURVE",
"285 68 CURVE SMOOTH",
"213 68 OFFCURVE",
"170 112 OFFCURVE",
"170 175 CURVE SMOOTH"
);
},
{
closed = 1;
nodes = (
"183 516 OFFCURVE",
"221 556 OFFCURVE",
"287 556 CURVE SMOOTH",
"353 556 OFFCURVE",
"388 516 OFFCURVE",
"388 459 CURVE SMOOTH",
"388 404 OFFCURVE",
"351 364 OFFCURVE",
"286 364 CURVE SMOOTH",
"221 364 OFFCURVE",
"183 404 OFFCURVE",
"183 459 CURVE SMOOTH"
);
},
{
closed = 1;
nodes = (
"419 337 OFFCURVE",
"454 363 OFFCURVE",
"472 406 CURVE",
"484 413 OFFCURVE",
"501 417 OFFCURVE",
"515 417 CURVE SMOOTH",
"579 417 OFFCURVE",
"617 379 OFFCURVE",
"617 316 CURVE SMOOTH",
"617 254 OFFCURVE",
"579 215 OFFCURVE",
"515 215 CURVE SMOOTH",
"506 215 OFFCURVE",
"497 216 OFFCURVE",
"488 218 CURVE",
"471 278 OFFCURVE",
"427 312 OFFCURVE",
"389 326 CURVE"
);
}
);
};
layerId = "55C6F8EE-B60C-49C4-8D15-2255C9205224";
paths = (
{
closed = 1;
nodes = (
"75 65 OFFCURVE",
"162 -10 OFFCURVE",
"285 -10 CURVE SMOOTH",
"395 -10 OFFCURVE",
"477 47 OFFCURVE",
"492 138 CURVE",
"502 137 OFFCURVE",
"513 136 OFFCURVE",
"523 136 CURVE SMOOTH",
"642 136 OFFCURVE",
"707 210 OFFCURVE",
"707 316 CURVE SMOOTH",
"707 421 OFFCURVE",
"641 496 OFFCURVE",
"523 496 CURVE SMOOTH",
"508 496 OFFCURVE",
"494 494 OFFCURVE",
"481 490 CURVE",
"469 576 OFFCURVE",
"392 635 OFFCURVE",
"287 635 CURVE SMOOTH",
"171 635 OFFCURVE",
"88 565 OFFCURVE",
"88 466 CURVE SMOOTH",
"88 386 OFFCURVE",
"141 340 OFFCURVE",
"184 327 CURVE",
"139 312 OFFCURVE",
"75 264 OFFCURVE",
"75 169 CURVE SMOOTH"
);
},
{
closed = 1;
nodes = (
"170 239 OFFCURVE",
"213 285 OFFCURVE",
"286 285 CURVE SMOOTH",
"360 285 OFFCURVE",
"399 239 OFFCURVE",
"399 175 CURVE SMOOTH",
"399 112 OFFCURVE",
"357 68 OFFCURVE",
"285 68 CURVE SMOOTH",
"213 68 OFFCURVE",
"170 112 OFFCURVE",
"170 175 CURVE SMOOTH"
);
},
{
closed = 1;
nodes = (
"183 516 OFFCURVE",
"221 556 OFFCURVE",
"287 556 CURVE SMOOTH",
"353 556 OFFCURVE",
"388 516 OFFCURVE",
"388 459 CURVE SMOOTH",
"388 404 OFFCURVE",
"351 364 OFFCURVE",
"286 364 CURVE SMOOTH",
"221 364 OFFCURVE",
"183 404 OFFCURVE",
"183 459 CURVE SMOOTH"
);
},
{
closed = 1;
nodes = (
"419 337 OFFCURVE",
"454 363 OFFCURVE",
"472 406 CURVE",
"484 413 OFFCURVE",
"501 417 OFFCURVE",
"515 417 CURVE SMOOTH",
"579 417 OFFCURVE",
"617 379 OFFCURVE",
"617 316 CURVE SMOOTH",
"617 254 OFFCURVE",
"579 215 OFFCURVE",
"515 215 CURVE SMOOTH",
"506 215 OFFCURVE",
"497 216 OFFCURVE",
"488 218 CURVE",
"471 278 OFFCURVE",
"427 312 OFFCURVE",
"389 326 CURVE"
);
}
);
width = 752;
}
);
leftMetricsKey = Kha.MGondi;
},
{
glyphname = ShaHalf.MGondi;
lastChange = "2019-10-22 12:17:12 +0000";
layers = (
{
background = {
paths = (
{
closed = 1;
nodes = (
"275 0 LINE",
"370 0 LINE",
"582 630 LINE",
"481 630 LINE",
"326 105 LINE",
"144 630 LINE",
"40 630 LINE"
);
}
);
};
layerId = "55C6F8EE-B60C-49C4-8D15-2255C9205224";
paths = (
{
closed = 1;
nodes = (
"275 0 LINE",
"370 0 LINE",
"582 630 LINE",
"481 630 LINE",
"326 105 LINE",
"144 630 LINE",
"40 630 LINE"
);
}
);
width = 622;
}
);
leftMetricsKey = Sha.MGondi;
},
{
glyphname = SsaHalf.MGondi;
lastChange = "2019-10-22 12:17:12 +0000";
layers = (
{
background = {
paths = (
{
closed = 1;
nodes = (
"75 105 OFFCURVE",
"168 -10 OFFCURVE",
"326 -10 CURVE SMOOTH",
"490 -10 OFFCURVE",
"584 104 OFFCURVE",
"584 313 CURVE SMOOTH",
"584 523 OFFCURVE",
"490 635 OFFCURVE",
"326 635 CURVE SMOOTH",
"168 635 OFFCURVE",
"75 521 OFFCURVE",
"75 314 CURVE SMOOTH"
);
},
{
closed = 1;
nodes = (
"488 281 LINE",
"481 151 OFFCURVE",
"427 68 OFFCURVE",
"326 68 CURVE SMOOTH",
"232 68 OFFCURVE",
"178 151 OFFCURVE",
"171 281 CURVE"
);
},
{
closed = 1;
nodes = (
"182 480 OFFCURVE",
"235 556 OFFCURVE",
"326 556 CURVE SMOOTH",
"424 556 OFFCURVE",
"477 480 OFFCURVE",
"487 357 CURVE",
"172 357 LINE"
);
}
);
};
layerId = "55C6F8EE-B60C-49C4-8D15-2255C9205224";
paths = (
{
closed = 1;
nodes = (
"75 105 OFFCURVE",
"168 -10 OFFCURVE",
"326 -10 CURVE SMOOTH",
"490 -10 OFFCURVE",
"584 104 OFFCURVE",
"584 313 CURVE SMOOTH",
"584 523 OFFCURVE",
"490 635 OFFCURVE",
"326 635 CURVE SMOOTH",
"168 635 OFFCURVE",
"75 521 OFFCURVE",
"75 314 CURVE SMOOTH"
);
},
{
closed = 1;
nodes = (
"488 281 LINE",
"481 151 OFFCURVE",
"427 68 OFFCURVE",
"326 68 CURVE SMOOTH",
"232 68 OFFCURVE",
"178 151 OFFCURVE",
"171 281 CURVE"
);
},
{
closed = 1;
nodes = (
"182 480 OFFCURVE",
"235 556 OFFCURVE",
"326 556 CURVE SMOOTH",
"424 556 OFFCURVE",
"477 480 OFFCURVE",
"487 357 CURVE",
"172 357 LINE"
);
}
);
width = 659;
}
);
leftKerningGroup = Ka.MGondi;
leftMetricsKey = Ka.MGondi;
rightKerningGroup = KaHalf.MGondi;
rightMetricsKey = KaHalf.MGondi;
},
{
glyphname = SaHalf.MGondi;
lastChange = "2019-10-22 12:17:12 +0000";
layers = (
{
background = {
paths = (
{
closed = 1;
nodes = (
"75 66 OFFCURVE",
"163 -10 OFFCURVE",
"307 -10 CURVE SMOOTH",
"458 -10 OFFCURVE",
"543 69 OFFCURVE",
"543 200 CURVE SMOOTH",
"543 357 LINE",
"451 357 LINE",
"451 198 LINE SMOOTH",
"451 122 OFFCURVE",
"403 69 OFFCURVE",
"308 69 CURVE SMOOTH",
"222 69 OFFCURVE",
"167 114 OFFCURVE",
"167 179 CURVE SMOOTH",
"167 244 OFFCURVE",
"211 289 OFFCURVE",
"291 289 CURVE SMOOTH",
"328 289 LINE",
"328 358 LINE",
"297 358 LINE SMOOTH",
"216 358 OFFCURVE",
"171 402 OFFCURVE",
"171 458 CURVE SMOOTH",
"171 515 OFFCURVE",
"216 556 OFFCURVE",
"292 556 CURVE SMOOTH",
"355 556 OFFCURVE",
"401 527 OFFCURVE",
"430 501 CURVE",
"484 560 LINE",
"443 603 OFFCURVE",
"376 635 OFFCURVE",
"290 635 CURVE SMOOTH",
"166 635 OFFCURVE",
"79 564 OFFCURVE",
"79 463 CURVE SMOOTH",
"79 401 OFFCURVE",
"114 343 OFFCURVE",
"174 324 CURVE",
"111 302 OFFCURVE",
"75 243 OFFCURVE",
"75 181 CURVE SMOOTH"
);
}
);
};
layerId = "55C6F8EE-B60C-49C4-8D15-2255C9205224";
paths = (
{
closed = 1;
nodes = (
"75 66 OFFCURVE",
"163 -10 OFFCURVE",
"307 -10 CURVE SMOOTH",
"458 -10 OFFCURVE",
"543 69 OFFCURVE",
"543 200 CURVE SMOOTH",
"543 357 LINE",
"451 357 LINE",
"451 198 LINE SMOOTH",
"451 122 OFFCURVE",
"403 69 OFFCURVE",
"308 69 CURVE SMOOTH",
"222 69 OFFCURVE",
"167 114 OFFCURVE",
"167 179 CURVE SMOOTH",
"167 244 OFFCURVE",
"211 289 OFFCURVE",
"291 289 CURVE SMOOTH",
"328 289 LINE",
"328 358 LINE",
"297 358 LINE SMOOTH",
"216 358 OFFCURVE",
"171 402 OFFCURVE",
"171 458 CURVE SMOOTH",
"171 515 OFFCURVE",
"216 556 OFFCURVE",
"292 556 CURVE SMOOTH",
"355 556 OFFCURVE",
"401 527 OFFCURVE",
"430 501 CURVE",
"484 560 LINE",
"443 603 OFFCURVE",
"376 635 OFFCURVE",
"290 635 CURVE SMOOTH",
"166 635 OFFCURVE",
"79 564 OFFCURVE",
"79 463 CURVE SMOOTH",
"79 401 OFFCURVE",
"114 343 OFFCURVE",
"174 324 CURVE",
"111 302 OFFCURVE",
"75 243 OFFCURVE",
"75 181 CURVE SMOOTH"
);
}
);
width = 608;
}
);
leftMetricsKey = Kha.MGondi;
},
{
glyphname = HaHalf.MGondi;
lastChange = "2019-10-22 12:17:12 +0000";
layers = (
{
background = {
paths = (
{
closed = 1;
nodes = (
"85 52 OFFCURVE",
"147 -6 OFFCURVE",
"242 -6 CURVE SMOOTH",
"310 -6 OFFCURVE",
"359 28 OFFCURVE",
"377 95 CURVE",
"400 28 OFFCURVE",
"447 -6 OFFCURVE",
"516 -6 CURVE SMOOTH",
"609 -6 OFFCURVE",
"669 58 OFFCURVE",
"669 178 CURVE SMOOTH",
"669 488 LINE SMOOTH",
"669 593 OFFCURVE",
"599 635 OFFCURVE",
"528 635 CURVE SMOOTH",
"448 635 OFFCURVE",
"391 576 OFFCURVE",
"391 480 CURVE SMOOTH",
"391 358 OFFCURVE",
"474 300 OFFCURVE",
"574 285 CURVE",
"574 178 LINE SMOOTH",
"574 105 OFFCURVE",
"551 72 OFFCURVE",
"505 72 CURVE SMOOTH",
"457 72 OFFCURVE",
"429 111 OFFCURVE",
"421 188 CURVE SMOOTH",
"415 251 LINE",
"338 251 LINE",
"333 188 LINE SMOOTH",
"326 107 OFFCURVE",
"304 72 OFFCURVE",
"253 72 CURVE SMOOTH",
"205 72 OFFCURVE",
"180 105 OFFCURVE",
"180 178 CURVE SMOOTH",
"182 630 LINE",
"85 630 LINE",
"85 178 LINE SMOOTH"
);
},
{
closed = 1;
nodes = (
"480 535 OFFCURVE",
"502 557 OFFCURVE",
"530 557 CURVE SMOOTH",
"556 557 OFFCURVE",
"579 536 OFFCURVE",
"579 488 CURVE SMOOTH",
"579 360 LINE",
"519 370 OFFCURVE",
"480 410 OFFCURVE",
"480 483 CURVE SMOOTH"
);
}
);
};
layerId = "55C6F8EE-B60C-49C4-8D15-2255C9205224";
paths = (
{
closed = 1;
nodes = (
"85 52 OFFCURVE",
"147 -6 OFFCURVE",
"242 -6 CURVE SMOOTH",
"310 -6 OFFCURVE",
"359 28 OFFCURVE",
"377 95 CURVE",
"400 28 OFFCURVE",
"447 -6 OFFCURVE",
"516 -6 CURVE SMOOTH",
"609 -6 OFFCURVE",
"669 58 OFFCURVE",
"669 178 CURVE SMOOTH",
"669 488 LINE SMOOTH",
"669 593 OFFCURVE",
"599 635 OFFCURVE",
"528 635 CURVE SMOOTH",
"448 635 OFFCURVE",
"391 576 OFFCURVE",
"391 480 CURVE SMOOTH",
"391 358 OFFCURVE",
"474 300 OFFCURVE",
"574 285 CURVE",
"574 178 LINE SMOOTH",
"574 105 OFFCURVE",
"551 72 OFFCURVE",
"505 72 CURVE SMOOTH",
"457 72 OFFCURVE",
"429 111 OFFCURVE",
"421 188 CURVE SMOOTH",
"415 251 LINE",
"338 251 LINE",
"333 188 LINE SMOOTH",
"326 107 OFFCURVE",
"304 72 OFFCURVE",
"253 72 CURVE SMOOTH",
"205 72 OFFCURVE",
"180 105 OFFCURVE",
"180 178 CURVE SMOOTH",
"182 630 LINE",
"85 630 LINE",
"85 178 LINE SMOOTH"
);
},
{
closed = 1;
nodes = (
"480 535 OFFCURVE",
"502 557 OFFCURVE",
"530 557 CURVE SMOOTH",
"556 557 OFFCURVE",
"579 536 OFFCURVE",
"579 488 CURVE SMOOTH",
"579 360 LINE",
"519 370 OFFCURVE",
"480 410 OFFCURVE",
"480 483 CURVE SMOOTH"
);
}
);
width = 754;
}
);
leftMetricsKey = Ha.MGondi;
rightKerningGroup = NaHalf.MGondi;
rightMetricsKey = NaHalf.MGondi;
},
{
glyphname = LlaHalf.MGondi;
lastChange = "2019-10-22 12:17:12 +0000";
layers = (
{
background = {
paths = (
{
closed = 1;
nodes = (
"75 85 OFFCURVE",
"161 -10 OFFCURVE",
"308 -10 CURVE SMOOTH",
"387 -10 OFFCURVE",
"444 25 OFFCURVE",
"476 87 CURVE",
"517 19 OFFCURVE",
"589 -10 OFFCURVE",
"660 -10 CURVE SMOOTH",
"811 -10 OFFCURVE",
"898 94 OFFCURVE",
"898 313 CURVE SMOOTH",
"898 542 OFFCURVE",
"808 635 OFFCURVE",
"666 635 CURVE SMOOTH",
"590 635 OFFCURVE",
"527 593 OFFCURVE",
"494 535 CURVE",
"449 602 OFFCURVE",
"383 635 OFFCURVE",
"314 635 CURVE SMOOTH",
"162 635 OFFCURVE",
"75 531 OFFCURVE",
"75 314 CURVE SMOOTH"
);
},
{
closed = 1;
nodes = (
"170 461 OFFCURVE",
"219 557 OFFCURVE",
"314 557 CURVE SMOOTH",
"367 557 OFFCURVE",
"425 523 OFFCURVE",
"453 444 CURVE",
"449 423 OFFCURVE",
"446 398 OFFCURVE",
"444 374 CURVE SMOOTH",
"435 269 LINE SMOOTH",
"424 122 OFFCURVE",
"381 68 OFFCURVE",
"308 68 CURVE SMOOTH",
"217 68 OFFCURVE",
"170 162 OFFCURVE",
"170 313 CURVE SMOOTH"
);
},
{
closed = 1;
nodes = (
"520 211 OFFCURVE",
"525 242 OFFCURVE",
"527 268 CURVE SMOOTH",
"537 367 LINE SMOOTH",
"546 470 OFFCURVE",
"590 556 OFFCURVE",
"666 556 CURVE SMOOTH",
"758 556 OFFCURVE",
"803 461 OFFCURVE",
"803 313 CURVE SMOOTH",
"803 165 OFFCURVE",
"755 68 OFFCURVE",
"660 68 CURVE SMOOTH",
"605 68 OFFCURVE",
"542 96 OFFCURVE",
"515 184 CURVE"
);
}
);
};
layerId = "55C6F8EE-B60C-49C4-8D15-2255C9205224";
paths = (
{
closed = 1;
nodes = (
"75 85 OFFCURVE",
"161 -10 OFFCURVE",
"308 -10 CURVE SMOOTH",
"387 -10 OFFCURVE",
"444 25 OFFCURVE",
"476 87 CURVE",
"517 19 OFFCURVE",
"589 -10 OFFCURVE",
"660 -10 CURVE SMOOTH",
"811 -10 OFFCURVE",
"898 94 OFFCURVE",
"898 313 CURVE SMOOTH",
"898 542 OFFCURVE",
"808 635 OFFCURVE",
"666 635 CURVE SMOOTH",
"590 635 OFFCURVE",
"527 593 OFFCURVE",
"494 535 CURVE",
"449 602 OFFCURVE",
"383 635 OFFCURVE",
"314 635 CURVE SMOOTH",
"162 635 OFFCURVE",
"75 531 OFFCURVE",
"75 314 CURVE SMOOTH"
);
},
{
closed = 1;
nodes = (
"170 461 OFFCURVE",
"219 557 OFFCURVE",
"314 557 CURVE SMOOTH",
"367 557 OFFCURVE",
"425 523 OFFCURVE",
"453 444 CURVE",
"449 423 OFFCURVE",
"446 398 OFFCURVE",
"444 374 CURVE SMOOTH",
"435 269 LINE SMOOTH",
"424 122 OFFCURVE",
"381 68 OFFCURVE",
"308 68 CURVE SMOOTH",
"217 68 OFFCURVE",
"170 162 OFFCURVE",
"170 313 CURVE SMOOTH"
);
},
{
closed = 1;
nodes = (
"520 211 OFFCURVE",
"525 242 OFFCURVE",
"527 268 CURVE SMOOTH",
"537 367 LINE SMOOTH",
"546 470 OFFCURVE",
"590 556 OFFCURVE",
"666 556 CURVE SMOOTH",
"758 556 OFFCURVE",
"803 461 OFFCURVE",
"803 313 CURVE SMOOTH",
"803 165 OFFCURVE",
"755 68 OFFCURVE",
"660 68 CURVE SMOOTH",
"605 68 OFFCURVE",
"542 96 OFFCURVE",
"515 184 CURVE"
);
}
);
width = 973;
}
);
leftKerningGroup = Ka.MGondi;
leftMetricsKey = Ka.MGondi;
rightKerningGroup = KaHalf.MGondi;
rightMetricsKey = KaHalf.MGondi;
},
{
glyphname = KssaHalf.MGondi;
lastChange = "2019-10-22 12:17:12 +0000";
layers = (
{
background = {
paths = (
{
closed = 1;
nodes = (
"91 533 OFFCURVE",
"139 470 OFFCURVE",
"139 351 CURVE SMOOTH",
"139 0 LINE",
"234 0 LINE",
"234 433 LINE SMOOTH",
"234 518 OFFCURVE",
"281 557 OFFCURVE",
"339 557 CURVE SMOOTH",
"399 557 OFFCURVE",
"444 519 OFFCURVE",
"444 433 CURVE SMOOTH",
"444 0 LINE",
"539 0 LINE",
"539 423 LINE SMOOTH",
"539 516 OFFCURVE",
"585 557 OFFCURVE",
"649 557 CURVE SMOOTH",
"707 557 OFFCURVE",
"749 519 OFFCURVE",
"749 433 CURVE SMOOTH",
"749 0 LINE",
"844 0 LINE",
"844 434 LINE SMOOTH",
"844 554 OFFCURVE",
"776 635 OFFCURVE",
"650 635 CURVE SMOOTH",
"574 635 OFFCURVE",
"523 599 OFFCURVE",
"496 546 CURVE",
"471 599 OFFCURVE",
"415 635 OFFCURVE",
"342 635 CURVE SMOOTH",
"271 635 OFFCURVE",
"212 599 OFFCURVE",
"182 531 CURVE",
"163 574 OFFCURVE",
"134 608 OFFCURVE",
"105 634 CURVE",
"44 577 LINE"
);
}
);
};
layerId = "55C6F8EE-B60C-49C4-8D15-2255C9205224";
paths = (
{
closed = 1;
nodes = (
"91 533 OFFCURVE",
"139 470 OFFCURVE",
"139 351 CURVE SMOOTH",
"139 0 LINE",
"234 0 LINE",
"234 433 LINE SMOOTH",
"234 518 OFFCURVE",
"281 557 OFFCURVE",
"339 557 CURVE SMOOTH",
"399 557 OFFCURVE",
"444 519 OFFCURVE",
"444 433 CURVE SMOOTH",
"444 0 LINE",
"539 0 LINE",
"539 423 LINE SMOOTH",
"539 516 OFFCURVE",
"585 557 OFFCURVE",
"649 557 CURVE SMOOTH",
"707 557 OFFCURVE",
"749 519 OFFCURVE",
"749 433 CURVE SMOOTH",
"749 0 LINE",
"844 0 LINE",
"844 434 LINE SMOOTH",
"844 554 OFFCURVE",
"776 635 OFFCURVE",
"650 635 CURVE SMOOTH",
"574 635 OFFCURVE",
"523 599 OFFCURVE",
"496 546 CURVE",
"471 599 OFFCURVE",
"415 635 OFFCURVE",
"342 635 CURVE SMOOTH",
"271 635 OFFCURVE",
"212 599 OFFCURVE",
"182 531 CURVE",
"163 574 OFFCURVE",
"134 608 OFFCURVE",
"105 634 CURVE",
"44 577 LINE"
);
}
);
width = 934;
}
);
leftMetricsKey = Kssa.MGondi;
},
{
glyphname = JnyaHalf.MGondi;
lastChange = "2019-10-22 12:17:12 +0000";
layers = (
{
background = {
paths = (
{
closed = 1;
nodes = (
"80 52 OFFCURVE",
"133 -10 OFFCURVE",
"223 -10 CURVE SMOOTH",
"318 -10 OFFCURVE",
"363 56 OFFCURVE",
"363 173 CURVE SMOOTH",
"363 297 OFFCURVE",
"323 404 OFFCURVE",
"271 495 CURVE",
"312 536 OFFCURVE",
"358 557 OFFCURVE",
"404 557 CURVE SMOOTH",
"471 557 OFFCURVE",
"517 513 OFFCURVE",
"517 426 CURVE SMOOTH",
"517 0 LINE",
"612 0 LINE",
"612 426 LINE SMOOTH",
"612 564 OFFCURVE",
"533 635 OFFCURVE",
"411 635 CURVE SMOOTH",
"335 635 OFFCURVE",
"263 596 OFFCURVE",
"220 551 CURVE",
"200 578 OFFCURVE",
"179 606 OFFCURVE",
"156 635 CURVE",
"88 582 LINE",
"113 552 OFFCURVE",
"143 515 OFFCURVE",
"165 485 CURVE",
"128 424 OFFCURVE",
"80 311 OFFCURVE",
"80 173 CURVE SMOOTH"
);
},
{
closed = 1;
nodes = (
"173 277 OFFCURVE",
"192 353 OFFCURVE",
"218 422 CURVE",
"258 341 OFFCURVE",
"274 259 OFFCURVE",
"274 173 CURVE SMOOTH",
"274 101 OFFCURVE",
"255 68 OFFCURVE",
"224 68 CURVE SMOOTH",
"188 68 OFFCURVE",
"173 101 OFFCURVE",
"173 173 CURVE SMOOTH"
);
}
);
};
layerId = "55C6F8EE-B60C-49C4-8D15-2255C9205224";
paths = (
{
closed = 1;
nodes = (
"80 52 OFFCURVE",
"133 -10 OFFCURVE",
"223 -10 CURVE SMOOTH",
"318 -10 OFFCURVE",
"363 56 OFFCURVE",
"363 173 CURVE SMOOTH",
"363 297 OFFCURVE",
"323 404 OFFCURVE",
"271 495 CURVE",
"312 536 OFFCURVE",
"358 557 OFFCURVE",
"404 557 CURVE SMOOTH",
"471 557 OFFCURVE",
"517 513 OFFCURVE",
"517 426 CURVE SMOOTH",
"517 0 LINE",
"612 0 LINE",
"612 426 LINE SMOOTH",
"612 564 OFFCURVE",
"533 635 OFFCURVE",
"411 635 CURVE SMOOTH",
"335 635 OFFCURVE",
"263 596 OFFCURVE",
"220 551 CURVE",
"200 578 OFFCURVE",
"179 606 OFFCURVE",
"156 635 CURVE",
"88 582 LINE",
"113 552 OFFCURVE",
"143 515 OFFCURVE",
"165 485 CURVE",
"128 424 OFFCURVE",
"80 311 OFFCURVE",
"80 173 CURVE SMOOTH"
);
},
{
closed = 1;
nodes = (
"173 277 OFFCURVE",
"192 353 OFFCURVE",
"218 422 CURVE",
"258 341 OFFCURVE",
"274 259 OFFCURVE",
"274 173 CURVE SMOOTH",
"274 101 OFFCURVE",
"255 68 OFFCURVE",
"224 68 CURVE SMOOTH",
"188 68 OFFCURVE",
"173 101 OFFCURVE",
"173 173 CURVE SMOOTH"
);
}
);
width = 702;
}
);
leftMetricsKey = Jnya.MGondi;
},
{
glyphname = TraHalf.MGondi;
lastChange = "2019-10-22 12:17:12 +0000";
layers = (
{
background = {
paths = (
{
closed = 1;
nodes = (
"71 60 OFFCURVE",
"168 -10 OFFCURVE",
"303 -10 CURVE SMOOTH",
"445 -10 OFFCURVE",
"529 64 OFFCURVE",
"529 174 CURVE SMOOTH",
"529 248 OFFCURVE",
"489 306 OFFCURVE",
"425 330 CURVE",
"482 353 OFFCURVE",
"514 407 OFFCURVE",
"514 463 CURVE SMOOTH",
"514 573 OFFCURVE",
"418 635 OFFCURVE",
"296 635 CURVE SMOOTH",
"174 635 OFFCURVE",
"95 573 OFFCURVE",
"95 504 CURVE SMOOTH",
"95 461 OFFCURVE",
"126 431 OFFCURVE",
"181 431 CURVE SMOOTH",
"235 431 OFFCURVE",
"262 461 OFFCURVE",
"262 494 CURVE SMOOTH",
"262 516 OFFCURVE",
"250 534 OFFCURVE",
"232 545 CURVE",
"252 551 OFFCURVE",
"274 556 OFFCURVE",
"300 556 CURVE SMOOTH",
"377 556 OFFCURVE",
"422 515 OFFCURVE",
"422 460 CURVE SMOOTH",
"422 407 OFFCURVE",
"381 366 OFFCURVE",
"310 366 CURVE SMOOTH",
"254 366 LINE",
"254 297 LINE",
"318 297 LINE SMOOTH",
"391 297 OFFCURVE",
"441 249 OFFCURVE",
"441 183 CURVE SMOOTH",
"441 110 OFFCURVE",
"384 69 OFFCURVE",
"304 69 CURVE SMOOTH",
"224 69 OFFCURVE",
"163 111 OFFCURVE",
"163 187 CURVE SMOOTH",
"163 205 OFFCURVE",
"166 225 OFFCURVE",
"170 239 CURVE",
"84 260 LINE",
"78 242 OFFCURVE",
"71 217 OFFCURVE",
"71 187 CURVE SMOOTH"
);
}
);
};
layerId = "55C6F8EE-B60C-49C4-8D15-2255C9205224";
paths = (
{
closed = 1;
nodes = (
"71 60 OFFCURVE",
"168 -10 OFFCURVE",
"303 -10 CURVE SMOOTH",
"445 -10 OFFCURVE",
"529 64 OFFCURVE",
"529 174 CURVE SMOOTH",
"529 248 OFFCURVE",
"489 306 OFFCURVE",
"425 330 CURVE",
"482 353 OFFCURVE",
"514 407 OFFCURVE",
"514 463 CURVE SMOOTH",
"514 573 OFFCURVE",
"418 635 OFFCURVE",
"296 635 CURVE SMOOTH",
"174 635 OFFCURVE",
"95 573 OFFCURVE",
"95 504 CURVE SMOOTH",
"95 461 OFFCURVE",
"126 431 OFFCURVE",
"181 431 CURVE SMOOTH",
"235 431 OFFCURVE",
"262 461 OFFCURVE",
"262 494 CURVE SMOOTH",
"262 516 OFFCURVE",
"250 534 OFFCURVE",
"232 545 CURVE",
"252 551 OFFCURVE",
"274 556 OFFCURVE",
"300 556 CURVE SMOOTH",
"377 556 OFFCURVE",
"422 515 OFFCURVE",
"422 460 CURVE SMOOTH",
"422 407 OFFCURVE",
"381 366 OFFCURVE",
"310 366 CURVE SMOOTH",
"254 366 LINE",
"254 297 LINE",
"318 297 LINE SMOOTH",
"391 297 OFFCURVE",
"441 249 OFFCURVE",
"441 183 CURVE SMOOTH",
"441 110 OFFCURVE",
"384 69 OFFCURVE",
"304 69 CURVE SMOOTH",
"224 69 OFFCURVE",
"163 111 OFFCURVE",
"163 187 CURVE SMOOTH",
"163 205 OFFCURVE",
"166 225 OFFCURVE",
"170 239 CURVE",
"84 260 LINE",
"78 242 OFFCURVE",
"71 217 OFFCURVE",
"71 187 CURVE SMOOTH"
);
}
);
width = 594;
}
);
leftMetricsKey = Tra.MGondi;
},
{
glyphname = MatraAaChandra.MGondi;
lastChange = "2019-11-19 04:53:32 +0000";
layers = (
{
background = {
components = (
{
name = MatraAa.MGondi;
}
);
paths = (
{
closed = 1;
nodes = (
"-305 610 OFFCURVE",
"-253 555 OFFCURVE",
"-156 555 CURVE SMOOTH",
"-59 555 OFFCURVE",
"-7 610 OFFCURVE",
"-7 699 CURVE",
"-93 699 LINE",
"-93 647 OFFCURVE",
"-118 625 OFFCURVE",
"-156 625 CURVE SMOOTH",
"-194 625 OFFCURVE",
"-219 647 OFFCURVE",
"-219 699 CURVE",
"-305 699 LINE"
);
}
);
};
components = (
{
name = MatraAa.MGondi;
}
);
layerId = "55C6F8EE-B60C-49C4-8D15-2255C9205224";
paths = (
{
closed = 1;
nodes = (
"-305 610 OFFCURVE",
"-253 555 OFFCURVE",
"-156 555 CURVE SMOOTH",
"-59 555 OFFCURVE",
"-7 610 OFFCURVE",
"-7 699 CURVE",
"-93 699 LINE",
"-93 647 OFFCURVE",
"-118 625 OFFCURVE",
"-156 625 CURVE SMOOTH",
"-194 625 OFFCURVE",
"-219 647 OFFCURVE",
"-219 699 CURVE",
"-305 699 LINE"
);
}
);
width = 20;
}
);
},
{
glyphname = Anusvara.alt.MGondi;
lastChange = "2019-10-22 12:17:12 +0000";
layers = (
{
anchors = (
{
name = _top1;
position = "{0, 698}";
}
);
background = {
anchors = (
{
name = _top1;
position = "{0, 698}";
}
);
paths = (
{
closed = 1;
nodes = (
"-61 718 OFFCURVE",
"-34 698 OFFCURVE",
"0 698 CURVE SMOOTH",
"34 698 OFFCURVE",
"63 718 OFFCURVE",
"63 766 CURVE SMOOTH",
"63 815 OFFCURVE",
"34 833 OFFCURVE",
"0 833 CURVE SMOOTH",
"-34 833 OFFCURVE",
"-61 815 OFFCURVE",
"-61 766 CURVE SMOOTH"
);
}
);
};
layerId = "55C6F8EE-B60C-49C4-8D15-2255C9205224";
paths = (
{
closed = 1;
nodes = (
"-61 718 OFFCURVE",
"-34 698 OFFCURVE",
"0 698 CURVE SMOOTH",
"34 698 OFFCURVE",
"63 718 OFFCURVE",
"63 766 CURVE SMOOTH",
"63 815 OFFCURVE",
"34 833 OFFCURVE",
"0 833 CURVE SMOOTH",
"-34 833 OFFCURVE",
"-61 815 OFFCURVE",
"-61 766 CURVE SMOOTH"
);
}
);
width = 0;
}
);
category = Mark;
subCategory = Nonspacing;
},
{
glyphname = Visarga.alt.MGondi;
lastChange = "2019-10-22 12:17:12 +0000";
layers = (
{
background = {
paths = (
{
closed = 1;
nodes = (
"33 108 OFFCURVE",
"61 88 OFFCURVE",
"95 88 CURVE SMOOTH",
"129 88 OFFCURVE",
"159 108 OFFCURVE",
"159 157 CURVE SMOOTH",
"159 206 OFFCURVE",
"129 224 OFFCURVE",
"95 224 CURVE SMOOTH",
"61 224 OFFCURVE",
"33 206 OFFCURVE",
"33 157 CURVE SMOOTH"
);
},
{
closed = 1;
nodes = (
"33 412 OFFCURVE",
"61 392 OFFCURVE",
"95 392 CURVE SMOOTH",
"129 392 OFFCURVE",
"159 412 OFFCURVE",
"159 460 CURVE SMOOTH",
"159 510 OFFCURVE",
"129 528 OFFCURVE",
"95 528 CURVE SMOOTH",
"61 528 OFFCURVE",
"33 510 OFFCURVE",
"33 460 CURVE SMOOTH"
);
}
);
};
layerId = "55C6F8EE-B60C-49C4-8D15-2255C9205224";
paths = (
{
closed = 1;
nodes = (
"33 108 OFFCURVE",
"61 88 OFFCURVE",
"95 88 CURVE SMOOTH",
"129 88 OFFCURVE",
"159 108 OFFCURVE",
"159 157 CURVE SMOOTH",
"159 206 OFFCURVE",
"129 224 OFFCURVE",
"95 224 CURVE SMOOTH",
"61 224 OFFCURVE",
"33 206 OFFCURVE",
"33 157 CURVE SMOOTH"
);
},
{
closed = 1;
nodes = (
"33 412 OFFCURVE",
"61 392 OFFCURVE",
"95 392 CURVE SMOOTH",
"129 392 OFFCURVE",
"159 412 OFFCURVE",
"159 460 CURVE SMOOTH",
"159 510 OFFCURVE",
"129 528 OFFCURVE",
"95 528 CURVE SMOOTH",
"61 528 OFFCURVE",
"33 510 OFFCURVE",
"33 460 CURVE SMOOTH"
);
}
);
width = 199;
}
);
},
{
glyphname = Repha.alt.MGondi;
lastChange = "2019-10-22 12:17:12 +0000";
layers = (
{
background = {
paths = (
{
closed = 1;
nodes = (
"-166 281 LINE",
"-147 136 OFFCURVE",
"-41 49 OFFCURVE",
"56 13 CURVE",
"91 84 LINE",
"29 113 OFFCURVE",
"-52 177 OFFCURVE",
"-71 281 CURVE",
"-28 281 LINE SMOOTH",
"52 281 OFFCURVE",
"123 328 OFFCURVE",
"123 407 CURVE SMOOTH",
"123 487 OFFCURVE",
"75 542 OFFCURVE",
"-10 542 CURVE SMOOTH",
"-96 542 OFFCURVE",
"-171 483 OFFCURVE",
"-171 357 CURVE",
"-376 357 LINE",
"-376 281 LINE"
);
},
{
closed = 1;
nodes = (
"-76 440 OFFCURVE",
"-44 464 OFFCURVE",
"-10 464 CURVE SMOOTH",
"21 464 OFFCURVE",
"39 442 OFFCURVE",
"39 413 CURVE SMOOTH",
"39 378 OFFCURVE",
"11 357 OFFCURVE",
"-30 357 CURVE SMOOTH",
"-76 357 LINE"
);
}
);
};
layerId = "55C6F8EE-B60C-49C4-8D15-2255C9205224";
paths = (
{
closed = 1;
nodes = (
"-166 281 LINE",
"-147 136 OFFCURVE",
"-41 49 OFFCURVE",
"56 13 CURVE",
"91 84 LINE",
"29 113 OFFCURVE",
"-52 177 OFFCURVE",
"-71 281 CURVE",
"-28 281 LINE SMOOTH",
"52 281 OFFCURVE",
"123 328 OFFCURVE",
"123 407 CURVE SMOOTH",
"123 487 OFFCURVE",
"75 542 OFFCURVE",
"-10 542 CURVE SMOOTH",
"-96 542 OFFCURVE",
"-171 483 OFFCURVE",
"-171 357 CURVE",
"-376 357 LINE",
"-376 281 LINE"
);
},
{
closed = 1;
nodes = (
"-76 440 OFFCURVE",
"-44 464 OFFCURVE",
"-10 464 CURVE SMOOTH",
"21 464 OFFCURVE",
"39 442 OFFCURVE",
"39 413 CURVE SMOOTH",
"39 378 OFFCURVE",
"11 357 OFFCURVE",
"-30 357 CURVE SMOOTH",
"-76 357 LINE"
);
}
);
width = 185;
}
);
},
{
glyphname = MatraAaAnusvara.MGondi;
lastChange = "2019-12-10 13:02:20 +0000";
layers = (
{
background = {
components = (
{
name = MatraAa.MGondi;
}
);
paths = (
{
closed = 1;
nodes = (
"-119 550 OFFCURVE",
"-92 568 OFFCURVE",
"-92 614 CURVE SMOOTH",
"-92 661 OFFCURVE",
"-119 679 OFFCURVE",
"-151 679 CURVE SMOOTH",
"-184 679 OFFCURVE",
"-209 661 OFFCURVE",
"-209 614 CURVE SMOOTH",
"-209 568 OFFCURVE",
"-184 550 OFFCURVE",
"-151 550 CURVE SMOOTH"
);
}
);
};
components = (
{
name = MatraAa.MGondi;
}
);
layerId = "55C6F8EE-B60C-49C4-8D15-2255C9205224";
paths = (
{
closed = 1;
nodes = (
"-119 550 OFFCURVE",
"-92 568 OFFCURVE",
"-92 614 CURVE SMOOTH",
"-92 661 OFFCURVE",
"-119 679 OFFCURVE",
"-151 679 CURVE SMOOTH",
"-184 679 OFFCURVE",
"-209 661 OFFCURVE",
"-209 614 CURVE SMOOTH",
"-209 568 OFFCURVE",
"-184 550 OFFCURVE",
"-151 550 CURVE SMOOTH"
);
}
);
width = 20;
}
);
leftKerningGroup = MatraAaAnusvara.MGondi;
},
{
glyphname = MatraIAnusvara.MGondi;
lastChange = "2019-11-25 14:37:39 +0000";
layers = (
{
background = {
components = (
{
name = MatraI.MGondi;
},
{
alignment = -1;
name = Anusvara.MGondi;
transform = "{1, 0, 0, 1, 124, 0}";
}
);
paths = (
{
closed = 1;
nodes = (
"111 281 LINE",
"111 357 LINE",
"-64 357 LINE",
"-64 281 LINE"
);
}
);
};
components = (
{
name = MatraI.MGondi;
},
{
alignment = -1;
name = Anusvara.MGondi;
transform = "{1, 0, 0, 1, 124, 0}";
}
);
layerId = "55C6F8EE-B60C-49C4-8D15-2255C9205224";
paths = (
{
closed = 1;
nodes = (
"111 281 LINE",
"111 357 LINE",
"-64 357 LINE",
"-64 281 LINE"
);
}
);
width = 269;
}
);
leftKerningGroup = MatraI.MGondi;
rightKerningGroup = MatraIAnusvara.MGondi;
},
{
glyphname = MatraUuAnusvara.MGondi;
lastChange = "2019-11-25 14:37:52 +0000";
layers = (
{
background = {
components = (
{
name = MatraUu.MGondi;
},
{
alignment = -1;
name = Anusvara.MGondi;
transform = "{1, 0, 0, 1, 140, 0}";
}
);
paths = (
{
closed = 1;
nodes = (
"124 281 LINE",
"124 357 LINE",
"-51 357 LINE",
"-51 281 LINE"
);
}
);
};
components = (
{
name = MatraUu.MGondi;
},
{
alignment = -1;
name = Anusvara.MGondi;
transform = "{1, 0, 0, 1, 140, 0}";
}
);
layerId = "55C6F8EE-B60C-49C4-8D15-2255C9205224";
paths = (
{
closed = 1;
nodes = (
"124 281 LINE",
"124 357 LINE",
"-51 357 LINE",
"-51 281 LINE"
);
}
);
width = 285;
}
);
leftKerningGroup = MatraUu.MGondi;
rightKerningGroup = MatraIAnusvara.MGondi;
rightMetricsKey = MatraIAnusvara.MGondi;
},
{
glyphname = MatraOAnusvara.MGondi;
lastChange = "2019-10-22 12:17:12 +0000";
layers = (
{
background = {
components = (
{
name = MatraO.MGondi;
}
);
paths = (
{
closed = 1;
nodes = (
"-3 568 OFFCURVE",
"22 550 OFFCURVE",
"55 550 CURVE SMOOTH",
"87 550 OFFCURVE",
"114 568 OFFCURVE",
"114 614 CURVE SMOOTH",
"114 661 OFFCURVE",
"87 679 OFFCURVE",
"55 679 CURVE SMOOTH",
"22 679 OFFCURVE",
"-3 661 OFFCURVE",
"-3 614 CURVE SMOOTH"
);
}
);
};
components = (
{
name = MatraO.MGondi;
}
);
layerId = "55C6F8EE-B60C-49C4-8D15-2255C9205224";
paths = (
{
closed = 1;
nodes = (
"-3 568 OFFCURVE",
"22 550 OFFCURVE",
"55 550 CURVE SMOOTH",
"87 550 OFFCURVE",
"114 568 OFFCURVE",
"114 614 CURVE SMOOTH",
"114 661 OFFCURVE",
"87 679 OFFCURVE",
"55 679 CURVE SMOOTH",
"22 679 OFFCURVE",
"-3 661 OFFCURVE",
"-3 614 CURVE SMOOTH"
);
}
);
width = 70;
}
);
leftKerningGroup = MatraO.MGondi;
rightKerningGroup = MatraOAnusvara.MGondi;
},
{
glyphname = MatraAuAnusvara.MGondi;
lastChange = "2019-10-22 12:17:12 +0000";
layers = (
{
background = {
components = (
{
name = MatraAu.MGondi;
}
);
paths = (
{
closed = 1;
nodes = (
"140 568 OFFCURVE",
"165 550 OFFCURVE",
"198 550 CURVE SMOOTH",
"230 550 OFFCURVE",
"257 568 OFFCURVE",
"257 614 CURVE SMOOTH",
"257 661 OFFCURVE",
"230 679 OFFCURVE",
"198 679 CURVE SMOOTH",
"165 679 OFFCURVE",
"140 661 OFFCURVE",
"140 614 CURVE SMOOTH"
);
}
);
};
components = (
{
name = MatraAu.MGondi;
}
);
layerId = "55C6F8EE-B60C-49C4-8D15-2255C9205224";
paths = (
{
closed = 1;
nodes = (
"140 568 OFFCURVE",
"165 550 OFFCURVE",
"198 550 CURVE SMOOTH",
"230 550 OFFCURVE",
"257 568 OFFCURVE",
"257 614 CURVE SMOOTH",
"257 661 OFFCURVE",
"230 679 OFFCURVE",
"198 679 CURVE SMOOTH",
"165 679 OFFCURVE",
"140 661 OFFCURVE",
"140 614 CURVE SMOOTH"
);
}
);
width = 213;
}
);
leftKerningGroup = MatraAu.MGondi;
rightKerningGroup = MatraOAnusvara.MGondi;
rightMetricsKey = MatraOAnusvara.MGondi;
},
{
glyphname = MatraAaVisarga.MGondi;
lastChange = "2019-11-23 08:39:36 +0000";
layers = (
{
background = {
paths = (
{
closed = 1;
nodes = (
"73 428 LINE",
"73 504 LINE",
"-364 504 LINE",
"-364 428 LINE"
);
},
{
closed = 1;
nodes = (
"73 281 LINE",
"73 357 LINE",
"-294 357 LINE",
"-294 281 LINE"
);
},
{
closed = 1;
nodes = (
"-234 568 OFFCURVE",
"-209 550 OFFCURVE",
"-176 550 CURVE SMOOTH",
"-144 550 OFFCURVE",
"-117 568 OFFCURVE",
"-117 614 CURVE SMOOTH",
"-117 661 OFFCURVE",
"-144 679 OFFCURVE",
"-176 679 CURVE SMOOTH",
"-209 679 OFFCURVE",
"-234 661 OFFCURVE",
"-234 614 CURVE SMOOTH"
);
},
{
closed = 1;
nodes = (
"-54 568 OFFCURVE",
"-29 550 OFFCURVE",
"4 550 CURVE SMOOTH",
"36 550 OFFCURVE",
"63 568 OFFCURVE",
"63 614 CURVE SMOOTH",
"63 661 OFFCURVE",
"36 679 OFFCURVE",
"4 679 CURVE SMOOTH",
"-29 679 OFFCURVE",
"-54 661 OFFCURVE",
"-54 614 CURVE SMOOTH"
);
}
);
};
layerId = "55C6F8EE-B60C-49C4-8D15-2255C9205224";
paths = (
{
closed = 1;
nodes = (
"73 428 LINE",
"73 504 LINE",
"-364 504 LINE",
"-364 428 LINE"
);
},
{
closed = 1;
nodes = (
"73 281 LINE",
"73 357 LINE",
"-294 357 LINE",
"-294 281 LINE"
);
},
{
closed = 1;
nodes = (
"-234 568 OFFCURVE",
"-209 550 OFFCURVE",
"-176 550 CURVE SMOOTH",
"-144 550 OFFCURVE",
"-117 568 OFFCURVE",
"-117 614 CURVE SMOOTH",
"-117 661 OFFCURVE",
"-144 679 OFFCURVE",
"-176 679 CURVE SMOOTH",
"-209 679 OFFCURVE",
"-234 661 OFFCURVE",
"-234 614 CURVE SMOOTH"
);
},
{
closed = 1;
nodes = (
"-54 568 OFFCURVE",
"-29 550 OFFCURVE",
"4 550 CURVE SMOOTH",
"36 550 OFFCURVE",
"63 568 OFFCURVE",
"63 614 CURVE SMOOTH",
"63 661 OFFCURVE",
"36 679 OFFCURVE",
"4 679 CURVE SMOOTH",
"-29 679 OFFCURVE",
"-54 661 OFFCURVE",
"-54 614 CURVE SMOOTH"
);
}
);
width = 127;
}
);
leftKerningGroup = MatraAaAnusvara.MGondi;
},
{
glyphname = MatraOVisarga.MGondi;
lastChange = "2019-10-22 12:17:12 +0000";
layers = (
{
background = {
components = (
{
name = MatraO.MGondi;
}
);
paths = (
{
closed = 1;
nodes = (
"-2 568 OFFCURVE",
"23 550 OFFCURVE",
"56 550 CURVE SMOOTH",
"88 550 OFFCURVE",
"115 568 OFFCURVE",
"115 614 CURVE SMOOTH",
"115 661 OFFCURVE",
"88 679 OFFCURVE",
"56 679 CURVE SMOOTH",
"23 679 OFFCURVE",
"-2 661 OFFCURVE",
"-2 614 CURVE SMOOTH"
);
},
{
closed = 1;
nodes = (
"178 568 OFFCURVE",
"203 550 OFFCURVE",
"236 550 CURVE SMOOTH",
"268 550 OFFCURVE",
"295 568 OFFCURVE",
"295 614 CURVE SMOOTH",
"295 661 OFFCURVE",
"268 679 OFFCURVE",
"236 679 CURVE SMOOTH",
"203 679 OFFCURVE",
"178 661 OFFCURVE",
"178 614 CURVE SMOOTH"
);
}
);
};
components = (
{
name = MatraO.MGondi;
}
);
layerId = "55C6F8EE-B60C-49C4-8D15-2255C9205224";
paths = (
{
closed = 1;
nodes = (
"-2 568 OFFCURVE",
"23 550 OFFCURVE",
"56 550 CURVE SMOOTH",
"88 550 OFFCURVE",
"115 568 OFFCURVE",
"115 614 CURVE SMOOTH",
"115 661 OFFCURVE",
"88 679 OFFCURVE",
"56 679 CURVE SMOOTH",
"23 679 OFFCURVE",
"-2 661 OFFCURVE",
"-2 614 CURVE SMOOTH"
);
},
{
closed = 1;
nodes = (
"178 568 OFFCURVE",
"203 550 OFFCURVE",
"236 550 CURVE SMOOTH",
"268 550 OFFCURVE",
"295 568 OFFCURVE",
"295 614 CURVE SMOOTH",
"295 661 OFFCURVE",
"268 679 OFFCURVE",
"236 679 CURVE SMOOTH",
"203 679 OFFCURVE",
"178 661 OFFCURVE",
"178 614 CURVE SMOOTH"
);
}
);
width = 251;
}
);
leftKerningGroup = MatraO.MGondi;
rightMetricsKey = MatraOAnusvara.MGondi;
},
{
glyphname = MatraAuVisarga.MGondi;
lastChange = "2019-10-22 12:17:12 +0000";
layers = (
{
background = {
components = (
{
name = MatraAu.MGondi;
}
);
paths = (
{
closed = 1;
nodes = (
"130 568 OFFCURVE",
"155 550 OFFCURVE",
"188 550 CURVE SMOOTH",
"220 550 OFFCURVE",
"247 568 OFFCURVE",
"247 614 CURVE SMOOTH",
"247 661 OFFCURVE",
"220 679 OFFCURVE",
"188 679 CURVE SMOOTH",
"155 679 OFFCURVE",
"130 661 OFFCURVE",
"130 614 CURVE SMOOTH"
);
},
{
closed = 1;
nodes = (
"310 568 OFFCURVE",
"335 550 OFFCURVE",
"368 550 CURVE SMOOTH",
"400 550 OFFCURVE",
"427 568 OFFCURVE",
"427 614 CURVE SMOOTH",
"427 661 OFFCURVE",
"400 679 OFFCURVE",
"368 679 CURVE SMOOTH",
"335 679 OFFCURVE",
"310 661 OFFCURVE",
"310 614 CURVE SMOOTH"
);
}
);
};
components = (
{
name = MatraAu.MGondi;
}
);
layerId = "55C6F8EE-B60C-49C4-8D15-2255C9205224";
paths = (
{
closed = 1;
nodes = (
"130 568 OFFCURVE",
"155 550 OFFCURVE",
"188 550 CURVE SMOOTH",
"220 550 OFFCURVE",
"247 568 OFFCURVE",
"247 614 CURVE SMOOTH",
"247 661 OFFCURVE",
"220 679 OFFCURVE",
"188 679 CURVE SMOOTH",
"155 679 OFFCURVE",
"130 661 OFFCURVE",
"130 614 CURVE SMOOTH"
);
},
{
closed = 1;
nodes = (
"310 568 OFFCURVE",
"335 550 OFFCURVE",
"368 550 CURVE SMOOTH",
"400 550 OFFCURVE",
"427 568 OFFCURVE",
"427 614 CURVE SMOOTH",
"427 661 OFFCURVE",
"400 679 OFFCURVE",
"368 679 CURVE SMOOTH",
"335 679 OFFCURVE",
"310 661 OFFCURVE",
"310 614 CURVE SMOOTH"
);
}
);
width = 383;
}
);
leftKerningGroup = MatraAu.MGondi;
rightMetricsKey = MatraOAnusvara.MGondi;
},
{
glyphname = MatraAaRepha.MGondi;
lastChange = "2019-11-23 12:53:14 +0000";
layers = (
{
layerId = "55C6F8EE-B60C-49C4-8D15-2255C9205224";
paths = (
{
closed = 1;
nodes = (
"130 428 LINE",
"130 504 LINE",
"45 504 LINE",
"45 614 LINE SMOOTH",
"45 674 OFFCURVE",
"0 722 OFFCURVE",
"-75 722 CURVE SMOOTH",
"-155 722 OFFCURVE",
"-197 674 OFFCURVE",
"-197 614 CURVE SMOOTH",
"-197 504 LINE",
"-314 504 LINE",
"-314 428 LINE"
);
},
{
closed = 1;
nodes = (
"130 281 LINE",
"130 357 LINE",
"-264 357 LINE",
"-264 281 LINE"
);
},
{
closed = 1;
nodes = (
"-109 614 LINE SMOOTH",
"-109 636 OFFCURVE",
"-95 651 OFFCURVE",
"-75 651 CURVE SMOOTH",
"-54 651 OFFCURVE",
"-41 637 OFFCURVE",
"-41 614 CURVE SMOOTH",
"-41 504 LINE",
"-109 504 LINE"
);
}
);
width = 160;
}
);
leftKerningGroup = MatraAaRepha.MGondi;
},
{
glyphname = MatraAaRephaAnusvara.MGondi;
lastChange = "2019-11-23 12:48:55 +0000";
layers = (
{
components = (
{
name = MatraAaRepha.MGondi;
}
);
layerId = "55C6F8EE-B60C-49C4-8D15-2255C9205224";
paths = (
{
closed = 1;
nodes = (
"140 568 OFFCURVE",
"165 550 OFFCURVE",
"198 550 CURVE SMOOTH",
"230 550 OFFCURVE",
"257 568 OFFCURVE",
"257 614 CURVE SMOOTH",
"257 661 OFFCURVE",
"230 679 OFFCURVE",
"198 679 CURVE SMOOTH",
"165 679 OFFCURVE",
"140 661 OFFCURVE",
"140 614 CURVE SMOOTH"
);
}
);
width = 213;
}
);
leftKerningGroup = MatraAaRepha.MGondi;
},
{
glyphname = One.alt.MGondi;
lastChange = "2019-10-22 12:17:12 +0000";
layers = (
{
background = {
paths = (
{
closed = 1;
nodes = (
"90 45 OFFCURVE",
"163 -10 OFFCURVE",
"286 -10 CURVE SMOOTH",
"492 -10 LINE",
"492 68 LINE",
"286 68 LINE SMOOTH",
"217 68 OFFCURVE",
"185 97 OFFCURVE",
"185 163 CURVE SMOOTH",
"185 630 LINE",
"90 630 LINE",
"90 157 LINE SMOOTH"
);
}
);
};
layerId = "55C6F8EE-B60C-49C4-8D15-2255C9205224";
paths = (
{
closed = 1;
nodes = (
"90 45 OFFCURVE",
"163 -10 OFFCURVE",
"286 -10 CURVE SMOOTH",
"492 -10 LINE",
"492 68 LINE",
"286 68 LINE SMOOTH",
"217 68 OFFCURVE",
"185 97 OFFCURVE",
"185 163 CURVE SMOOTH",
"185 630 LINE",
"90 630 LINE",
"90 157 LINE SMOOTH"
);
}
);
width = 540;
}
);
},
{
glyphname = Four.alt.MGondi;
lastChange = "2019-10-22 12:17:12 +0000";
layers = (
{
background = {
paths = (
{
closed = 1;
nodes = (
"90 77 OFFCURVE",
"166 -10 OFFCURVE",
"322 -10 CURVE SMOOTH",
"479 -10 OFFCURVE",
"554 77 OFFCURVE",
"554 221 CURVE SMOOTH",
"554 630 LINE",
"90 630 LINE",
"90 221 LINE SMOOTH"
);
},
{
closed = 1;
nodes = (
"185 348 LINE",
"459 348 LINE",
"459 222 LINE SMOOTH",
"459 115 OFFCURVE",
"406 68 OFFCURVE",
"322 68 CURVE SMOOTH",
"238 68 OFFCURVE",
"185 115 OFFCURVE",
"185 222 CURVE SMOOTH"
);
},
{
closed = 1;
nodes = (
"185 554 LINE",
"459 554 LINE",
"459 424 LINE",
"185 424 LINE"
);
}
);
};
layerId = "55C6F8EE-B60C-49C4-8D15-2255C9205224";
paths = (
{
closed = 1;
nodes = (
"90 77 OFFCURVE",
"166 -10 OFFCURVE",
"322 -10 CURVE SMOOTH",
"479 -10 OFFCURVE",
"554 77 OFFCURVE",
"554 221 CURVE SMOOTH",
"554 630 LINE",
"90 630 LINE",
"90 221 LINE SMOOTH"
);
},
{
closed = 1;
nodes = (
"185 348 LINE",
"459 348 LINE",
"459 222 LINE SMOOTH",
"459 115 OFFCURVE",
"406 68 OFFCURVE",
"322 68 CURVE SMOOTH",
"238 68 OFFCURVE",
"185 115 OFFCURVE",
"185 222 CURVE SMOOTH"
);
},
{
closed = 1;
nodes = (
"185 554 LINE",
"459 554 LINE",
"459 424 LINE",
"185 424 LINE"
);
}
);
width = 644;
}
);
},
{
glyphname = Five.alt.MGondi;
lastChange = "2019-10-22 12:17:12 +0000";
layers = (
{
background = {
paths = (
{
closed = 1;
nodes = (
"90 52 OFFCURVE",
"155 -6 OFFCURVE",
"255 -6 CURVE SMOOTH",
"319 -6 OFFCURVE",
"365 21 OFFCURVE",
"382 75 CURVE",
"404 21 OFFCURVE",
"449 -6 OFFCURVE",
"516 -6 CURVE SMOOTH",
"612 -6 OFFCURVE",
"674 58 OFFCURVE",
"674 178 CURVE SMOOTH",
"674 630 LINE",
"90 630 LINE",
"90 178 LINE SMOOTH"
);
},
{
closed = 1;
nodes = (
"186 348 LINE",
"343 348 LINE",
"343 168 LINE SMOOTH",
"343 101 OFFCURVE",
"312 72 OFFCURVE",
"266 72 CURVE SMOOTH",
"213 72 OFFCURVE",
"185 105 OFFCURVE",
"185 178 CURVE SMOOTH"
);
},
{
closed = 1;
nodes = (
"187 554 LINE",
"579 554 LINE",
"579 424 LINE",
"186 424 LINE"
);
},
{
closed = 1;
nodes = (
"420 348 LINE",
"579 348 LINE",
"579 178 LINE SMOOTH",
"579 105 OFFCURVE",
"554 72 OFFCURVE",
"503 72 CURVE SMOOTH",
"459 72 OFFCURVE",
"420 104 OFFCURVE",
"420 168 CURVE SMOOTH"
);
}
);
};
layerId = "55C6F8EE-B60C-49C4-8D15-2255C9205224";
paths = (
{
closed = 1;
nodes = (
"90 52 OFFCURVE",
"155 -6 OFFCURVE",
"255 -6 CURVE SMOOTH",
"319 -6 OFFCURVE",
"365 21 OFFCURVE",
"382 75 CURVE",
"404 21 OFFCURVE",
"449 -6 OFFCURVE",
"516 -6 CURVE SMOOTH",
"612 -6 OFFCURVE",
"674 58 OFFCURVE",
"674 178 CURVE SMOOTH",
"674 630 LINE",
"90 630 LINE",
"90 178 LINE SMOOTH"
);
},
{
closed = 1;
nodes = (
"186 348 LINE",
"343 348 LINE",
"343 168 LINE SMOOTH",
"343 101 OFFCURVE",
"312 72 OFFCURVE",
"266 72 CURVE SMOOTH",
"213 72 OFFCURVE",
"185 105 OFFCURVE",
"185 178 CURVE SMOOTH"
);
},
{
closed = 1;
nodes = (
"187 554 LINE",
"579 554 LINE",
"579 424 LINE",
"186 424 LINE"
);
},
{
closed = 1;
nodes = (
"420 348 LINE",
"579 348 LINE",
"579 178 LINE SMOOTH",
"579 105 OFFCURVE",
"554 72 OFFCURVE",
"503 72 CURVE SMOOTH",
"459 72 OFFCURVE",
"420 104 OFFCURVE",
"420 168 CURVE SMOOTH"
);
}
);
width = 764;
}
);
},
